<?xml version="1.0" encoding="utf-8"?>
<!-- Generator: Adobe Illustrator 27.9.1, SVG Export Plug-In . SVG Version: 6.00 Build 0)  -->
<svg version="1.1" id="Layer_1" xmlns="http://www.w3.org/2000/svg" xmlns:xlink="http://www.w3.org/1999/xlink" x="0px" y="0px"
	 viewBox="0 0 335.9 335.9" style="enable-background:new 0 0 335.9 335.9;" xml:space="preserve">
<style type="text/css">
	.st0{fill-rule:evenodd;clip-rule:evenodd;fill:#E88121;}
	.st1{fill-rule:evenodd;clip-rule:evenodd;fill:#FFFFFF;}
</style>
<g>
	<g>
		<g id="XMLID_00000000905390954710890100000014150540286164562852_">
			<circle class="st0" cx="168.1" cy="170.5" r="161.2"/>
		</g>
		<g id="XMLID_00000064318770905331384570000008811928731009224324_">
			<g id="XMLID_00000111906175740896167360000000378479987159478169_">
				<path class="st1" d="M113,107c18-1.4,39.2-2.2,55.4-2.2l0,0l0,0c16.2,0,37,0.7,55.4,2.2c21.2,1.8,32,5.4,34.9,26.6
					c1.4,9.7,2.2,23,2.2,36.7l0,0c0,13.7-0.7,27.3-2.2,36.7c-2.9,21.6-13.7,24.8-34.9,26.6c-18.3,1.8-39.2,2.2-55.4,2.2l0,0l0,0
					c-16.2,0-37.4-0.4-55.4-2.2c-21.2-1.8-32.4-5-35.3-26.6c-1.1-9.4-1.8-23-1.8-36.7l0,0c0-13.7,0.7-27,1.8-36.7
					C80.6,112.4,91.7,108.8,113,107L113,107z"/>
			</g>
			<g id="XMLID_00000146477370174965191890000009491667603427907245_">
				<polygon class="st0" points="149.7,142.6 197.9,170.3 149.7,198.3 				"/>
			</g>
		</g>
	</g>
</g>
</svg>
