<?xml version="1.0" encoding="utf-8"?>
<!-- Generator: Adobe Illustrator 28.0.0, SVG Export Plug-In . SVG Version: 6.00 Build 0)  -->
<svg version="1.1" id="Layer_1" xmlns="http://www.w3.org/2000/svg" xmlns:xlink="http://www.w3.org/1999/xlink" x="0px" y="0px"
	 viewBox="0 0 335.9 335.9" style="enable-background:new 0 0 335.9 335.9;" xml:space="preserve">
<style type="text/css">
	.st0{fill:#FF8DEA;}
	.st1{fill-rule:evenodd;clip-rule:evenodd;fill:#FFFFFF;}
	.st2{fill-rule:evenodd;clip-rule:evenodd;fill:#FF8DEA;}
</style>
<path class="st0" d="M166.9,333.4C77.9,333.2,5.1,260,5.2,170.8C5.2,82,78.9,8.8,167.8,9c88.9,0.2,161.9,73.5,161.8,162.6
	C329.4,260.3,255.8,333.6,166.9,333.4z"/>
<g id="XMLID_22_">
	<g id="XMLID_24_">
		<path class="st1" d="M113.8,105.6c17.9-1.4,39-2.1,55.1-2.1l0,0l0,0c16.1,0,36.8,0.7,55.1,2.1c21.1,1.8,31.8,5.4,34.7,26.5
			c1.4,9.7,2.1,22.9,2.1,36.5l0,0c0,13.6-0.7,27.2-2.1,36.5c-2.9,21.5-13.6,24.7-34.7,26.5c-18.2,1.8-39,2.1-55.1,2.1l0,0l0,0
			c-16.1,0-37.2-0.4-55.1-2.1c-21.1-1.8-32.2-5-35.1-26.5c-1.1-9.3-1.8-22.9-1.8-36.5l0,0c0-13.6,0.7-26.8,1.8-36.5
			C81.6,111,92.7,107.4,113.8,105.6L113.8,105.6z"/>
	</g>
	<g id="XMLID_23_">
		<polygon class="st2" points="150.3,141 198.2,168.6 150.3,196.5 		"/>
	</g>
</g>
</svg>
