<?xml version="1.0" encoding="utf-8"?>
<!-- Generator: Adobe Illustrator 28.0.0, SVG Export Plug-In . SVG Version: 6.00 Build 0)  -->
<svg version="1.1" id="Layer_1" xmlns="http://www.w3.org/2000/svg" xmlns:xlink="http://www.w3.org/1999/xlink" x="0px" y="0px"
	 viewBox="0 0 335.9 335.9" style="enable-background:new 0 0 335.9 335.9;" xml:space="preserve">
<style type="text/css">
	.st0{fill:#FFFFFF;}
	.st1{fill:#FF8DEA;}
</style>
<path class="st0" d="M166.9,333.4C77.9,333.2,5.1,260,5.2,170.8C5.2,82,78.9,8.8,167.8,9c88.9,0.2,161.9,73.5,161.8,162.6
	C329.4,260.3,255.8,333.6,166.9,333.4z"/>
<path class="st1" d="M166.9,333.4C77.9,333.2,5.1,260,5.2,170.8C5.2,82,78.9,8.8,167.8,9c88.9,0.2,161.9,73.5,161.8,162.6
	C329.4,260.3,255.8,333.6,166.9,333.4z M153.2,139.9c-17,0-33.2,0-50.1,0c0,21.7,0,42.2,0,63c17.6,0,33.5,0,50.1,0
	C153.2,181.4,153.2,160.8,153.2,139.9z M181.6,203c16.8,0,32.7,0,49.9,0c0-21.6,0-42.4,0-63.3c-17.7,0-33.6,0-49.9,0
	C181.6,161.2,181.6,181.8,181.6,203z M74,202c0-21.1,0-41.6,0-62.1c-39.6-2.4-35.5-6.6-37.7,30c-1.9,32.9,3.4,36.7,36,33.3
	C72.7,203.1,73,202.7,74,202z M260.6,140.2c0,21,0,41.5,0,62c39.8,3,35.7,6.7,37.8-29.3c2-33.3-2.7-36.5-35.6-33.7
	C262.4,139.2,262,139.5,260.6,140.2z M153.1,43.3c-22,19.8-34.8,41.3-42.7,66.7c15,0,28.5,0,42.7,0
	C153.1,88.1,153.1,67.2,153.1,43.3z M224.3,110.6c-8.2-26.1-20.9-47.8-42.4-66.9c0,23.9,0,45.2,0,66.9
	C196.3,110.6,209.5,110.6,224.3,110.6z M152.9,297.1c0-21.9,0-43.2,0-64.9c-14.4,0-27.9,0-41.5,0C117.4,257.5,134,283.7,152.9,297.1
	z M181.7,298.9c21.7-19.5,34.4-41.2,42.7-66.8c-15.4,0-28.6,0-42.7,0C181.7,253.7,181.7,274.6,181.7,298.9z M220.2,48.7
	c6.3,9.1,12.7,17.1,17.7,25.8c5,8.7,7.8,18.7,13,27.3c2.5,4.1,7.7,7.7,12.4,9c5.8,1.5,12.3,0.4,19,0.4
	C272.9,86.1,246.8,60.1,220.2,48.7z M223.2,293.4c25-13.3,45.6-33,60.5-62.1c-8.2,0-14.2-0.9-19.8,0.3c-4.4,1-10.1,3.5-12.1,7.1
	C241.6,256.8,232.4,275.5,223.2,293.4z M50.7,111.1c9,0,15.1,0.6,20.9-0.2c3.8-0.6,9.1-2.4,10.7-5.3c10.3-18.9,19.7-38.2,28.9-56.3
	C86.5,62.5,65.8,82,50.7,111.1z M52.6,231.3c8.8,25.1,41.8,57.2,58.4,60c-7.5-13.4-17.6-27.5-23.3-43.2c-5-13.6-11.6-19.4-25.6-16.9
	C59.4,231.7,56.5,231.3,52.6,231.3z"/>
</svg>
