<?xml version="1.0" encoding="utf-8"?>
<!-- Generator: Adobe Illustrator 27.9.1, SVG Export Plug-In . SVG Version: 6.00 Build 0)  -->
<svg version="1.1" id="Layer_1" xmlns="http://www.w3.org/2000/svg" xmlns:xlink="http://www.w3.org/1999/xlink" x="0px" y="0px"
	 viewBox="0 0 335.9 335.9" style="enable-background:new 0 0 335.9 335.9;" xml:space="preserve">
<style type="text/css">
	.st0{fill-rule:evenodd;clip-rule:evenodd;fill:#E88121;}
	.st1{fill-rule:evenodd;clip-rule:evenodd;fill:#FFFFFF;}
</style>
<g>
	<g>
		<g id="XMLID_00000072987884973294219050000010693576038842291375_">
			<circle class="st0" cx="169.7" cy="170.5" r="161.2"/>
		</g>
		<g id="XMLID_00000175297463381554979180000001095445851704626051_">
			<path class="st1" d="M226.5,117c-10.1-6.2-17.9-17.9-19.9-29.6c-0.4-2.7-0.8-5.1-0.8-7.8H175V152v50.3
				c0,14.4-11.7,26.1-26.1,26.1c-4.7,0-8.6-1.2-12.5-3.1c-8.2-4.3-14-13.2-14-23c0-14.4,11.7-26.1,26.5-26.1c2.7,0,5.1,0.4,7.8,1.2
				v-24.2v-7c-2.7-0.4-5.1-0.8-7.8-0.8c-31.6,0-57.3,25.3-57.3,56.9c0,19.1,9.7,36.2,24.5,46.4c9.4,6.2,20.7,10.1,32.7,10.1
				c31.6,0,56.9-25.3,56.9-56.5v-63.9c11.7,10.5,27.3,15.6,42.9,14.4v-23V122C241,123.6,233.2,121.3,226.5,117z"/>
		</g>
	</g>
</g>
</svg>
