<?xml version="1.0" encoding="UTF-8"?>
<svg id="_レイヤー_2" data-name="レイヤー 2" xmlns="http://www.w3.org/2000/svg" xmlns:xlink="http://www.w3.org/1999/xlink" viewBox="0 0 595.96 524.88">
  <defs>
    <style>
      .cls-1 {
        fill: none;
      }

      .cls-2 {
        fill: #f8d1e0;
      }

      .cls-3 {
        fill: #fff;
      }

      .cls-4 {
        fill: #fbebf2;
      }

      .cls-5 {
        fill: #f6c8dd;
      }

      .cls-6 {
        fill: #f09dc1;
      }

      .cls-7 {
        clip-path: url(#clippath);
      }
    </style>
    <clipPath id="clippath">
      <rect class="cls-1" x="445.31" y="236.33" width="150.28" height="106.35"/>
    </clipPath>
  </defs>
  <g id="_レイヤー_1-2" data-name="レイヤー 1">
    <path class="cls-6" d="M20.61,63.78c.52.3,1.02.61,1.52.93.13-.24.25-.48.39-.72,7.86-13.62,22.85-20.54,37.53-18.8-.01-2.32.28-4.69.91-7.04,2.4-8.9,9.08-15.49,17.22-18.17,4.73-1.56,9.95-1.81,15.12-.41.46.12.91.26,1.36.41,12.26,4.02,19.73,16.32,17.84,28.93,2.32-.01,4.67.28,7.01.91,9.76,2.64,16.75,10.42,18.84,19.63,9.67-2.97,20.26-3.35,30.74-.51,18.7,5.05,32.58,19.09,38.24,36.2,11.94-7.71,26.78-10.83,41.6-7.68.13-2.69.54-5.4,1.27-8.1,5.49-20.33,26.42-32.36,46.75-26.87,7.44,2.01,13.76,6.1,18.53,11.46.46-.99.96-1.97,1.52-2.93,8.39-14.53,24.89-21.44,40.48-18.33.03-2.14.33-4.32.91-6.48,1.41-5.2,4.27-9.61,8.04-12.92-1.15-4.22-1.26-8.78-.13-13.31.04-.16.08-.31.12-.47,3.8-14.06,18.28-22.38,32.34-18.58,9.55,2.58,16.45,10.09,18.71,19.05.65,2.59.92,5.31.74,8.06,4.73-1.56,9.96-1.81,15.13-.41,12.45,3.36,20.39,15.1,19.41,27.5,4.74-.58,9.66-.28,14.56,1.04,15.42,4.16,26.05,17.21,27.9,32.14,5.47-1.15,11.26-1.12,17.03.32.24-.46.49-.92.75-1.38.15-21.38,17.52-38.67,38.94-38.67,10.18,0,19.45,3.91,26.39,10.31,4.69-5.19,10.75-9.12,17.62-11.2v74.55s0,289.07,0,289.07H.69v-197.17s0-155.43,0-155.43c6.76-.16,13.64,1.46,19.92,5.09Z"/>
    <path class="cls-5" d="M575.67,173.8c-.52.3-1.02.61-1.52.93-.13-.24-.25-.48-.39-.72-7.86-13.62-22.85-20.54-37.53-18.8.01-2.32-.28-4.69-.91-7.04-2.4-8.9-9.08-15.49-17.22-18.17-4.73-1.56-9.95-1.81-15.12-.41-.46.12-.91.26-1.36.41-12.26,4.02-19.73,16.32-17.84,28.93-2.32-.01-4.67.28-7.01.91-9.76,2.64-16.75,10.42-18.84,19.63-9.67-2.97-20.26-3.35-30.74-.51-18.7,5.05-32.58,19.09-38.24,36.2-11.94-7.71-26.78-10.83-41.6-7.68-.13-2.69-.54-5.4-1.27-8.1-5.49-20.33-26.42-32.36-46.75-26.87-7.44,2.01-13.76,6.1-18.53,11.46-.46-.99-.96-1.97-1.52-2.93-8.39-14.53-24.89-21.44-40.48-18.33-.03-2.14-.33-4.32-.91-6.48-1.41-5.2-4.27-9.61-8.04-12.92,1.15-4.22,1.26-8.78.13-13.31-.04-.16-.08-.31-.12-.47-3.8-14.06-18.28-22.38-32.34-18.58-9.55,2.58-16.45,10.09-18.71,19.05-.65,2.59-.92,5.31-.74,8.06-4.73-1.56-9.96-1.81-15.13-.41-12.45,3.36-20.39,15.1-19.41,27.5-4.74-.58-9.66-.28-14.56,1.04-15.42,4.16-26.05,17.21-27.9,32.14-5.47-1.15-11.26-1.12-17.03.32-.24-.46-.49-.92-.75-1.38-.15-21.38-17.52-38.67-38.94-38.67-10.18,0-19.45,3.91-26.39,10.31-4.69-5.19-10.75-9.12-17.62-11.2v363.62h595.28V168.72c-6.76-.16-13.64,1.46-19.92,5.09Z"/>
    <path class="cls-3" d="M578.26,230.05c-6.95-6.41-16.23-10.32-26.42-10.32-11.31,0-21.49,4.82-28.61,12.51-3.71-1.54-7.78-2.39-12.05-2.39-9.54,0-18.08,4.24-23.86,10.94-1.52-9.94-26.23-46.02-69.35-41.61.18-2.75-.09-5.47-.74-8.07-2.26-8.97-9.16-16.49-18.73-19.07-14.08-3.8-28.57,4.53-32.37,18.6-.04.16-.08.31-.12.47-1.14,4.53-1.02,9.1.13,13.32-3.77,3.31-6.64,7.73-8.05,12.93-.58,2.17-.88,4.34-.91,6.49-15.6-3.12-32.13,3.8-40.52,18.34-.56.96-1.05,1.94-1.52,2.93-4.77-5.37-11.1-9.46-18.55-11.47-20.35-5.5-41.3,6.54-46.8,26.89-.73,2.7-1.14,5.42-1.28,8.11-14.83-3.15-29.69-.03-41.64,7.69-5.66-17.13-19.55-31.18-38.28-36.24-10.49-2.83-21.1-2.46-30.77.52-2.1-9.22-9.1-17.01-18.86-19.65-2.35-.63-4.7-.92-7.02-.91,1.89-12.62-5.59-24.93-17.86-28.96-.45-.15-.9-.29-1.36-.41-5.17-1.4-10.4-1.15-15.13.41-8.15,2.69-14.83,9.29-17.24,18.19-.64,2.36-.93,4.72-.91,7.05-14.7-1.74-29.7,5.19-37.57,18.82-.14.24-.26.48-.39.72-.5-.32-1-.63-1.52-.93-6.29-3.63-13.18-5.26-19.94-5.09v295.02h595.9V218.84c-6.87,2.08-12.95,6.01-17.64,11.21Z"/>
    <path class="cls-4" d="M168.93,364.68c-3.26-4.93-8.47-8.65-14.34-9.7-9.17-1.6-19.1,3.52-23.14,11.92-9.51-4.27-21.99.92-25.73,10.68-6.4-6.5-17.59-6.22-25.6-3.63-6.28,2.07-12.6,5.46-15.94,11.45-1.48,2.63-2.34,5.57-3.18,8.6-5.59-3.99-15.9-2.35-22.06-.55-6.64,1.88-13.67,5.47-17.61,11.38-1.47,2.21-2.13,4.8-2.04,7.43,3.92-5.99,11.86-9.06,19.19-10.23,8.7-1.38,18.29-.83,25.38,4.32.95-3.37,2.52-8.58,3.01-9.65,1.65-3.15,3.83-6.06,6.44-8.37,6.3-5.62,14.15-6.62,22.22-7.32,4.98-.38,10.18-.37,14.66,1.81.86-11.78,17.35-15.63,25.34-8.47,3.03-5.93,8.59-10.45,15-12.2,6.17-1.72,12.93-.73,18.41,2.54Z"/>
    <path class="cls-4" d="M375.29,480.53s-2.05-8.79-16.05-8.57c-14.16.23-19,12.92-19,12.92,0,0-5.69-9.55-23.18-8.48-20.19,1.23-23.5,18.76-23.5,18.76,0,0-23.58-6.49-29.06,9.75,0,0,15.07-13.9,34.94-2.11,0,0,1.36-16.57,21.84-17.87,15.15-.96,23.95,13.14,23.95,13.14,0,0,1.33-8.18,6.87-13.3,10.11-9.34,23.19-4.24,23.19-4.24Z"/>
    <path class="cls-4" d="M145.5,258.85s-2.05-8.79-16.05-8.57c-14.16.23-19,12.92-19,12.92,0,0-5.69-9.55-23.18-8.48-20.19,1.23-23.5,18.76-23.5,18.76,0,0-23.58-6.49-29.06,9.75,0,0,15.07-13.9,34.94-2.11,0,0,1.36-16.57,21.84-17.87,15.15-.96,23.95,13.14,23.95,13.14,0,0,1.33-8.18,6.87-13.3,10.11-9.34,23.19-4.24,23.19-4.24Z"/>
    <path class="cls-4" d="M502.34,394.09s5.33-13.56,22.27-12.1c16.94,1.45,23.48,16.92,23.48,16.92,0,0-1.65-8.82,9.31-13.8,9.26-4.21,19.41,3.99,19.41,3.99,0,0-1.05-15.47,13.37-15.01,0,0-5.32.7-7.95,7.15-1.74,4.27-2.19,11.8,1.99,18.79,0,0-13.75-12.57-24.49-8.38-10.73,4.18-9.96,15.56-9.96,15.56,0,0-7.74-15.21-28.11-16.74-13.08-.98-19.32,3.63-19.32,3.63Z"/>
    <path class="cls-4" d="M441.21,390.64s1.98-19.41,23.77-18.62c0,0,2.03-6.14,8.95-6.41,6.92-.27,10.54,5.04,10.54,5.04,0,0-1.28-5.57,2.86-9.16,1.93-1.68,7.05-4.08,12.71,1.11,0,0-6.58-1.06-9.81,3.04-2.92,3.7-3.65,10.52-.87,18.61,0,0-6.39-10.91-13.58-11.18-7.19-.27-7.18,7.99-7.18,7.99,0,0-15.4-9.57-27.4,9.59Z"/>
    <path class="cls-2" d="M105.36,502.36v-1.21c-.02.41-.01.81,0,1.21Z"/>
    <g class="cls-7">
      <path class="cls-4" d="M470.64,304.13s-1.24-14.21,16.64-19.46c19.07-5.6,27.51,12.89,27.51,12.89,0,0,4.5-17.06,27.74-19.31,26.82-2.6,36.58,25.57,36.58,25.57,0,0,28.87-16.12,41.07,9.43,0,0-24.03-19.49-46.41,4.52,0,0-6.91-27.04-34.12-24.48-20.14,1.9-27.3,27.18-27.3,27.18,0,0-2.42-17.09-11.68-23.26-10.44-6.95-24.36-3.87-30.03,6.91Z"/>
    </g>
  </g>
</svg>