<?xml version="1.0" encoding="UTF-8"?>
<svg id="_レイヤー_2" data-name="レイヤー 2" xmlns="http://www.w3.org/2000/svg" xmlns:xlink="http://www.w3.org/1999/xlink" viewBox="0 0 596.13 152.25">
  <defs>
    <style>
      .cls-1, .cls-2 {
        fill: none;
      }

      .cls-3, .cls-4 {
        fill: #e8528d;
      }

      .cls-5 {
        fill: #8dc21f;
        stroke: #1eaa39;
      }

      .cls-5, .cls-6 {
        stroke-miterlimit: 10;
      }

      .cls-7, .cls-4, .cls-8, .cls-9, .cls-2, .cls-10, .cls-11, .cls-12 {
        stroke-linecap: round;
        stroke-linejoin: round;
      }

      .cls-7, .cls-2 {
        stroke: #eb7aa5;
      }

      .cls-7, .cls-13 {
        fill: #fae5ee;
      }

      .cls-14 {
        fill: #f7b63d;
      }

      .cls-15 {
        fill: #221613;
      }

      .cls-16 {
        fill: #6dc7ea;
      }

      .cls-16, .cls-17, .cls-18, .cls-19, .cls-20 {
        opacity: .8;
      }

      .cls-4 {
        stroke: #e40d7c;
      }

      .cls-21, .cls-8 {
        fill: #fff;
      }

      .cls-8 {
        stroke: #f6c6db;
      }

      .cls-22 {
        fill: #fbebf2;
      }

      .cls-9 {
        fill: #ccb6d7;
        stroke: #9f73af;
      }

      .cls-23 {
        fill: #533c3a;
      }

      .cls-17 {
        fill: #ffe33f;
      }

      .cls-24, .cls-6, .cls-10 {
        fill: #eb7aa6;
      }

      .cls-19 {
        fill: #0db3e3;
      }

      .cls-6 {
        stroke: #e8528d;
      }

      .cls-10 {
        stroke: #e96093;
      }

      .cls-11 {
        fill: #ed86b3;
        stroke: #e95f98;
      }

      .cls-25 {
        fill: #583661;
      }

      .cls-20 {
        fill: #f3b2c1;
      }

      .cls-12 {
        fill: #7cc9cf;
        stroke: #00aeaf;
      }

      .cls-26 {
        clip-path: url(#clippath);
      }
    </style>
    <clipPath id="clippath">
      <rect class="cls-1" x=".23" width="595.9" height="152.25"/>
    </clipPath>
  </defs>
  <g id="_レイヤー_1-2" data-name="レイヤー 1">
    <path class="cls-21" d="M578.49,70.41c-6.95-6.31-16.23-10.16-26.43-10.16-11.31,0-21.5,4.74-28.62,12.31-3.72-1.51-7.79-2.35-12.06-2.35-9.54,0-18.08,4.18-23.87,10.76-1.53-9.79-26.24-45.3-69.37-40.96.18-2.71-.09-5.39-.74-7.94-2.26-8.83-9.17-16.23-18.73-18.77-14.08-3.74-28.58,4.46-32.39,18.31-.04.15-.08.31-.12.46-1.14,4.46-1.02,8.95.13,13.11-3.77,3.26-6.64,7.61-8.05,12.73-.59,2.13-.88,4.27-.91,6.38-15.61-3.07-32.14,3.74-40.54,18.06-.56.95-1.06,1.91-1.52,2.89-4.77-5.28-11.1-9.31-18.56-11.29-20.36-5.41-41.32,6.44-46.82,26.47-.73,2.66-1.14,5.33-1.28,7.98-14.84-3.1-29.7-.03-41.66,7.57-5.67-16.86-19.56-30.69-38.29-35.67-10.5-2.79-21.11-2.42-30.79.51-2.1-9.08-9.1-16.74-18.87-19.34-2.35-.62-4.71-.91-7.02-.9,1.89-12.42-5.6-24.54-17.87-28.5-.45-.14-.9-.28-1.36-.4-5.17-1.38-10.4-1.13-15.14.4-8.15,2.65-14.84,9.14-17.25,17.91-.64,2.32-.93,4.65-.91,6.94-14.7-1.72-29.72,5.11-37.59,18.53-.14.23-.26.47-.39.71-.5-.31-1-.62-1.52-.91-6.29-3.57-13.18-5.17-19.95-5.01v82.02h596.13V59.37c-6.88,2.05-12.95,5.92-17.64,11.04Z"/>
    <g class="cls-26">
      <path class="cls-22" d="M623.62,117.58c1.26-5.45.12-15.63-4.01-22.92-5.65-10.36-42.28-15.85-50.56,11.4-3.23-24.41-32.08-32.22-53.52-20.32,15.44-1.19,30.1,13.65,28.71,29.09-2.03-8.28-9.9-14.76-18.43-15.16-8.52-.4-16.95,5.32-19.72,13.38.65-2.15-.07-7.36-2.8-9.22-3.47-2.36-9.38-.9-11,1.57,3.87-9.69-3.36-21.52-13.44-24.28-10.06-2.75-21.22,2.37-27.48,10.73-6.28,8.35-7.43,15.43-6.82,25.84,18.49-1.07,28.11,9.3,31.48,27.53-4.56-10.3-11.81-17.23-22.89-19.21-11.08-1.97-19.74-.79-29.94,4.11.72-9.33-7.34-16.33-16.16-19.48-8.63-3.1-18.92-1.28-24.17,6.16,10.87,1.4,24.27,9.34,26,17.03-44.05-19.31-57.23-7.98-60.39,6.44-3.71-1-9.83-1.76-13.96-1.76-15.84,0-29.37,7.96-34.83,19.21-7.28-4.67-16.48-7.47-26.5-7.47-11.46,0-21.86,3.66-29.52,9.61-.95-19.62-18.7-35.27-40.48-35.27-7.46,0-14.45,1.85-20.46,5.05-2.59,1.06-5.06,2.67-7.35,4.97.12-12.36,12.57-20.83,24.29-19.4-5.25-7.44-15.73-10.66-24.36-7.55-8.82,3.15-14.91,12.58-14.19,21.91-10.19-4.9-18.86-6.07-29.94-4.11-11.08,1.98-18.34,8.91-22.89,19.21,3.37-18.23,12.99-28.6,31.48-27.53.61-10.42-.54-17.5-6.82-25.84-6.26-8.36-17.42-13.48-27.48-10.73-10.08,2.76-17.31,14.59-13.44,24.28-1.62-2.47-7.53-3.93-11-1.57-2.72,1.85-3.44,7.07-2.8,9.22-2.77-8.06-11.2-13.78-19.72-13.38-8.53.4-16.4,6.88-18.43,15.16-1.39-15.45,13.27-30.28,28.71-29.09-21.44-11.89-50.29-4.09-53.52,20.32-8.29-27.26-44.91-21.76-50.56-11.4-4.14,7.28-5.27,17.46-4.01,22.92-20.44-5.59-23.39,12.5-20.36,20.05,7.62,19,66.15,33.61,99.3,14.54,7.38,16.97,38.92,26.58,57.4,25.86,30.94-1.17,53.22-22.33,53.22-22.33,0,0,7.87,7.61,11.76,9.59.26.13.55.28.84.43,2.01,18.69,19.3,33.29,40.34,33.29,10.67,0,20.38-3.76,27.62-9.91,2.34,17.25,20.42,30.67,42.38,30.67,19.51,0,35.94-10.59,41.02-25.05,5.85,3.06,12.82,4.85,20.31,4.85,5.55,0,10.81-.98,15.54-2.74,8.56,6.07,19.78,9.76,32.06,9.76,26.88,0,48.66-17.61,48.66-39.34,0-2.48-.3-4.89-.84-7.24,2.31-2.03,4.11-3.78,4.11-3.78,0,0,22.28,21.16,53.22,22.33,18.48.72,50.02-8.89,57.4-25.86,33.15,19.07,91.68,4.46,99.3-14.54,3.03-7.55.08-25.64-20.36-20.05Z"/>
    </g>
    <g>
      <path class="cls-17" d="M545.52,86.39s-.02,0,0,0c.17-.05.36-.04.53.05.7.35,1.86,1.38,1.86,1.38,0,0,1.52-.32,2.3-.29.2,0,.39.11.52.26.12.15.19.35.16.55-.1.77-.68,2.21-.68,2.21,0,0,.74,1.43.91,2.19.04.2,0,.4-.11.56-.11.16-.29.27-.49.3-.77.11-2.31-.08-2.31-.08,0,0-1.04,1.15-1.69,1.58-.17.11-.38.14-.57.09-.19-.05-.36-.17-.45-.35-.37-.69-.75-2.25-.75-2.25,0,0-1.38-.7-1.97-1.22-.15-.14-.24-.33-.24-.52,0-.2.07-.39.22-.53.57-.54,1.92-1.29,1.92-1.29,0,0,.2-1.54.5-2.26.08-.19.19-.31.37-.38Z"/>
      <path class="cls-19" d="M535.86,122.78s0,0,0,0c.09.09.15.21.15.34.02.54-.21,1.6-.21,1.6,0,0,.72.82.96,1.3.06.13.07.27.02.4-.05.13-.15.23-.28.29-.51.2-1.58.34-1.58.34,0,0-.62.94-1.03,1.3-.11.1-.25.14-.38.12-.14-.01-.26-.08-.35-.2-.33-.44-.74-1.44-.74-1.44,0,0-1.06-.24-1.54-.5-.13-.07-.21-.18-.25-.31-.03-.13-.02-.28.06-.4.29-.46,1.12-1.23,1.12-1.23,0,0-.04-1.08.08-1.62.03-.14.12-.26.24-.32.12-.07.26-.09.4-.05.52.16,1.44.73,1.44.73,0,0,1.01-.4,1.55-.47.14-.02.25,0,.36.09Z"/>
      <path class="cls-20" d="M497.21,127.29s0-.02,0,0c-.04.26-.18.5-.39.67-.91.71-3.01,1.61-3.01,1.61,0,0-.52,2.23-1.05,3.24-.14.27-.39.45-.66.53-.28.07-.58.03-.84-.13-.97-.62-2.52-2.3-2.52-2.3,0,0-2.37.09-3.49-.17-.29-.07-.54-.25-.68-.5-.14-.25-.18-.55-.09-.84.34-1.1,1.56-3.03,1.56-3.03,0,0-.88-2.11-1.04-3.25-.04-.3.05-.59.23-.82.18-.22.45-.37.76-.38,1.15-.06,3.47.41,3.47.41,0,0,1.81-1.4,2.86-1.86.28-.12.58-.11.85,0,.26.12.47.34.57.63.36,1.09.51,3.37.51,3.37,0,0,1.93,1.23,2.7,2.08.2.22.3.44.28.73Z"/>
      <path class="cls-16" d="M585.64,122.98s0-.02,0,0c.01.26-.07.53-.25.74-.74.87-2.61,2.18-2.61,2.18,0,0-.06,2.28-.38,3.38-.08.29-.29.52-.54.65-.26.13-.56.15-.84.04-1.07-.41-2.93-1.74-2.93-1.74,0,0-2.3.56-3.44.54-.3,0-.58-.14-.77-.35-.19-.22-.29-.51-.26-.8.11-1.14.91-3.28.91-3.28,0,0-1.29-1.88-1.67-2.96-.1-.28-.07-.59.06-.84.14-.25.37-.45.66-.53,1.11-.29,3.47-.3,3.47-.3,0,0,1.48-1.73,2.42-2.39.25-.17.55-.22.83-.16.28.06.53.24.68.5.57.99,1.18,3.19,1.18,3.19,0,0,2.13.82,3.06,1.48.24.18.38.37.42.66Z"/>
    </g>
    <g>
      <path class="cls-17" d="M61.9,136.03s-.01,0,0,0c.11.09.19.22.21.38.08.63-.07,1.88-.07,1.88,0,0,.92.87,1.25,1.41.09.14.11.31.07.46-.04.15-.15.29-.3.36-.57.29-1.8.56-1.8.56,0,0-.62,1.15-1.05,1.62-.11.12-.27.19-.43.19-.16,0-.32-.07-.43-.19-.43-.47-1.01-1.59-1.01-1.59,0,0-1.25-.17-1.84-.41-.15-.06-.27-.19-.33-.34-.05-.15-.05-.32.03-.47.29-.57,1.16-1.54,1.16-1.54,0,0-.17-1.25-.09-1.88.02-.17.11-.31.24-.4.13-.09.3-.13.46-.1.62.13,1.75.7,1.75.7,0,0,1.13-.57,1.75-.71.16-.04.29-.02.43.07Z"/>
      <path class="cls-19" d="M31.79,126.7s0-.02,0,0c0,.23-.1.45-.27.62-.71.69-2.42,1.67-2.42,1.67,0,0-.23,1.96-.59,2.89-.09.24-.29.43-.52.52-.23.09-.5.08-.73-.03-.89-.44-2.39-1.72-2.39-1.72,0,0-2.02.31-3.01.2-.26-.03-.49-.17-.64-.36-.15-.2-.21-.46-.16-.71.19-.97,1.04-2.76,1.04-2.76,0,0-.96-1.72-1.21-2.68-.07-.25-.02-.51.12-.72.14-.21.35-.36.61-.4.98-.17,3.02,0,3.02,0,0,0,1.41-1.38,2.27-1.87.23-.13.49-.15.73-.08.24.08.44.25.55.48.42.9.77,2.84.77,2.84,0,0,1.77.87,2.52,1.52.2.17.3.35.31.6Z"/>
      <path class="cls-20" d="M98.26,110.01s0-.02,0,0c.03.24-.02.5-.17.71-.62.88-2.25,2.27-2.25,2.27,0,0,.15,2.13-.05,3.19-.05.28-.22.51-.45.65-.23.14-.51.19-.79.11-1.04-.29-2.89-1.36-2.89-1.36,0,0-2.09.73-3.17.81-.28.02-.55-.08-.75-.26-.2-.18-.32-.45-.32-.73,0-1.08.56-3.14.56-3.14,0,0-1.37-1.64-1.83-2.62-.12-.26-.12-.54-.02-.79.1-.25.31-.45.57-.55,1.01-.37,3.21-.59,3.21-.59,0,0,1.23-1.75,2.05-2.45.22-.18.49-.26.76-.23.27.04.52.18.68.41.62.88,1.39,2.87,1.39,2.87,0,0,2.06.57,2.99,1.11.24.14.39.31.45.58Z"/>
    </g>
    <g>
      <g>
        <path class="cls-6" d="M548.71,63.94c1.8,7.49.89,14.49-7.59,17.83-3.99,1.57-5.05-4.66-6.85-12.15-1.8-7.49-.03-14.83,3.96-16.4s8.68,3.23,10.48,10.72Z"/>
        <path class="cls-6" d="M523.41,73.89c3.78,6.71,9.22,11.22,17.7,7.88,3.99-1.57.52-6.85-3.26-13.56s-10.08-10.88-14.07-9.31c-3.99,1.57-4.15,8.28-.37,14.99Z"/>
        <rect class="cls-5" x="540.66" y="80.22" width="5.56" height="14.9" transform="translate(5.61 204.96) rotate(-21.47)"/>
        <ellipse class="cls-6" cx="536.06" cy="68.91" rx="9.11" ry="14.08" transform="translate(11.97 200.96) rotate(-21.47)"/>
        <path class="cls-5" d="M553.92,86.3c-2.05,2.68-5.72,3.31-6.85,2.44s-1.47-4.57.58-7.25c2.05-2.68,5.76-3.28,6.85-2.44,1.09.84,1.47,4.57-.58,7.25Z"/>
        <path class="cls-5" d="M534.82,93.81c3.32.56,6.44-1.47,6.68-2.88s-2.04-4.35-5.36-4.91c-3.32-.56-6.45,1.52-6.68,2.88-.23,1.36,2.04,4.35,5.36,4.91Z"/>
      </g>
      <g>
        <g>
          <ellipse class="cls-21" cx="531.67" cy="67.84" rx="2.81" ry="3.36" transform="translate(12.06 199.28) rotate(-21.47)"/>
          <ellipse class="cls-23" cx="531.67" cy="67.84" rx="2.09" ry="2.5" transform="translate(12.06 199.28) rotate(-21.47)"/>
          <circle class="cls-21" cx="530.83" cy="67.36" r="1.08"/>
          <ellipse class="cls-21" cx="538.64" cy="65.1" rx="2.81" ry="3.36" transform="translate(13.54 201.63) rotate(-21.47)"/>
          <ellipse class="cls-23" cx="538.64" cy="65.1" rx="2.09" ry="2.5" transform="translate(13.54 201.63) rotate(-21.47)"/>
          <circle class="cls-21" cx="537.8" cy="64.62" r="1.08"/>
        </g>
        <path class="cls-1" d="M535.92,68.93s.33-.38.22-.64c-.06-.16-.19-.18-.29-.14-.09.04-.17.14-.15.25-.07-.1-.19-.11-.28-.08-.1.04-.17.15-.11.31.11.26.61.3.61.3Z"/>
      </g>
    </g>
    <g>
      <g>
        <g>
          <circle class="cls-7" cx="580.55" cy="72.54" r="13.55" transform="translate(46.08 310.54) rotate(-31.13)"/>
          <g>
            <path class="cls-24" d="M580.53,72.6s-2.52-7.83,4-12.81c-3.53-1.1-7.18-.67-10.23.93-1.09,8.13,6.23,11.89,6.23,11.89Z"/>
            <path class="cls-24" d="M580.53,72.6s7.83-2.52,12.81,4c1.1-3.53.67-7.18-.93-10.23-8.13-1.09-11.89,6.23-11.89,6.23Z"/>
            <path class="cls-13" d="M580.61,72.56s3.75-7.33,11.89-6.23c-1.54-2.95-4.18-5.33-7.58-6.48-.1-.04-.21-.07-.31-.1-6.52,4.98-4,12.81-4,12.81Z"/>
            <path class="cls-13" d="M580.53,72.6s-7.33-3.75-6.23-11.89c-2.95,1.54-5.33,4.18-6.48,7.58-.04.1-.07.21-.1.31,4.98,6.52,12.81,4,12.81,4Z"/>
            <path class="cls-24" d="M580.53,72.6s-7.83,2.52-12.81-4c-1.1,3.53-.67,7.18.93,10.23,8.13,1.09,11.89-6.23,11.89-6.23Z"/>
            <path class="cls-13" d="M593.35,76.59c-4.98-6.52-12.81-4-12.81-4,0,0,7.33,3.75,6.23,11.89,2.95-1.54,5.33-4.18,6.48-7.58.04-.1.07-.21.1-.31Z"/>
            <path class="cls-24" d="M580.53,72.6s2.52,7.83-4,12.81c3.53,1.1,7.18.67,10.23-.93,1.09-8.13-6.23-11.89-6.23-11.89Z"/>
            <path class="cls-13" d="M580.61,72.56s-3.75,7.33-11.89,6.23c1.54,2.95,4.18,5.33,7.58,6.48.1.04.21.07.31.1,6.52-4.98,4-12.81,4-12.81Z"/>
          </g>
        </g>
        <g>
          <g>
            <ellipse class="cls-21" cx="578.22" cy="68.36" rx="3.36" ry="2.81" transform="translate(327.81 594.01) rotate(-71.27)"/>
            <ellipse class="cls-23" cx="578.22" cy="68.36" rx="2.5" ry="2.09" transform="translate(327.81 594.01) rotate(-71.27)"/>
            <circle class="cls-21" cx="577.89" cy="67.45" r="1.08"/>
            <ellipse class="cls-21" cx="585.31" cy="70.76" rx="3.36" ry="2.81" transform="translate(330.35 602.35) rotate(-71.27)"/>
            <ellipse class="cls-23" cx="585.31" cy="70.76" rx="2.5" ry="2.09" transform="translate(330.35 602.35) rotate(-71.27)"/>
            <circle class="cls-21" cx="584.98" cy="69.85" r="1.08"/>
          </g>
          <path class="cls-1" d="M580.76,71.94s.5-.08.58-.34c.05-.16-.03-.26-.13-.3-.1-.03-.22,0-.28.1,0-.12-.07-.21-.17-.24-.1-.03-.23,0-.28.17-.08.26.27.62.27.62Z"/>
        </g>
      </g>
      <circle class="cls-2" cx="580.55" cy="72.54" r="13.55" transform="translate(46.08 310.54) rotate(-31.13)"/>
      <rect class="cls-7" x="572.06" y="83.75" width="4.54" height="14.31" transform="translate(59.61 -179.61) rotate(18.73)"/>
      <path class="cls-10" d="M576.89,87.22s-.44,4.14-.16,4.4c.27.25,4.04.62,4.35-.02s-1.4-4.33-1.94-4.98-2.25.6-2.25.6Z"/>
      <path class="cls-10" d="M579.9,84.37s2.97-.03,3.59.6c.62.62-.26,2.62-.89,3.45-.63.83-1.78,1.83-2.4,1.52s-2.36-2.89-2.36-2.89"/>
      <path class="cls-10" d="M574.53,86.42s-2.17,3.55-2.54,3.59-3.59-1.97-3.44-2.66,3.75-2.59,4.57-2.78c.82-.19,1.42,1.85,1.42,1.85Z"/>
      <path class="cls-10" d="M573.88,82.32s-2.34-1.83-3.21-1.71c-.87.12-1.39,2.24-1.39,3.28,0,1.04.3,2.54.98,2.66.68.13,3.63-.86,3.63-.86"/>
      <path class="cls-4" d="M575.32,87.98c3.48-.11,4.74-1.61,4.61-2.84-.12-1.11-2.07-1.83-3.45-.58-.34-1.83-2.32-2.45-3.09-1.64-.85.89-.76,2.85,1.93,5.06Z"/>
    </g>
    <path class="cls-22" d="M375.52,107.89s-2.05-8.79-16.05-8.57c-14.16.23-19,12.92-19,12.92,0,0-5.69-9.55-23.18-8.48-20.19,1.23-23.5,18.76-23.5,18.76,0,0-23.58-6.49-29.06,9.75,0,0,15.07-13.9,34.94-2.11,0,0,1.36-16.57,21.84-17.87,15.15-.96,23.95,13.14,23.95,13.14,0,0,1.33-8.18,6.87-13.3,10.11-9.34,23.19-4.24,23.19-4.24Z"/>
    <g class="cls-18">
      <path class="cls-17" d="M343.06,100.89s.01,0,0,0c-.16.08-.35.11-.53.06-.76-.21-2.11-1-2.11-1,0,0-1.44.62-2.22.75-.2.03-.41-.03-.56-.15-.15-.12-.26-.31-.27-.51-.06-.79.23-2.33.23-2.33,0,0-1.02-1.27-1.34-1.99-.08-.19-.08-.4,0-.58.08-.18.23-.33.43-.4.74-.26,2.31-.38,2.31-.38,0,0,.8-1.35,1.36-1.9.15-.15.35-.22.54-.21.2.01.39.1.52.26.5.61,1.19,2.08,1.19,2.08,0,0,1.51.42,2.19.82.18.1.3.28.34.47.04.19,0,.4-.11.57-.45.65-1.65,1.66-1.65,1.66,0,0,.11,1.56-.04,2.34-.04.2-.12.35-.29.45Z"/>
    </g>
    <g>
      <g>
        <path class="cls-8" d="M361.21,108.4c10.16-4.36,14.86-16.13,10.5-26.28-4.36-10.16-16.13-14.86-26.28-10.5-10.16,4.36-14.86,16.13-10.5,26.28,4.36,10.16,16.13,14.86,26.28,10.5ZM350.05,82.37c4.22-1.81,9.1.14,10.91,4.36,1.81,4.22-.14,9.1-4.36,10.91-4.22,1.81-9.1-.14-10.91-4.36-1.81-4.22.14-9.1,4.36-10.91Z"/>
        <path class="cls-9" d="M337.73,100.4c1.9-.94-.21-3.28,1.85-4.5,2.05-1.22,1.95,4.46,4.17,3.23,2.23-1.23-.12-4.77.86-6.02.27-.34.54-.51.8-.58-1.29-4.03.67-8.46,4.64-10.16,4.22-1.81,9.1.14,10.91,4.36.31.72.5,1.45.6,2.19.47.52,1.08.85,1.85.47,1.9-.94-.21-3.28,1.85-4.5,2.05-1.22,1.95,4.46,4.17,3.23,2.23-1.23-.12-4.77.86-6.02.39-.5.8-.64,1.14-.63-4.57-9.72-16.05-14.13-25.99-9.87-10.16,4.36-14.86,16.13-10.5,26.28.33.76.7,1.49,1.11,2.2.45.42,1.01.65,1.69.31Z"/>
        <rect class="cls-14" x="365.44" y="98.4" width="4.85" height="2.02" rx="1.01" ry="1.01" transform="translate(549.85 434.21) rotate(-133.65)"/>
        <rect class="cls-14" x="359.6" y="96.54" width="4.85" height="2.02" rx="1.01" ry="1.01" transform="translate(127.85 390.35) rotate(-66.43)"/>
        <rect class="cls-25" x="351.98" y="100.87" width="4.85" height="2.02" rx="1.01" ry="1.01" transform="translate(75.9 -139.81) rotate(24.91)"/>
        <rect class="cls-14" x="346.61" y="104.6" width="4.85" height="2.02" rx="1.01" ry="1.01" transform="translate(245.14 455.15) rotate(-90.28)"/>
        <rect class="cls-25" x="339.49" y="101.02" width="4.85" height="2.02" rx="1.01" ry="1.01" transform="translate(108.11 -167.52) rotate(32.45)"/>
        <rect class="cls-3" x="345.02" y="98.78" width="4.85" height="2.02" rx="1.01" ry="1.01" transform="translate(630.02 -125.67) rotate(125.39)"/>
        <rect class="cls-3" x="362.48" y="90.25" width="4.85" height="2.02" rx="1.01" ry="1.01" transform="translate(258.75 452.11) rotate(-87.65)"/>
        <rect class="cls-25" x="367.58" y="91.03" width="4.85" height="2.02" rx="1.01" ry="1.01" transform="translate(450.32 464.76) rotate(-116.13)"/>
        <rect class="cls-3" x="357.6" y="104.71" width="4.85" height="2.02" rx="1.01" ry="1.01" transform="translate(652.42 -129.43) rotate(124.83)"/>
      </g>
      <g>
        <g>
          <ellipse class="cls-21" cx="344.56" cy="78.57" rx="2.81" ry="3.36" transform="translate(-3.07 142.19) rotate(-23.22)"/>
          <ellipse class="cls-23" cx="344.56" cy="78.57" rx="2.09" ry="2.5" transform="translate(-3.07 142.19) rotate(-23.22)"/>
          <circle class="cls-21" cx="343.71" cy="78.11" r="1.08"/>
          <ellipse class="cls-21" cx="351.44" cy="75.62" rx="2.81" ry="3.36" transform="translate(-1.35 144.66) rotate(-23.22)"/>
          <ellipse class="cls-23" cx="351.44" cy="75.62" rx="2.09" ry="2.5" transform="translate(-1.35 144.66) rotate(-23.22)"/>
          <circle class="cls-21" cx="350.59" cy="75.16" r="1.08"/>
        </g>
        <path class="cls-1" d="M348.84,79.53s.32-.39.2-.65c-.07-.15-.2-.18-.3-.13-.09.04-.16.14-.14.26-.07-.09-.19-.11-.29-.07-.1.05-.17.16-.1.31.11.25.62.28.62.28Z"/>
      </g>
    </g>
    <g>
      <g>
        <path class="cls-12" d="M457.47,67.82s-5.92-10.08-6.18-16.08-1.06-18.19-8.98-17.48-2.54,13.23-.2,14.71c0,0-3.35-3.71-5.21-2.41-1.86,1.3-1.41,7.92,6.93,11.67,0,0-2.65,1.44-1,5.26,1.65,3.82,14.65,4.32,14.65,4.32Z"/>
        <path class="cls-8" d="M463.58,78.97s8.06,6.55,13.15,8.53c4.91,1.91,2.79,10.92-6.22,9.53-4.22-.65-11.99-10.26-11.99-10.26"/>
        <path class="cls-8" d="M441.66,99.19s5.34,4.88,4.66,6.81c-.68,1.93-6.26,5.23-10.31,1.93-1.51-1.23-3.77-5-3.99-6.25"/>
        <path class="cls-8" d="M490.85,79.27c-10.69,7-25.65-3.94-25.65-3.94,0,0-.58,15.6-20.4,24.54-19.82,8.94-27.98-1.17-29.73-6.22-1.02-2.95-1.96-8.7,3.65-14.23,3.98-3.93,11.62-7.77,30.18-9.44,8.7-.78-1.38-28.46,25.24-24.44,24.2,3.65,29.4,25.43,16.71,33.73Z"/>
        <path class="cls-9" d="M417.68,86.09s-3.92-6.61-9.86-6.83c-5.94-.22-5.26-3.14-5.71-7.17-.45-4.03-7.17-10.86-17.58-6.5,7.07,8.33-1.35,17.58,7.62,21.5,7.36,3.22,18.87-2.72,25.54-1.01Z"/>
        <path class="cls-9" d="M465.03,45.54s-6.97-4.32-11.83-.4-2.93,9.92-3.99,15.57c-1.38,7.34-7.75-1.24-15.18,2.2-7.43,3.44-9.44,10.27-15.67,4.91-2.89,2.42,1.02,20.19,19.95,7.51,6.83-4.57,15.68-.33,19.14-9.07,2.55-6.43.77-20.72,7.57-20.72Z"/>
        <path class="cls-7" d="M461.44,46.79s-6.83-2.48-8.59,2.92c-1.76,5.41-.2,13.73-4.09,15.57s-10.11-2.21-12.77.81c-2.66,3.03-3.52,7.13-6.48,7.78-4.9,1.08-11.68-4.01-11.14-6.07,0,0,.58,10.59,10.99,8.89,10.4-1.7,7.21-8.19,16.71-7.48,9.5.71,9.02-12.78,8.69-14.79-.86-5.25,2.44-6.96,6.68-7.64Z"/>
        <path class="cls-9" d="M461.44,46.79s4.36,1.19,11.79,11.73c5.46,7.75,15.98,6.24,20.65,2.95,7.19-5.06,7.18-10.93,7.18-10.93,0,0-6.44,6.09-10.36-2.09-3.92-8.18-19.06-16.16-29.26-1.66Z"/>
        <path class="cls-7" d="M461.44,46.79c15.31-3.3,12.8,3,20.79,8.62,11.13,7.82,18.83-4.86,18.83-4.86,0,0-8.37,6.27-15.89-3.7-9.08-12.04-23.73-.05-23.73-.05Z"/>
        <path class="cls-8" d="M491.23,33.2c.92-.89,2.42.06,2,1.28-2.12,6.19-5.82,16.3-6.48,17.13-1.53,1.92-8.77-2.16-7.43-4.93.83-1.73,7.4-9.12,11.91-13.47Z"/>
        <path class="cls-8" d="M458.89,68.53s.65,2.47,6.3,6.8"/>
        <path class="cls-8" d="M456.8,83.77s6.89,12.24,11.55,14.74c4.66,2.5-1.1,9.71-7.38,8.86-10.88-1.48-12.28-16.07-12.28-16.07"/>
        <path class="cls-8" d="M428.61,100.1s4.27,11.42,5.43,13.17c1.95,2.94-3.84,7.72-10.65,4.66-6.81-3.07-8.09-18.79-6.48-26.28"/>
        <path class="cls-12" d="M449.27,73.01s-9.75-5.97-12.25-11.44c-2.5-5.47-7.8-16.47-14.88-12.84-7.08,3.63,2.61,13.22,5.33,13.72,0,0-4.5-2.18-5.74-.28s1.66,7.87,10.8,8.22c0,0-2.47,3.03,1.05,5.25,5.75,3.62,15.69-2.64,15.69-2.64Z"/>
        <path class="cls-7" d="M417.68,86.09s-6.49-3.57-12.67-1.65c-6.18,1.92-11.63-.3-12.09-4.9-.44-4.32-1.25-12.46-8.39-13.95,0,0,9.73-.79,12.89,3.77,4.13,5.96.2,9.82,5.17,11.07,4.55,1.14,8.06-1.33,15.1,5.65Z"/>
        <g>
          <path class="cls-24" d="M471.89,72.52c-2.65-.33-4.52-2.81-4.18-5.55.03-.25.08-.48.15-.71.36.51.83.97,1.39,1.35.09,1.47,1.13,2.76,2.64,3.1,1.82.41,3.64-.74,4.05-2.56.03-.13.05-.27.06-.4.51-.36.93-.82,1.22-1.35.13.57.17,1.16.09,1.78-.34,2.73-2.77,4.68-5.42,4.35Z"/>
          <path class="cls-15" d="M470.86,69.37c-.23-.05-.38-.28-.33-.51.05-.23.28-.38.51-.33.23.05.38.28.33.51s-.28.38-.51.33Z"/>
          <path class="cls-23" d="M477.8,68.99s1.19-4.96-3.37-6.97c-.04-.02-4.13-1.66-6.84,1.88,0,0-.12.15-.26.4-.3-.12-.77-.32-1.33-.65-.25-.14-.52-.31-.8-.5-.03-.02-.06-.01-.08.01-.02.02-.02.06,0,.08,0,0,.34.31.82.66.35.26.78.54,1.2.75-.18.36-.36.83-.48,1.39-.22,0-.59-.04-1.15-.22-.12-.04-.24-.07-.37-.12-.03,0-.06,0-.07.03-.01.03,0,.06.02.08.02,0,.16.1.38.21.26.13.61.28.97.34.05,0,.11.01.16.02-.14.91-.08,2.02.46,3.24,0,.02.02.03.04.03,0,0,0,0,0,0h.1s.04,0,.05-.01c0,0,0-.01,0-.02,0-.01.01-.02,0-.03,0-.03-.48-1.92.31-3.79.08.15.18.3.28.44.36.51.83.97,1.39,1.35.09,1.47,1.13,2.76,2.64,3.1,1.82.41,3.64-.74,4.05-2.56.03-.13.05-.27.06-.4.51-.36.93-.82,1.22-1.35.05-.08.08-.17.12-.26.27.74.44,1.68.35,2.84,0,.02,0,.03.02.04,0,0,.02.02.03.02t0,0s.06-.01.07-.04ZM475.91,66.08c-.02.08-.05.16-.08.23-.32.86-1.22,1.37-2.13,1.17-1-.22-1.62-1.21-1.4-2.21.12-.53.46-.95.9-1.2.38-.22.84-.3,1.31-.2,1,.22,1.62,1.21,1.4,2.21Z"/>
          <path class="cls-21" d="M467.58,65.81c.08.15.18.3.28.44-.06.23-.12.47-.15.71-.34,2.73,1.53,5.22,4.18,5.55,2.65.33,5.07-1.62,5.42-4.35.08-.61.04-1.21-.09-1.78.05-.08.08-.17.12-.26.27.74.44,1.68.35,2.84,0,.02,0,.03.02.04-.36,1.8-1.67,3.11-3.44,3.45-2.17.42-4.21.05-5.65-1.13-.02-.01-.03-.03-.05-.04-.02-.01-.03-.03-.05-.04-.04-.03-.08-.06-.12-.1-.01-.01-.03-.03-.04-.04-.01-.01-.03-.03-.04-.04-.07-.06-.13-.13-.19-.2-.01-.01-.03-.03-.04-.04-.01-.02-.03-.03-.04-.04-.04-.04-.07-.09-.11-.13-.01-.01-.02-.03-.04-.05-.01-.01-.02-.03-.04-.05-.23-.28-.43-.59-.6-.94,0-.01.01-.02,0-.03,0-.03-.48-1.92.31-3.79Z"/>
          <path class="cls-23" d="M467.93,70.66s.07.09.11.13c.01.02.03.03.04.04.01.02.03.03.04.04-.25.12-1.02.43-1.06.45-.01,0-.02,0-.03,0-.02,0-.03-.01-.04-.03-.01-.03,0-.06.02-.08l.85-.66s.02.03.04.05c.01.02.02.03.04.05Z"/>
          <path class="cls-23" d="M468.4,71.16s.08.06.12.1c.02.01.03.03.05.04.02.01.03.03.05.04-.29.2-.87.54-.9.56-.01,0-.03,0-.04,0-.01,0-.03,0-.03-.02-.02-.02-.02-.05,0-.08l.68-.72s.03.03.04.04c.01.01.03.03.04.04"/>
        </g>
        <path class="cls-11" d="M428.16,94.39c-6.08-.37-8.56-3.46-8.57-5.92,0-2.24,2.03-3.97,5.26-2.7,1.55-3.11,4.23-3.18,5.72-1.51,1.65,1.84,1.86,5.79-2.41,10.13Z"/>
        <path class="cls-11" d="M438.75,95.43c-3.02-1.11-3.8-3.04-3.43-4.29.34-1.13,1.62-1.7,3.07-.57,1.25-1.33,2.61-.97,3.12.1.55,1.18.07,3.21-2.75,4.75Z"/>
        <path class="cls-11" d="M442.49,83.77c-2.37-.67-3.08-2.08-2.87-3.04.19-.87,1.15-1.37,2.31-.6.88-1.07,1.95-.87,2.39-.1.49.86.23,2.41-1.84,3.74Z"/>
        <path class="cls-11" d="M486.87,81.05s-2.26.36-3.34-1.67"/>
        <path class="cls-11" d="M491.83,74.24c1.14-.46,1.49-1.2,1.39-1.67-.09-.42-.54-.62-1.11-.18-.42-.49-.93-.33-1.14.08-.24.45-.12,1.22.86,1.77Z"/>
        <g>
          <path class="cls-12" d="M482.23,42.83c.83-.98,1.78-2.06,2.78-3.16.17,1.5.93,4.24,3.94,6.7-.7,1.84-1.31,3.39-1.73,4.32-3.52-2.81-4.65-6.34-4.99-7.86Z"/>
          <path class="cls-12" d="M487.51,36.97c.71-.75,1.41-1.48,2.1-2.17.36,1.1,1.03,2.41,2.21,3.72-.4,1.11-.81,2.26-1.22,3.39-1.88-1.73-2.73-3.54-3.1-4.93Z"/>
        </g>
        <path class="cls-8" d="M465.19,50.35s-3.77-12.89-9.28-9.75c-5.83,3.32,4.62,14.99,4.62,14.99"/>
        <path class="cls-21" d="M470.16,65.84c.21,1.25,1,2.29,2.07,2.88-1.08.58-1.86,1.63-2.07,2.88-.21-1.25-1-2.29-2.07-2.88,1.08-.58,1.86-1.63,2.07-2.88Z"/>
        <path class="cls-21" d="M476.67,66.25c-.03.12-.07.22-.11.33-.45,1.22-1.73,1.96-3.04,1.66-1.42-.32-2.31-1.73-1.99-3.15.17-.76.66-1.36,1.28-1.71.55-.31,1.2-.43,1.86-.28,1.42.32,2.31,1.73,1.99,3.15Z"/>
      </g>
      <g>
        <path class="cls-12" d="M470.51,97.03c-.42-.06-.88-.22-1.36-.45,1.56-.44,4.49-1.5,6.23-3.68,1.76-2.21,2.01-4.15,2-5.07,4.03,2.43,1.71,10.53-6.87,9.2Z"/>
        <path class="cls-12" d="M468.08,98.35c.09.05.18.11.27.16,4.66,2.5-1.1,9.71-7.38,8.86-1.17-.16-2.23-.48-3.19-.91,2.87-.74,6.32-1.88,7.79-3.35,2.05-2.05,2.44-3.94,2.51-4.76Z"/>
        <path class="cls-12" d="M446.32,106c-.67,1.9-6.09,5.11-10.12,2.07,1.29-.05,3.66-.32,5.87-1.48,1.99-1.05,3.06-2.14,3.59-2.83.54.87.86,1.68.66,2.24Z"/>
        <path class="cls-12" d="M423.38,117.93c-1.17-.53-2.18-1.44-3.04-2.61,2.54.57,6.97,1.35,9.36.57,2.29-.75,3.41-2.36,3.92-3.38.16.33.31.6.42.77,1.95,2.94-3.84,7.72-10.65,4.66Z"/>
      </g>
    </g>
  </g>
</svg>