<?xml version="1.0" encoding="UTF-8"?>
<svg id="_レイヤー_2" data-name="レイヤー 2" xmlns="http://www.w3.org/2000/svg" viewBox="0 0 696.27 1000.45">
  <defs>
    <style>
      .cls-1 {
        fill: none;
      }

      .cls-2 {
        fill: #4bbddf;
      }

      .cls-3 {
        fill: #6dc7ea;
      }

      .cls-3, .cls-4, .cls-5, .cls-6 {
        opacity: .8;
      }

      .cls-7 {
        fill: #fff;
      }

      .cls-8 {
        fill: #f9d900;
      }

      .cls-4 {
        fill: #ffe33f;
      }

      .cls-5 {
        fill: #0db3e3;
      }

      .cls-9 {
        fill: #f2a9ba;
      }

      .cls-6 {
        fill: #f3b2c1;
      }
    </style>
  </defs>
  <g id="_レイヤー_1-2" data-name="レイヤー 1">
    <g>
      <path class="cls-8" d="M633.57,522.62c.06-.04-.06.03,0,0,.68-.36,1.48-.46,2.25-.25,3.21.89,8.94,4.22,8.94,4.22,0,0,6.08-2.64,9.37-3.15.86-.14,1.72.12,2.37.63.65.52,1.08,1.3,1.15,2.18.23,3.32-.99,9.83-.99,9.83,0,0,4.29,5.36,5.64,8.4.36.79.34,1.69.01,2.46-.34.76-.98,1.39-1.8,1.67-3.15,1.09-9.75,1.61-9.75,1.61,0,0-3.38,5.69-5.75,8.04-.62.61-1.46.91-2.3.88-.83-.05-1.64-.42-2.2-1.1-2.13-2.56-5.05-8.78-5.05-8.78,0,0-6.38-1.78-9.26-3.45-.76-.44-1.26-1.18-1.45-1.99-.17-.82-.02-1.7.48-2.41,1.91-2.73,6.96-7.01,6.96-7.01,0,0-.46-6.61.16-9.88.16-.86.51-1.46,1.21-1.91"/>
      <path class="cls-8" d="M435.4,673.58s-.04.02,0,0c.42-.22.91-.28,1.38-.15,1.97.55,5.49,2.59,5.49,2.59,0,0,3.73-1.62,5.76-1.94.53-.08,1.05.07,1.46.39.4.32.67.8.7,1.34.14,2.04-.61,6.04-.61,6.04,0,0,2.64,3.29,3.47,5.17.22.49.21,1.04,0,1.51-.21.47-.6.85-1.11,1.03-1.93.67-5.99.99-5.99.99,0,0-2.08,3.5-3.54,4.94-.38.38-.9.56-1.41.54-.51-.03-1.01-.26-1.35-.67-1.31-1.57-3.1-5.39-3.1-5.39,0,0-3.92-1.09-5.69-2.12-.47-.27-.78-.72-.89-1.22-.1-.5-.01-1.04.3-1.48,1.17-1.68,4.28-4.31,4.28-4.31,0,0-.28-4.06.1-6.07.1-.53.31-.9.75-1.17"/>
      <path class="cls-8" d="M584.69.14s-.03.01,0,0c.27-.14.59-.19.9-.1,1.29.36,3.59,1.7,3.59,1.7,0,0,2.44-1.06,3.77-1.27.35-.05.69.05.95.25.26.21.43.52.46.88.09,1.34-.4,3.95-.4,3.95,0,0,1.72,2.15,2.27,3.38.14.32.14.68,0,.99-.14.31-.39.56-.72.67-1.26.44-3.92.65-3.92.65,0,0-1.36,2.29-2.31,3.23-.25.25-.59.37-.92.35-.33-.02-.66-.17-.89-.44-.86-1.03-2.03-3.53-2.03-3.53,0,0-2.57-.71-3.72-1.39-.3-.18-.51-.47-.58-.8-.07-.33,0-.68.19-.97.77-1.1,2.8-2.82,2.8-2.82,0,0-.19-2.66.06-3.97.06-.34.21-.59.49-.77"/>
      <path class="cls-8" d="M357.31,231.74s-.04.02,0,0c.42-.22.91-.28,1.38-.15,1.97.55,5.49,2.59,5.49,2.59,0,0,3.73-1.62,5.76-1.94.53-.08,1.05.07,1.46.39.4.32.67.8.7,1.34.14,2.04-.61,6.04-.61,6.04,0,0,2.64,3.29,3.47,5.17.22.49.21,1.04,0,1.51-.21.47-.6.85-1.11,1.03-1.93.67-5.99.99-5.99.99,0,0-2.08,3.5-3.54,4.94-.38.38-.9.56-1.41.54-.51-.03-1.01-.26-1.35-.67-1.31-1.57-3.1-5.39-3.1-5.39,0,0-3.92-1.09-5.69-2.12-.47-.27-.78-.72-.89-1.22-.1-.5-.01-1.04.3-1.48,1.17-1.68,4.28-4.31,4.28-4.31,0,0-.28-4.06.1-6.07.1-.53.31-.9.75-1.17"/>
      <path class="cls-9" d="M611.63,571.99s0,.03,0,0c-.05-.37.03-.75.25-1.07.93-1.33,3.38-3.41,3.38-3.41,0,0-.22-3.22.08-4.81.08-.42.33-.77.68-.99.35-.21.77-.29,1.18-.17,1.56.43,4.35,2.05,4.35,2.05,0,0,3.15-1.1,4.77-1.22.42-.03.83.12,1.13.39.29.28.48.67.47,1.1,0,1.62-.84,4.73-.84,4.73,0,0,2.06,2.48,2.75,3.94.18.39.18.82.03,1.19-.16.37-.46.68-.86.83-1.52.56-4.84.89-4.84.89,0,0-1.85,2.64-3.09,3.69-.32.27-.74.39-1.15.34-.4-.05-.78-.27-1.03-.61-.94-1.32-2.09-4.33-2.09-4.33,0,0-3.11-.86-4.5-1.68-.37-.21-.59-.47-.68-.87"/>
      <path class="cls-9" d="M600.16,26.8c-.01-.06,0,.06,0,0-.1-.69.05-1.42.48-2.03,1.75-2.51,6.4-6.45,6.4-6.45,0,0-.43-6.08.14-9.09.15-.79.63-1.45,1.27-1.86.65-.4,1.46-.54,2.24-.32,2.95.81,8.22,3.87,8.22,3.87,0,0,5.97-2.08,9.02-2.31.8-.06,1.57.23,2.14.74.56.53.9,1.27.9,2.08-.02,3.06-1.59,8.95-1.59,8.95,0,0,3.9,4.68,5.2,7.46.34.73.34,1.55.05,2.26-.3.71-.87,1.29-1.63,1.57-2.87,1.07-9.16,1.69-9.16,1.69,0,0-3.49,4.99-5.83,6.97-.61.52-1.4.73-2.17.64-.76-.1-1.47-.51-1.94-1.16-1.78-2.49-3.95-8.19-3.95-8.19,0,0-5.87-1.63-8.52-3.17-.7-.41-1.12-.89-1.28-1.64"/>
      <path class="cls-9" d="M145.8,343.4c-.02-.07.01.07,0,0-.11-.75.06-1.55.52-2.2,1.91-2.73,6.96-7.02,6.96-7.02,0,0-.46-6.61.16-9.88.16-.86.68-1.58,1.38-2.03.71-.44,1.59-.59,2.44-.35,3.21.88,8.94,4.21,8.94,4.21,0,0,6.49-2.26,9.81-2.52.87-.07,1.71.25,2.32.81.6.57.98,1.38.98,2.26-.02,3.33-1.72,9.73-1.72,9.73,0,0,4.24,5.09,5.65,8.11.37.79.37,1.69.06,2.46-.32.77-.95,1.41-1.77,1.71-3.12,1.16-9.96,1.84-9.96,1.84,0,0-3.8,5.42-6.34,7.58-.66.57-1.53.8-2.36.7-.82-.11-1.6-.55-2.11-1.26-1.93-2.71-4.29-8.9-4.29-8.9,0,0-6.38-1.77-9.26-3.44-.76-.44-1.21-.97-1.4-1.78"/>
      <path class="cls-9" d="M608.37,868.18c-.01-.05,0,.05,0,0-.08-.57.05-1.18.39-1.68,1.45-2.08,5.3-5.34,5.3-5.34,0,0-.35-5.03.12-7.53.12-.65.52-1.2,1.05-1.54.54-.33,1.21-.45,1.86-.27,2.44.67,6.81,3.21,6.81,3.21,0,0,4.94-1.72,7.47-1.92.66-.05,1.3.19,1.77.62.46.44.75,1.05.74,1.72-.01,2.54-1.31,7.41-1.31,7.41,0,0,3.23,3.88,4.31,6.17.28.6.28,1.28.05,1.87-.25.59-.72,1.07-1.35,1.3-2.38.88-7.58,1.4-7.58,1.4,0,0-2.89,4.13-4.83,5.77-.5.43-1.16.61-1.79.53-.63-.09-1.22-.42-1.61-.96-1.47-2.06-3.27-6.78-3.27-6.78,0,0-4.86-1.35-7.05-2.62-.58-.34-.92-.74-1.06-1.36"/>
      <path class="cls-2" d="M536.6,39.48s.03.03,0,0c-.31-.31-.5-.73-.51-1.19-.05-1.91.81-5.61.81-5.61,0,0-2.47-2.89-3.3-4.61-.22-.45-.22-.96-.05-1.41.18-.44.53-.81,1-.99,1.78-.69,5.56-1.11,5.56-1.11,0,0,2.22-3.25,3.67-4.51.38-.33.87-.47,1.35-.42.48.06.92.3,1.22.71,1.13,1.54,2.53,5.08,2.53,5.08,0,0,3.69.9,5.38,1.81.44.24.74.65.87,1.11.11.47.04.97-.23,1.39-1.05,1.6-3.97,4.25-3.97,4.25,0,0,.1,3.8-.34,5.66-.11.49-.43.89-.85,1.13-.42.23-.93.3-1.4.14-1.82-.59-5.02-2.64-5.02-2.64,0,0-3.55,1.36-5.45,1.57-.5.05-.89-.04-1.25-.35"/>
      <path class="cls-2" d="M657.8,862.71c-.06-.06.06.06,0,0-.64-.64-1.04-1.52-1.07-2.47-.11-3.96,1.69-11.64,1.69-11.64,0,0-5.12-5.99-6.85-9.56-.45-.93-.46-2-.11-2.92.37-.92,1.1-1.68,2.08-2.06,3.69-1.42,11.53-2.3,11.53-2.3,0,0,4.61-6.75,7.6-9.35.79-.68,1.8-.97,2.79-.87.98.12,1.91.63,2.53,1.46,2.34,3.2,5.24,10.53,5.24,10.53,0,0,7.65,1.87,11.14,3.75.91.49,1.54,1.35,1.8,2.31.23.96.09,2.01-.48,2.88-2.17,3.32-8.23,8.8-8.23,8.8,0,0,.2,7.88-.7,11.74-.23,1.01-.89,1.84-1.76,2.34-.87.48-1.92.61-2.91.29-3.77-1.22-10.4-5.47-10.4-5.47,0,0-7.36,2.82-11.3,3.26-1.03.11-1.84-.08-2.59-.72"/>
      <path class="cls-2" d="M124.39,328.99s.02.02,0,0c-.24-.24-.39-.57-.4-.93-.04-1.5.64-4.39.64-4.39,0,0-1.93-2.26-2.58-3.61-.17-.35-.18-.75-.04-1.1.14-.35.42-.64.78-.78,1.39-.54,4.35-.87,4.35-.87,0,0,1.74-2.55,2.87-3.53.3-.26.68-.37,1.05-.33.37.04.72.24.96.55.88,1.21,1.98,3.97,1.98,3.97,0,0,2.89.7,4.21,1.42.34.19.58.51.68.87.09.36.03.76-.18,1.09-.82,1.25-3.1,3.32-3.1,3.32,0,0,.08,2.97-.27,4.43-.09.38-.34.7-.66.88-.33.18-.72.23-1.1.11-1.42-.46-3.93-2.07-3.93-2.07,0,0-2.78,1.06-4.26,1.23-.39.04-.7-.03-.98-.27"/>
    </g>
    <g>
      <path class="cls-7" d="M259.44,165.54c3.05.75,5.45,3.15,6.2,6.2.06.26.43.26.49,0,.75-3.05,3.15-5.45,6.2-6.2.26-.06.26-.43,0-.49-3.05-.75-5.45-3.15-6.2-6.2-.06-.26-.43-.26-.49,0-.75,3.05-3.15,5.45-6.2,6.2-.26.06-.26.43,0,.49Z"/>
      <path class="cls-7" d="M.19,151.65c3.04.88,5.44,3.7,6.19,7.29.06.3.43.3.49,0,.75-3.58,3.15-6.4,6.19-7.29.26-.07.26-.51,0-.58-3.04-.88-5.44-3.7-6.19-7.29-.06-.3-.43-.3-.49,0-.75,3.58-3.15,6.4-6.19,7.29-.26.07-.26.51,0,.58Z"/>
      <path class="cls-7" d="M425.5,99.03c2.2.64,3.93,2.68,4.48,5.27.05.22.31.22.36,0,.54-2.59,2.28-4.63,4.48-5.27.19-.05.19-.37,0-.42-2.2-.64-3.93-2.68-4.48-5.27-.05-.22-.31-.22-.36,0-.54,2.59-2.28,4.63-4.48,5.27-.19.05-.19.37,0,.42Z"/>
      <path class="cls-7" d="M174.64,87.34c2.2.64,3.93,2.68,4.48,5.27.05.22.31.22.36,0,.54-2.59,2.28-4.63,4.48-5.27.19-.05.19-.37,0-.42-2.2-.64-3.93-2.68-4.48-5.27-.05-.22-.31-.22-.36,0-.54,2.59-2.28,4.63-4.48,5.27-.19.05-.19.37,0,.42Z"/>
      <path class="cls-7" d="M3.19,261.51c1.62.47,2.9,1.98,3.3,3.89.03.16.23.16.26,0,.4-1.91,1.68-3.42,3.3-3.89.14-.04.14-.27,0-.31-1.62-.47-2.9-1.98-3.3-3.89-.03-.16-.23-.16-.26,0-.4,1.91-1.68,3.42-3.3,3.89-.14.04-.14.27,0,.31Z"/>
      <path class="cls-7" d="M17.17,245.04c1.62.47,2.9,1.98,3.3,3.89.03.16.23.16.26,0,.4-1.91,1.68-3.42,3.3-3.89.14-.04.14-.27,0-.31-1.62-.47-2.9-1.98-3.3-3.89-.03-.16-.23-.16-.26,0-.4,1.91-1.68,3.42-3.3,3.89-.14.04-.14.27,0,.31Z"/>
      <path class="cls-7" d="M465.77,532.55c1.62.47,2.9,1.98,3.3,3.89.03.16.23.16.26,0,.4-1.91,1.68-3.42,3.3-3.89.14-.04.14-.27,0-.31-1.62-.47-2.9-1.98-3.3-3.89-.03-.16-.23-.16-.26,0-.4,1.91-1.68,3.42-3.3,3.89-.14.04-.14.27,0,.31Z"/>
      <path class="cls-7" d="M528.37,517.06c1.62.47,2.9,1.98,3.3,3.89.03.16.23.16.26,0,.4-1.91,1.68-3.42,3.3-3.89.14-.04.14-.27,0-.31-1.62-.47-2.9-1.98-3.3-3.89-.03-.16-.23-.16-.26,0-.4,1.91-1.68,3.42-3.3,3.89-.14.04-.14.27,0,.31Z"/>
      <path class="cls-7" d="M615.07,144.72c1.62.47,2.9,1.98,3.3,3.89.03.16.23.16.26,0,.4-1.91,1.68-3.42,3.3-3.89.14-.04.14-.27,0-.31-1.62-.47-2.9-1.98-3.3-3.89-.03-.16-.23-.16-.26,0-.4,1.91-1.68,3.42-3.3,3.89-.14.04-.14.27,0,.31Z"/>
      <path class="cls-7" d="M445.11,525.39c1.62.47,2.9,1.98,3.3,3.89.03.16.23.16.26,0,.4-1.91,1.68-3.42,3.3-3.89.14-.04.14-.27,0-.31-1.62-.47-2.9-1.98-3.3-3.89-.03-.16-.23-.16-.26,0-.4,1.91-1.68,3.42-3.3,3.89-.14.04-.14.27,0,.31Z"/>
      <path class="cls-7" d="M413.94,118.4c2.2.64,3.93,2.68,4.48,5.27.05.22.31.22.36,0,.54-2.59,2.28-4.63,4.48-5.27.19-.05.19-.37,0-.42-2.2-.64-3.93-2.68-4.48-5.27-.05-.22-.31-.22-.36,0-.54,2.59-2.28,4.63-4.48,5.27-.19.05-.19.37,0,.42Z"/>
      <path class="cls-7" d="M504.22,110.85c4.42,1.28,7.89,5.38,8.98,10.58.09.44.62.44.72,0,1.09-5.2,4.57-9.29,8.98-10.58.37-.11.37-.74,0-.84-4.42-1.28-7.89-5.38-8.98-10.58-.09-.44-.62-.44-.72,0-1.09,5.2-4.57,9.29-8.98,10.58-.37.11-.37.74,0,.84Z"/>
      <path class="cls-7" d="M600.12,87.91c4.42,1.28,7.89,5.38,8.98,10.58.09.44.62.44.72,0,1.09-5.2,4.57-9.29,8.98-10.58.37-.11.37-.74,0-.84-4.42-1.28-7.89-5.38-8.98-10.58-.09-.44-.62-.44-.72,0-1.09,5.2-4.57,9.29-8.98,10.58-.37.11-.37.74,0,.84Z"/>
      <path class="cls-7" d="M559.22,594.48c4.42,1.28,7.89,5.38,8.98,10.58.09.44.62.44.72,0,1.09-5.2,4.57-9.29,8.98-10.58.37-.11.37-.74,0-.84-4.42-1.28-7.89-5.38-8.98-10.58-.09-.44-.62-.44-.72,0-1.09,5.2-4.57,9.29-8.98,10.58-.37.11-.37.74,0,.84Z"/>
    </g>
    <g>
      <path class="cls-7" d="M671.6,406.82c-3.05-.75-5.45-3.15-6.2-6.2-.06-.26-.43-.26-.49,0-.75,3.05-3.15,5.45-6.2,6.2-.26.06-.26.43,0,.49,3.05.75,5.45,3.15,6.2,6.2.06.26.43.26.49,0,.75-3.05,3.15-5.45,6.2-6.2.26-.06.26-.43,0-.49Z"/>
      <path class="cls-7" d="M577.99,865.61c-3.04-.88-5.44-3.7-6.19-7.29-.06-.3-.43-.3-.49,0-.75,3.58-3.15,6.4-6.19,7.29-.26.07-.26.51,0,.58,3.04.88,5.44,3.7,6.19,7.29.06.3.43.3.49,0,.75-3.58,3.15-6.4,6.19-7.29.26-.07.26-.51,0-.58Z"/>
      <path class="cls-7" d="M468.37,462.37c-2.2-.64-3.93-2.68-4.48-5.27-.05-.22-.31-.22-.36,0-.54,2.59-2.28,4.63-4.48,5.27-.19.05-.19.37,0,.42,2.2.64,3.93,2.68,4.48,5.27.05.22.31.22.36,0,.54-2.59,2.28-4.63,4.48-5.27.19-.05.19-.37,0-.42Z"/>
      <path class="cls-7" d="M403.53,929.93c-2.2-.64-3.93-2.68-4.48-5.27-.05-.22-.31-.22-.36,0-.54,2.59-2.28,4.63-4.48,5.27-.19.05-.19.37,0,.42,2.2.64,3.93,2.68,4.48,5.27.05.22.31.22.36,0,.54-2.59,2.28-4.63,4.48-5.27.19-.05.19-.37,0-.42Z"/>
      <path class="cls-7" d="M574.99,755.76c-1.62-.47-2.9-1.98-3.3-3.89-.03-.16-.23-.16-.26,0-.4,1.91-1.68,3.42-3.3,3.89-.14.04-.14.27,0,.31,1.62.47,2.9,1.98,3.3,3.89.03.16.23.16.26,0,.4-1.91,1.68-3.42,3.3-3.89.14-.04.14-.27,0-.31Z"/>
      <path class="cls-7" d="M561.01,772.23c-1.62-.47-2.9-1.98-3.3-3.89-.03-.16-.23-.16-.26,0-.4,1.91-1.68,3.42-3.3,3.89-.14.04-.14.27,0,.31,1.62.47,2.9,1.98,3.3,3.89.03.16.23.16.26,0,.4-1.91,1.68-3.42,3.3-3.89.14-.04.14-.27,0-.31Z"/>
      <path class="cls-7" d="M112.41,484.71c-1.62-.47-2.9-1.98-3.3-3.89-.03-.16-.23-.16-.26,0-.4,1.91-1.68,3.42-3.3,3.89-.14.04-.14.27,0,.31,1.62.47,2.9,1.98,3.3,3.89.03.16.23.16.26,0,.4-1.91,1.68-3.42,3.3-3.89.14-.04.14-.27,0-.31Z"/>
      <path class="cls-7" d="M49.81,500.2c-1.62-.47-2.9-1.98-3.3-3.89-.03-.16-.23-.16-.26,0-.4,1.91-1.68,3.42-3.3,3.89-.14.04-.14.27,0,.31,1.62.47,2.9,1.98,3.3,3.89.03.16.23.16.26,0,.4-1.91,1.68-3.42,3.3-3.89.14-.04.14-.27,0-.31Z"/>
      <path class="cls-7" d="M315.97,427.64c-1.62-.47-2.9-1.98-3.3-3.89-.03-.16-.23-.16-.26,0-.4,1.91-1.68,3.42-3.3,3.89-.14.04-.14.27,0,.31,1.62.47,2.9,1.98,3.3,3.89.03.16.23.16.26,0,.4-1.91,1.68-3.42,3.3-3.89.14-.04.14-.27,0-.31Z"/>
      <path class="cls-7" d="M133.07,491.87c-1.62-.47-2.9-1.98-3.3-3.89-.03-.16-.23-.16-.26,0-.4,1.91-1.68,3.42-3.3,3.89-.14.04-.14.27,0,.31,1.62.47,2.9,1.98,3.3,3.89.03.16.23.16.26,0,.4-1.91,1.68-3.42,3.3-3.89.14-.04.14-.27,0-.31Z"/>
      <path class="cls-7" d="M479.94,443c-2.2-.64-3.93-2.68-4.48-5.27-.05-.22-.31-.22-.36,0-.54,2.59-2.28,4.63-4.48,5.27-.19.05-.19.37,0,.42,2.2.64,3.93,2.68,4.48,5.27.05.22.31.22.36,0,.54-2.59,2.28-4.63,4.48-5.27.19-.05.19-.37,0-.42Z"/>
      <path class="cls-7" d="M389.66,450.54c-4.42-1.28-7.89-5.38-8.98-10.58-.09-.44-.62-.44-.72,0-1.09,5.2-4.57,9.29-8.98,10.58-.37.11-.37.74,0,.84,4.42,1.28,7.89,5.38,8.98,10.58.09.44.62.44.72,0,1.09-5.2,4.57-9.29,8.98-10.58.37-.11.37-.74,0-.84Z"/>
      <path class="cls-7" d="M236.11,512.32c-4.42-1.28-7.89-5.38-8.98-10.58-.09-.44-.62-.44-.72,0-1.09,5.2-4.57,9.29-8.98,10.58-.37.11-.37.74,0,.84,4.42,1.28,7.89,5.38,8.98,10.58.09.44.62.44.72,0,1.09-5.2,4.57-9.29,8.98-10.58.37-.11.37-.74,0-.84Z"/>
      <path class="cls-7" d="M18.96,422.78c-4.42-1.28-7.89-5.38-8.98-10.58-.09-.44-.62-.44-.72,0-1.09,5.2-4.57,9.29-8.98,10.58-.37.11-.37.74,0,.84,4.42,1.28,7.89,5.38,8.98,10.58.09.44.62.44.72,0,1.09-5.2,4.57-9.29,8.98-10.58.37-.11.37-.74,0-.84Z"/>
      <path class="cls-9" d="M166.56,839.34c-.02-.07.01.07,0,0-.11-.75.06-1.55.52-2.2,1.91-2.73,6.96-7.02,6.96-7.02,0,0-.46-6.61.16-9.88.16-.86.68-1.58,1.38-2.03.71-.44,1.59-.59,2.44-.35,3.21.88,8.94,4.21,8.94,4.21,0,0,6.49-2.26,9.81-2.52.87-.07,1.71.25,2.32.81.6.57.98,1.38.98,2.26-.02,3.33-1.72,9.73-1.72,9.73,0,0,4.24,5.09,5.65,8.11.37.79.37,1.69.06,2.46-.32.77-.95,1.41-1.77,1.71-3.12,1.16-9.96,1.84-9.96,1.84,0,0-3.8,5.42-6.34,7.58-.66.57-1.53.8-2.36.7-.82-.11-1.6-.55-2.11-1.26-1.93-2.71-4.29-8.9-4.29-8.9,0,0-6.38-1.77-9.26-3.44-.76-.44-1.21-.97-1.4-1.78"/>
      <path class="cls-2" d="M145.15,824.93s.02.02,0,0c-.24-.24-.39-.57-.4-.93-.04-1.5.64-4.39.64-4.39,0,0-1.93-2.26-2.58-3.61-.17-.35-.18-.75-.04-1.1.14-.35.42-.64.78-.78,1.39-.54,4.35-.87,4.35-.87,0,0,1.74-2.55,2.87-3.53.3-.26.68-.37,1.05-.33.37.04.72.24.96.55.88,1.21,1.98,3.97,1.98,3.97,0,0,2.89.7,4.21,1.42.34.19.58.51.68.87.09.36.03.76-.18,1.09-.82,1.25-3.1,3.32-3.1,3.32,0,0,.08,2.97-.27,4.43-.09.38-.34.7-.66.88-.33.18-.72.23-1.1.11-1.42-.46-3.93-2.07-3.93-2.07,0,0-2.78,1.06-4.26,1.23-.39.04-.7-.03-.98-.27"/>
      <path class="cls-7" d="M23.95,757.44c1.62.47,2.9,1.98,3.3,3.89.03.16.23.16.26,0,.4-1.91,1.68-3.42,3.3-3.89.14-.04.14-.27,0-.31-1.62-.47-2.9-1.98-3.3-3.89-.03-.16-.23-.16-.26,0-.4,1.91-1.68,3.42-3.3,3.89-.14.04-.14.27,0,.31Z"/>
      <path class="cls-7" d="M133.17,980.64c-1.62-.47-2.9-1.98-3.3-3.89-.03-.16-.23-.16-.26,0-.4,1.91-1.68,3.42-3.3,3.89-.14.04-.14.27,0,.31,1.62.47,2.9,1.98,3.3,3.89.03.16.23.16.26,0,.4-1.91,1.68-3.42,3.3-3.89.14-.04.14-.27,0-.31Z"/>
      <path class="cls-7" d="M70.57,996.13c-1.62-.47-2.9-1.98-3.3-3.89-.03-.16-.23-.16-.26,0-.4,1.91-1.68,3.42-3.3,3.89-.14.04-.14.27,0,.31,1.62.47,2.9,1.98,3.3,3.89.03.16.23.16.26,0,.4-1.91,1.68-3.42,3.3-3.89.14-.04.14-.27,0-.31Z"/>
      <path class="cls-7" d="M153.83,987.8c-1.62-.47-2.9-1.98-3.3-3.89-.03-.16-.23-.16-.26,0-.4,1.91-1.68,3.42-3.3,3.89-.14.04-.14.27,0,.31,1.62.47,2.9,1.98,3.3,3.89.03.16.23.16.26,0,.4-1.91,1.68-3.42,3.3-3.89.14-.04.14-.27,0-.31Z"/>
      <path class="cls-7" d="M39.72,918.72c-4.42-1.28-7.89-5.38-8.98-10.58-.09-.44-.62-.44-.72,0-1.09,5.2-4.57,9.29-8.98,10.58-.37.11-.37.74,0,.84,4.42,1.28,7.89,5.38,8.98,10.58.09.44.62.44.72,0,1.09-5.2,4.57-9.29,8.98-10.58.37-.11.37-.74,0-.84Z"/>
    </g>
    <path class="cls-4" d="M301.92,382.34s.02-.01,0,0c-.22.11-.48.15-.73.08-1.04-.29-2.89-1.36-2.89-1.36,0,0-1.96.85-3.03,1.02-.28.04-.56-.04-.77-.2-.21-.17-.35-.42-.37-.7-.08-1.07.32-3.18.32-3.18,0,0-1.39-1.73-1.83-2.72-.11-.26-.11-.55,0-.79.11-.25.31-.45.58-.54,1.02-.35,3.15-.52,3.15-.52,0,0,1.09-1.84,1.86-2.6.2-.2.47-.29.74-.28.27.02.53.14.71.35.69.83,1.63,2.84,1.63,2.84,0,0,2.06.57,2.99,1.12.24.14.41.38.47.64.06.26,0,.55-.16.78-.62.88-2.25,2.27-2.25,2.27,0,0,.15,2.14-.05,3.19-.05.28-.17.47-.39.62Z"/>
    <g>
      <path class="cls-4" d="M541.5,351.56s-.02,0,0,0c.23-.07.49-.05.72.06.95.48,2.54,1.89,2.54,1.89,0,0,2.07-.44,3.14-.39.28.01.53.15.71.35.17.21.26.48.22.75-.14,1.06-.93,3.02-.93,3.02,0,0,1.01,1.95,1.24,3,.06.27,0,.55-.15.77-.15.22-.39.37-.67.41-1.06.14-3.16-.11-3.16-.11,0,0-1.42,1.57-2.32,2.16-.23.15-.52.19-.78.13-.26-.07-.49-.24-.62-.48-.51-.94-1.03-3.07-1.03-3.07,0,0-1.89-.96-2.69-1.67-.21-.19-.32-.45-.33-.72,0-.27.1-.53.3-.73.77-.74,2.63-1.76,2.63-1.76,0,0,.28-2.1.68-3.09.11-.26.25-.43.5-.52Z"/>
      <path class="cls-5" d="M528.3,401.3s-.01-.01,0,0c.12.12.2.28.21.46.03.74-.29,2.19-.29,2.19,0,0,.98,1.11,1.31,1.78.09.17.09.37.03.55-.07.17-.2.32-.39.39-.69.28-2.16.46-2.16.46,0,0-.85,1.28-1.41,1.78-.15.13-.34.19-.52.17-.19-.02-.36-.11-.48-.27-.45-.6-1.01-1.97-1.01-1.97,0,0-1.44-.33-2.11-.68-.17-.09-.29-.25-.34-.43-.05-.18-.02-.38.08-.54.4-.63,1.52-1.68,1.52-1.68,0,0-.06-1.48.1-2.21.04-.19.16-.35.32-.44.16-.09.36-.12.55-.06.71.22,1.97,1,1.97,1,0,0,1.38-.55,2.12-.64.19-.02.35,0,.49.13Z"/>
      <path class="cls-6" d="M475.46,407.46s0-.03,0,0c-.06.36-.24.69-.54.92-1.24.97-4.11,2.2-4.11,2.2,0,0-.71,3.04-1.44,4.43-.19.36-.53.62-.91.72-.38.1-.8.04-1.15-.18-1.32-.85-3.45-3.14-3.45-3.14,0,0-3.24.12-4.77-.23-.4-.09-.73-.35-.93-.69-.19-.34-.25-.76-.13-1.15.47-1.5,2.13-4.15,2.13-4.15,0,0-1.21-2.88-1.42-4.44-.06-.41.07-.81.31-1.12.25-.3.62-.5,1.03-.53,1.57-.09,4.74.55,4.74.55,0,0,2.47-1.92,3.91-2.54.38-.16.8-.15,1.16.01.36.16.65.47.78.86.5,1.49.7,4.61.7,4.61,0,0,2.63,1.68,3.7,2.84.28.3.41.6.38,1Z"/>
      <path class="cls-3" d="M596.34,401.57s0-.03,0,0c.02.36-.1.72-.34,1.01-1.02,1.19-3.57,2.98-3.57,2.98,0,0-.08,3.12-.51,4.62-.11.39-.39.71-.74.89-.35.17-.77.2-1.15.06-1.46-.56-4-2.37-4-2.37,0,0-3.14.77-4.71.74-.41,0-.79-.19-1.05-.48-.26-.29-.4-.69-.36-1.1.16-1.56,1.24-4.48,1.24-4.48,0,0-1.76-2.57-2.29-4.05-.14-.39-.1-.8.08-1.15.19-.35.51-.62.9-.72,1.51-.4,4.75-.41,4.75-.41,0,0,2.02-2.37,3.31-3.27.34-.23.75-.31,1.13-.22.38.09.73.33.93.68.79,1.36,1.61,4.36,1.61,4.36,0,0,2.91,1.11,4.18,2.03.33.24.52.51.57.9Z"/>
      <path class="cls-7" d="M611.04,214.41c-2.85,1.33-6.22.98-8.73-.92-.21-.16-.5.07-.38.31,1.33,2.85.98,6.22-.92,8.73-.16.21.07.5.31.38,2.85-1.33,6.22-.98,8.73.92.21.16.5-.07.38-.31-1.33-2.85-.98-6.22.92-8.73.16-.21-.07-.5-.31-.38Z"/>
      <path class="cls-4" d="M475.13,253.27s-.01.02,0,0c.14-.2.35-.35.6-.4,1.04-.22,3.16-.13,3.16-.13,0,0,1.33-1.65,2.19-2.28.23-.17.51-.22.77-.17.26.05.5.21.65.45.56.91,1.18,2.94,1.18,2.94,0,0,2.01.89,2.85,1.55.22.17.35.43.37.7.02.27-.07.54-.26.74-.73.78-2.53,1.9-2.53,1.9,0,0-.12,2.12-.44,3.13-.09.27-.28.47-.52.59-.24.11-.53.12-.79.01-.98-.41-2.73-1.74-2.73-1.74,0,0-2.07.44-3.14.39-.28-.01-.53-.15-.7-.35-.17-.21-.26-.48-.22-.76.14-1.06.94-3.02.94-3.02,0,0-1.11-1.81-1.42-2.83-.08-.27-.07-.49.06-.72Z"/>
      <path class="cls-5" d="M496.15,300.24s-.02,0,0,0c.17.02.33.09.45.23.49.56,1.16,1.89,1.16,1.89,0,0,1.46.25,2.14.56.18.08.31.23.37.41.06.18.04.38-.05.55-.36.65-1.39,1.72-1.39,1.72,0,0,.15,1.53.03,2.27-.03.19-.14.36-.3.46-.16.1-.35.14-.54.09-.72-.18-2.02-.89-2.02-.89,0,0-1.33.65-2.06.8-.19.04-.39,0-.54-.12-.15-.11-.25-.28-.28-.47-.09-.74.13-2.26.13-2.26,0,0-.98-1.12-1.31-1.78-.09-.17-.09-.37-.03-.55.07-.17.2-.32.39-.39.69-.28,2.16-.46,2.16-.46,0,0,.72-1.29,1.24-1.83.14-.14.27-.21.46-.21Z"/>
      <path class="cls-3" d="M549.22,257.66s-.02-.02,0,0c.24.27.38.62.37,1-.04,1.57-.9,4.56-.9,4.56,0,0,1.9,2.47,2.51,3.92.16.38.14.8-.02,1.16-.17.36-.47.64-.86.77-1.49.49-4.6.67-4.6.67,0,0-1.96,2.57-3.19,3.54-.32.25-.73.35-1.12.29-.39-.07-.74-.29-.97-.63-.86-1.31-1.85-4.26-1.85-4.26,0,0-2.99-.89-4.32-1.71-.35-.21-.58-.56-.66-.95-.07-.39,0-.8.25-1.13.92-1.27,3.43-3.31,3.43-3.31,0,0,.08-3.12.52-4.62.11-.39.39-.71.74-.89.35-.17.77-.2,1.15-.06,1.46.56,4,2.38,4,2.38,0,0,2.96-.96,4.53-1.05.41-.02.73.07,1.01.34Z"/>
    </g>
    <g>
      <path class="cls-4" d="M334.22,36.46s.02.02,0,0c-.27-.22-.46-.54-.51-.9-.2-1.51.17-4.52.17-4.52,0,0-2.2-2.09-3.01-3.38-.21-.34-.26-.74-.16-1.11.1-.37.35-.69.71-.87,1.36-.69,4.32-1.35,4.32-1.35,0,0,1.49-2.77,2.53-3.89.27-.29.65-.44,1.03-.45.38,0,.76.16,1.03.46,1.03,1.13,2.43,3.82,2.43,3.82,0,0,3.01.4,4.42.98.37.15.65.45.78.81.13.36.12.77-.07,1.12-.69,1.36-2.79,3.7-2.79,3.7,0,0,.4,3.01.21,4.52-.05.4-.27.74-.58.97-.31.22-.71.31-1.1.23-1.49-.32-4.2-1.67-4.2-1.67,0,0-2.7,1.38-4.19,1.71-.39.09-.71.05-1.02-.17Z"/>
      <path class="cls-5" d="M369.32,47.9c0-.05,0,.05,0,0,.02-.54.24-1.08.65-1.48,1.7-1.67,5.81-4.02,5.81-4.02,0,0,.54-4.7,1.41-6.92.23-.58.69-1.02,1.24-1.24.56-.21,1.19-.2,1.76.07,2.14,1.05,5.73,4.14,5.73,4.14,0,0,4.85-.73,7.22-.48.62.07,1.17.4,1.52.87.35.48.51,1.1.39,1.71-.45,2.34-2.49,6.61-2.49,6.61,0,0,2.31,4.13,2.91,6.44.16.6.04,1.23-.28,1.73-.33.5-.85.86-1.47.97-2.35.4-7.24-.02-7.24-.02,0,0-3.39,3.31-5.45,4.49-.54.31-1.18.36-1.75.18-.57-.19-1.06-.59-1.32-1.16-1-2.16-1.85-6.82-1.85-6.82,0,0-4.25-2.08-6.06-3.64-.47-.41-.72-.84-.75-1.44Z"/>
      <path class="cls-6" d="M246.96,98.91c-.01-.05,0,.05,0,0-.08-.58.04-1.2.4-1.71,1.48-2.12,5.39-5.44,5.39-5.44,0,0-.36-5.12.12-7.66.13-.67.53-1.23,1.08-1.57.55-.34,1.23-.45,1.88-.27,2.49.69,6.93,3.26,6.93,3.26,0,0,5.03-1.75,7.6-1.95.68-.05,1.32.19,1.8.63.47.44.76,1.07.76,1.75-.01,2.58-1.34,7.54-1.34,7.54,0,0,3.29,3.94,4.38,6.28.29.61.29,1.3.05,1.9-.25.6-.73,1.09-1.37,1.32-2.42.9-7.72,1.42-7.72,1.42,0,0-2.95,4.2-4.92,5.87-.52.44-1.18.62-1.82.54-.64-.08-1.24-.42-1.64-.97-1.5-2.1-3.33-6.9-3.33-6.9,0,0-4.95-1.37-7.18-2.67-.59-.34-.94-.75-1.08-1.38Z"/>
    </g>
    <path class="cls-8" d="M281.88,807.12s-.04.02,0,0c.42-.22.91-.28,1.38-.15,1.97.55,5.49,2.59,5.49,2.59,0,0,3.73-1.62,5.76-1.94.53-.08,1.05.07,1.46.39.4.32.67.8.7,1.34.14,2.04-.61,6.04-.61,6.04,0,0,2.64,3.29,3.47,5.17.22.49.21,1.04,0,1.51-.21.47-.6.85-1.11,1.03-1.93.67-5.99.99-5.99.99,0,0-2.08,3.5-3.54,4.94-.38.38-.9.56-1.41.54-.51-.03-1.01-.26-1.35-.67-1.31-1.57-3.1-5.39-3.1-5.39,0,0-3.92-1.09-5.69-2.12-.47-.27-.78-.72-.89-1.22-.1-.5-.01-1.04.3-1.48,1.17-1.68,4.28-4.31,4.28-4.31,0,0-.28-4.06.1-6.07.1-.53.31-.9.75-1.17"/>
    <path class="cls-7" d="M146.85,729.96c3.05.75,5.45,3.15,6.2,6.2.06.26.43.26.49,0,.75-3.05,3.15-5.45,6.2-6.2.26-.06.26-.43,0-.49-3.05-.75-5.45-3.15-6.2-6.2-.06-.26-.43-.26-.49,0-.75,3.05-3.15,5.45-6.2,6.2-.26.06-.26.43,0,.49Z"/>
    <path class="cls-7" d="M350.08,674.41c2.2.64,3.93,2.68,4.48,5.27.05.22.31.22.36,0,.54-2.59,2.28-4.63,4.48-5.27.19-.05.19-.37,0-.42-2.2-.64-3.93-2.68-4.48-5.27-.05-.22-.31-.22-.36,0-.54,2.59-2.28,4.63-4.48,5.27-.19.05-.19.37,0,.42Z"/>
    <path class="cls-7" d="M338.51,693.78c2.2.64,3.93,2.68,4.48,5.27.05.22.31.22.36,0,.54-2.59,2.28-4.63,4.48-5.27.19-.05.19-.37,0-.42-2.2-.64-3.93-2.68-4.48-5.27-.05-.22-.31-.22-.36,0-.54,2.59-2.28,4.63-4.48,5.27-.19.05-.19.37,0,.42Z"/>
    <g>
      <path class="cls-4" d="M221.63,600.88s.02.02,0,0c-.27-.22-.46-.54-.51-.9-.2-1.51.17-4.52.17-4.52,0,0-2.2-2.09-3.01-3.38-.21-.34-.26-.74-.16-1.11.1-.37.35-.69.71-.87,1.36-.69,4.32-1.35,4.32-1.35,0,0,1.49-2.77,2.53-3.89.27-.29.65-.44,1.03-.45.38,0,.76.16,1.03.46,1.03,1.13,2.43,3.82,2.43,3.82,0,0,3.01.4,4.42.98.37.15.65.45.78.81.13.36.12.77-.07,1.12-.69,1.36-2.79,3.7-2.79,3.7,0,0,.4,3.01.21,4.52-.05.4-.27.74-.58.97-.31.22-.71.31-1.1.23-1.49-.32-4.2-1.67-4.2-1.67,0,0-2.7,1.38-4.19,1.71-.39.09-.71.05-1.02-.17Z"/>
      <path class="cls-5" d="M293.89,623.28c0-.05,0,.05,0,0,.02-.54.24-1.08.65-1.48,1.7-1.67,5.81-4.02,5.81-4.02,0,0,.54-4.7,1.41-6.92.23-.58.69-1.02,1.24-1.24.56-.21,1.19-.2,1.76.07,2.14,1.05,5.73,4.14,5.73,4.14,0,0,4.85-.73,7.22-.48.62.07,1.17.4,1.52.87.35.48.51,1.1.39,1.71-.45,2.34-2.49,6.61-2.49,6.61,0,0,2.31,4.13,2.91,6.44.16.6.04,1.23-.28,1.73-.33.5-.85.86-1.47.97-2.35.4-7.24-.02-7.24-.02,0,0-3.39,3.31-5.45,4.49-.54.31-1.18.36-1.75.18-.57-.19-1.06-.59-1.32-1.16-1-2.16-1.85-6.82-1.85-6.82,0,0-4.25-2.08-6.06-3.64-.47-.41-.72-.84-.75-1.44Z"/>
      <path class="cls-6" d="M134.37,663.33c-.01-.05,0,.05,0,0-.08-.58.04-1.2.4-1.71,1.48-2.12,5.39-5.44,5.39-5.44,0,0-.36-5.12.12-7.66.13-.67.53-1.23,1.08-1.57.55-.34,1.23-.45,1.88-.27,2.49.69,6.93,3.26,6.93,3.26,0,0,5.03-1.75,7.6-1.95.68-.05,1.32.19,1.8.63.47.44.76,1.07.76,1.75-.01,2.58-1.34,7.54-1.34,7.54,0,0,3.29,3.94,4.38,6.28.29.61.29,1.3.05,1.9-.25.6-.73,1.09-1.37,1.32-2.42.9-7.72,1.42-7.72,1.42,0,0-2.95,4.2-4.92,5.87-.52.44-1.18.62-1.82.54-.64-.08-1.24-.42-1.64-.97-1.5-2.1-3.33-6.9-3.33-6.9,0,0-4.95-1.37-7.18-2.67-.59-.34-.94-.75-1.08-1.38Z"/>
    </g>
    <path class="cls-8" d="M40.85,64.57s-.04.02,0,0c.42-.22.91-.28,1.38-.15,1.97.55,5.49,2.59,5.49,2.59,0,0,3.73-1.62,5.76-1.94.53-.08,1.05.07,1.46.39.4.32.67.8.7,1.34.14,2.04-.61,6.04-.61,6.04,0,0,2.64,3.29,3.47,5.17.22.49.21,1.04,0,1.51-.21.47-.6.85-1.11,1.03-1.93.67-5.99.99-5.99.99,0,0-2.08,3.5-3.54,4.94-.38.38-.9.56-1.41.54-.51-.03-1.01-.26-1.35-.67-1.31-1.57-3.1-5.39-3.1-5.39,0,0-3.92-1.09-5.69-2.12-.47-.27-.78-.72-.89-1.22-.1-.5-.01-1.04.3-1.48,1.17-1.68,4.28-4.31,4.28-4.31,0,0-.28-4.06.1-6.07.1-.53.31-.9.75-1.17"/>
    <path class="cls-9" d="M41.9,36.88c-.01-.06,0,.06,0,0-.1-.7.05-1.43.48-2.04,1.77-2.53,6.45-6.51,6.45-6.51,0,0-.43-6.13.14-9.16.15-.8.63-1.46,1.29-1.88.66-.4,1.47-.55,2.25-.33,2.97.82,8.29,3.9,8.29,3.9,0,0,6.01-2.09,9.09-2.33.81-.06,1.58.23,2.15.75.56.53.91,1.28.9,2.09-.01,3.09-1.6,9.02-1.6,9.02,0,0,3.93,4.72,5.24,7.51.34.74.34,1.56.05,2.28-.3.71-.88,1.3-1.64,1.58-2.89,1.07-9.23,1.7-9.23,1.7,0,0-3.53,5.03-5.88,7.03-.62.52-1.42.74-2.18.65-.76-.1-1.48-.51-1.96-1.17-1.79-2.51-3.98-8.25-3.98-8.25,0,0-5.92-1.65-8.58-3.2-.7-.41-1.12-.9-1.29-1.65"/>
    <rect class="cls-1" x="41.87" y="16.86" width="34.98" height="34.3"/>
  </g>
</svg>