<?xml version="1.0" encoding="UTF-8"?>
<svg id="_レイヤー_2" data-name="レイヤー 2" xmlns="http://www.w3.org/2000/svg" xmlns:xlink="http://www.w3.org/1999/xlink" viewBox="0 0 750.53 168.71">
  <defs>
    <style>
      .cls-1 {
        fill: url(#_名称未設定グラデーション_35-6);
      }

      .cls-2 {
        fill: url(#_名称未設定グラデーション_35-8);
      }

      .cls-3 {
        fill: url(#_名称未設定グラデーション_35-9);
      }

      .cls-4 {
        fill: url(#_名称未設定グラデーション_35-7);
      }

      .cls-5 {
        fill: url(#_名称未設定グラデーション_35-4);
      }

      .cls-6 {
        fill: url(#_名称未設定グラデーション_35-5);
      }

      .cls-7 {
        fill: url(#_名称未設定グラデーション_35-2);
      }

      .cls-8 {
        fill: url(#_名称未設定グラデーション_35-3);
      }

      .cls-9 {
        fill: url(#_名称未設定グラデーション_35-18);
      }

      .cls-10 {
        fill: url(#_名称未設定グラデーション_35-15);
      }

      .cls-11 {
        fill: url(#_名称未設定グラデーション_35-19);
      }

      .cls-12 {
        fill: url(#_名称未設定グラデーション_35-13);
      }

      .cls-13 {
        fill: url(#_名称未設定グラデーション_35-12);
      }

      .cls-14 {
        fill: url(#_名称未設定グラデーション_35-10);
      }

      .cls-15 {
        fill: url(#_名称未設定グラデーション_35-11);
      }

      .cls-16 {
        fill: url(#_名称未設定グラデーション_35-16);
      }

      .cls-17 {
        fill: url(#_名称未設定グラデーション_35-17);
      }

      .cls-18 {
        fill: url(#_名称未設定グラデーション_35-14);
      }

      .cls-19 {
        fill: url(#_名称未設定グラデーション_35-22);
      }

      .cls-20 {
        fill: url(#_名称未設定グラデーション_35-20);
      }

      .cls-21 {
        fill: url(#_名称未設定グラデーション_35-21);
      }

      .cls-22 {
        stroke: #fff;
        stroke-width: 5px;
      }

      .cls-22, .cls-23 {
        stroke-linecap: round;
        stroke-linejoin: round;
      }

      .cls-23 {
        fill: #fff;
        stroke: #4dcdff;
        stroke-width: 13px;
      }

      .cls-24 {
        fill: url(#_名称未設定グラデーション_35);
      }
    </style>
    <linearGradient id="_名称未設定グラデーション_35" data-name="名称未設定グラデーション 35" x1="219.24" y1="9.76" x2="219.24" y2="157.24" gradientUnits="userSpaceOnUse">
      <stop offset="0" stop-color="#ff68ff"/>
      <stop offset=".49" stop-color="#ffb2ff"/>
      <stop offset="1" stop-color="#ff1dff"/>
    </linearGradient>
    <linearGradient id="_名称未設定グラデーション_35-2" data-name="名称未設定グラデーション 35" x1="263.2" y1="9.76" x2="263.2" y2="157.24" xlink:href="#_名称未設定グラデーション_35"/>
    <linearGradient id="_名称未設定グラデーション_35-3" data-name="名称未設定グラデーション 35" x1="309.12" y1="9.76" x2="309.12" y2="157.24" xlink:href="#_名称未設定グラデーション_35"/>
    <linearGradient id="_名称未設定グラデーション_35-4" data-name="名称未設定グラデーション 35" x1="32.72" y1="9.76" x2="32.72" y2="157.24" xlink:href="#_名称未設定グラデーション_35"/>
    <linearGradient id="_名称未設定グラデーション_35-5" data-name="名称未設定グラデーション 35" x1="98.07" y1="9.76" x2="98.07" y2="157.24" xlink:href="#_名称未設定グラデーション_35"/>
    <linearGradient id="_名称未設定グラデーション_35-6" data-name="名称未設定グラデーション 35" x1="165.18" y1="9.76" x2="165.18" y2="157.24" xlink:href="#_名称未設定グラデーション_35"/>
    <linearGradient id="_名称未設定グラデーション_35-7" data-name="名称未設定グラデーション 35" x1="425.03" y1="9.76" x2="425.03" y2="157.24" xlink:href="#_名称未設定グラデーション_35"/>
    <linearGradient id="_名称未設定グラデーション_35-8" data-name="名称未設定グラデーション 35" x1="485.19" y1="9.76" x2="485.19" y2="157.24" xlink:href="#_名称未設定グラデーション_35"/>
    <linearGradient id="_名称未設定グラデーション_35-9" data-name="名称未設定グラデーション 35" x1="545.47" y1="9.76" x2="545.47" y2="157.24" xlink:href="#_名称未設定グラデーション_35"/>
    <linearGradient id="_名称未設定グラデーション_35-10" data-name="名称未設定グラデーション 35" x1="614.75" y1="9.76" x2="614.75" y2="157.24" xlink:href="#_名称未設定グラデーション_35"/>
    <linearGradient id="_名称未設定グラデーション_35-11" data-name="名称未設定グラデーション 35" x1="674.7" y1="9.76" x2="674.7" y2="157.24" xlink:href="#_名称未設定グラデーション_35"/>
    <linearGradient id="_名称未設定グラデーション_35-12" data-name="名称未設定グラデーション 35" x1="362.73" y1="9.76" x2="362.73" y2="157.24" xlink:href="#_名称未設定グラデーション_35"/>
    <linearGradient id="_名称未設定グラデーション_35-13" data-name="名称未設定グラデーション 35" x1="725.62" y1="9.76" x2="725.62" y2="157.24" xlink:href="#_名称未設定グラデーション_35"/>
    <linearGradient id="_名称未設定グラデーション_35-14" data-name="名称未設定グラデーション 35" x1="132.19" y1="9.76" x2="132.19" y2="157.24" xlink:href="#_名称未設定グラデーション_35"/>
    <linearGradient id="_名称未設定グラデーション_35-15" data-name="名称未設定グラデーション 35" x1="178.15" y1="9.76" x2="178.15" y2="157.24" xlink:href="#_名称未設定グラデーション_35"/>
    <linearGradient id="_名称未設定グラデーション_35-16" data-name="名称未設定グラデーション 35" x1="224.82" x2="224.82" xlink:href="#_名称未設定グラデーション_35"/>
    <linearGradient id="_名称未設定グラデーション_35-17" data-name="名称未設定グラデーション 35" x1="278.34" y1="9.76" x2="278.34" y2="157.24" xlink:href="#_名称未設定グラデーション_35"/>
    <linearGradient id="_名称未設定グラデーション_35-18" data-name="名称未設定グラデーション 35" x1="339.58" y1="9.76" x2="339.58" y2="157.24" xlink:href="#_名称未設定グラデーション_35"/>
    <linearGradient id="_名称未設定グラデーション_35-19" data-name="名称未設定グラデーション 35" x1="402.08" y1="9.76" x2="402.08" y2="157.24" xlink:href="#_名称未設定グラデーション_35"/>
    <linearGradient id="_名称未設定グラデーション_35-20" data-name="名称未設定グラデーション 35" x1="460.61" y1="9.76" x2="460.61" y2="157.24" xlink:href="#_名称未設定グラデーション_35"/>
    <linearGradient id="_名称未設定グラデーション_35-21" data-name="名称未設定グラデーション 35" x1="493.69" y1="133.48" x2="551.08" y2="133.48" xlink:href="#_名称未設定グラデーション_35"/>
    <linearGradient id="_名称未設定グラデーション_35-22" data-name="名称未設定グラデーション 35" x1="567.87" y1="9.76" x2="567.87" y2="157.24" xlink:href="#_名称未設定グラデーション_35"/>
  </defs>
  <g id="_レイヤー_1-2" data-name="レイヤー 1">
    <g>
      <g>
        <path class="cls-23" d="M199.63,39.89c0-3.03,1.51-4.54,4.54-4.54h7.77l1.67-4.06c.84-2.35,2.67-3.31,5.5-2.87,2.91.6,4.1,2.19,3.59,4.78l-.9,2.15h12.49c3.03,0,4.54,1.51,4.54,4.54s-1.51,4.6-4.54,4.6h-15.72c-.52,1.2-1.61,3.25-3.29,6.16,1.04-.36,2.1-.68,3.2-.96,1.1-.28,2.16-.48,3.2-.6,4.9-.32,8.86.68,11.87,2.99,3.01,2.31,4.57,5.74,4.69,10.28.04,3.71-1.03,6.98-3.2,9.83-2.17,2.85-5.61,4.61-10.31,5.29-4.7.68-9.92.66-15.66-.06-2.59-.48-3.87-2.15-3.83-5.02.24-2.79,1.67-4.06,4.3-3.83,2.27.2,5.02.32,8.25.36,3.23.04,5.65-.25,7.26-.87,1.61-.62,2.75-1.42,3.41-2.42.66-1,.97-2.11.93-3.35.04-1.63-.59-2.91-1.88-3.83-1.3-.92-3.48-1.25-6.55-1.02-2.95.28-6.2,1.2-9.74,2.75-2.99,1.63-5.22,1.55-6.69-.24-1.32-1.39-1.55-2.99-.72-4.78,2.63-5.34,4.32-8.91,5.08-10.7h-4.72c-3.03,0-4.54-1.51-4.54-4.54v-.06Z"/>
        <path class="cls-23" d="M247.45,48.08c.8-.44,1.65-.82,2.57-1.14-.44-3.15-.72-5.3-.84-6.46-.24-2.35.96-3.69,3.59-4,2.43-.12,3.79,1.04,4.07,3.47.28,1.91.5,3.53.66,4.84.84-.16,1.63-.32,2.39-.48.76-.16,1.59-.3,2.51-.42-.12-1.47-.36-2.85-.72-4.12-.56-1.95.34-3.11,2.69-3.47,2.35-.16,3.71.72,4.06,2.63.64,2.23,1,3.94,1.08,5.14,3.95.44,6.89,1.68,8.85,3.74,1.95,2.05,2.95,4.69,2.99,7.92,0,2.63-.51,4.79-1.52,6.49-1.02,1.69-2.49,3.01-4.42,3.95s-4.53,1.4-7.8,1.4c-2.51-.08-3.73-1.35-3.65-3.83.16-2.55,1.37-3.71,3.65-3.47,1.63.24,3.07.09,4.3-.45,1.23-.54,1.81-1.92,1.73-4.15-.04-.8-.36-1.51-.96-2.15s-1.54-1.14-2.84-1.49c-1.3-.36-3.18-.54-5.65-.54-.8,0-1.69.09-2.69.27s-1.95.43-2.87.75c.96,5.18,1.99,9.84,3.11,13.99,1.12,4.15,1.85,6.81,2.21,8.01.76,1.99-.12,3.49-2.63,4.48-2.51.56-4.14-.32-4.9-2.63-.56-1.35-1.37-4.31-2.42-8.88-1.06-4.56-1.94-8.78-2.66-12.64-.52.16-1,.34-1.43.54-1.95.92-3.51.18-4.66-2.21-.56-2.43.18-4.12,2.21-5.08Z"/>
        <path class="cls-23" d="M299.33,33.44c.8-3.11,2.87-4.38,6.22-3.83,2.91.96,3.87,2.87,2.87,5.74-1.63,5.02-3.01,9.38-4.12,13.09.2-.36,1.2-.92,2.99-1.67,1.79-.76,3.64-.74,5.53.06,1.89.8,3.05,2.32,3.47,4.57.42,2.25.57,4.57.45,6.96-.12,2.27-.08,4.27.12,6.01.2,1.73.76,2.66,1.67,2.78,1.12,0,2.69-.96,4.72-2.87,1.59-1.63,3.43-1.63,5.5,0,1.67,2.19,1.73,4.34.18,6.46-1.12,1.55-2.2,2.83-3.26,3.83-1.06,1-2.3,1.86-3.74,2.6s-3.01,1.11-4.72,1.11c-3.55-.2-5.97-1.67-7.26-4.42-1.3-2.75-1.84-6.38-1.64-10.88.16-2.27.13-4.07-.09-5.41-.22-1.33-1.13-1.8-2.72-1.4-.96.28-1.84.9-2.66,1.85-.82.96-1.45,2.05-1.88,3.29-.44,1.24-.84,2.43-1.2,3.59-.52,2.07-1.38,5.46-2.57,10.16-.64,2.83-2.63,3.95-5.98,3.35-2.43-.92-3.39-2.75-2.87-5.5.56-2.47,1.43-6.02,2.63-10.64,1.2-4.62,2.59-9.75,4.18-15.39,1.59-5.64,2.99-10.11,4.18-13.42Z"/>
      </g>
      <g>
        <path class="cls-23" d="M19.51,56.01c0,3.41.56,5.93,1.69,7.54,1.13,1.62,2.88,2.51,5.25,2.69,3.06,0,6.29-.74,9.67-2.21,3.38-1.47,7.76-3.89,13.14-7.24,3.12-2.25,5.9-1.91,8.32,1.04,2.2,3.47,1.73,6.71-1.39,9.71-2.66,2.08-5.49,4-8.5,5.77-3.01,1.76-6.39,3.31-10.15,4.64-3.76,1.33-7.72,2.05-11.88,2.17-6.76-.12-11.65-2.1-14.65-5.94s-4.51-9.18-4.51-16V14.13c0-4.33,2.17-6.5,6.5-6.5s6.5,2.17,6.5,6.5v41.88Z"/>
        <path class="cls-23" d="M67.72,23.23c0-4.33,2.17-6.5,6.5-6.5h4.42l.95-5.2c.64-3.06,2.89-4.62,6.76-4.68,4.05.23,5.72,2.02,5.03,5.38-.35,1.39-.61,2.89-.78,4.51h4.51c4.33,0,6.5,2.17,6.5,6.5s-2.17,6.59-6.5,6.59h-6.59c-4.11,17.29-6.56,27.66-7.37,31.13-.87,3.41-3.29,4.8-7.28,4.16-3.93-.87-5.43-3.18-4.51-6.94,3.64-13.29,5.95-22.75,6.94-28.35h-2.08c-4.33,0-6.5-2.2-6.5-6.59ZM116.54,38.15v8.5c2.6.92,5.84,2.46,9.71,4.6,2.48,1.85,2.83,4.51,1.04,7.98-2.02,2.83-4.45,3.41-7.28,1.73-.81-.4-1.97-.9-3.47-1.47v5.64c0,4.39-.74,7.7-2.21,9.93-1.47,2.22-3.25,3.73-5.33,4.51s-4.19,1.17-6.33,1.17c-2.78.12-5.51-.32-8.19-1.3-2.69-.98-4.97-2.75-6.85-5.29-1.88-2.54-2.82-6.13-2.82-10.75.06-5.95,1.89-10.62,5.51-14,3.61-3.38,8.6-4.87,14.96-4.47v-6.76c0-3.76,1.88-5.64,5.64-5.64s5.64,1.88,5.64,5.64ZM102.66,68.5c.87-.06,1.52-.49,1.95-1.3.43-.81.65-1.88.65-3.21v-7.37c-3.12-.46-5.49-.09-7.11,1.13s-2.51,2.89-2.69,5.03c-.06,2.14.56,3.67,1.86,4.6,1.3.92,3.08,1.3,5.33,1.13ZM105.96,20.11c1.16-3.99,3.81-5.43,7.98-4.34l7.8,2.08c4.16,1.16,5.67,3.7,4.51,7.63-1.21,3.99-3.9,5.43-8.06,4.33l-7.72-2.08c-4.22-1.1-5.72-3.64-4.51-7.63Z"/>
        <path class="cls-23" d="M145.24,47.08c2.2-2.83,4.91-3.25,8.15-1.26,3.24,1.99,3.76,4.61,1.56,7.85-1.1,1.62-1.65,3.29-1.65,5.03,0,1.16.29,2.15.87,2.99.58.84,1.83,1.49,3.77,1.95,1.94.46,4.96.72,9.06.78,4.68,0,10.26-.35,16.74-1.04,4.51-.69,6.82,1.5,6.94,6.59.12,4.16-2.2,6.59-6.94,7.28-4.16.81-10.38,1.24-18.64,1.3-8.67,0-15.09-1.56-19.25-4.68s-6.21-7.63-6.16-13.53c.12-4.51,1.96-8.93,5.55-13.27ZM178.88,10.92c4.04,0,6.43,1.84,7.15,5.51.72,3.67-1.2,7.18-5.77,10.54l-5.64,4.16c-3.12,1.5-6.1,1.5-8.93,0-2.14-2.66-2.11-4.97.09-6.94h-17.95c-4.39,0-6.59-2.2-6.59-6.59s2.2-6.68,6.59-6.68h31.04Z"/>
      </g>
      <g>
        <path class="cls-23" d="M396.76,39.28c0-4.39,2.2-6.59,6.59-6.59h43.35c4.39,0,6.59,2.2,6.59,6.59s-2.2,6.68-6.59,6.68h-11.45c-.46,6.19-1.94,11.33-4.42,15.43-2.49,4.11-5.56,7.4-9.23,9.88-3.67,2.49-8.66,4.48-14.96,5.98-4.11.87-6.65-.75-7.63-4.86-.87-4.45.64-7.11,4.51-7.98,5.9-1.27,10.22-3.54,12.96-6.81,2.74-3.27,4.32-7.15,4.73-11.66h-17.86c-4.39,0-6.59-2.2-6.59-6.59v-.09ZM399.19,16.91c0-4.39,2.2-6.59,6.59-6.59h38.59c4.39,0,6.59,2.2,6.59,6.59s-2.2,6.68-6.59,6.68h-38.59c-4.39,0-6.59-2.2-6.59-6.59v-.09Z"/>
        <path class="cls-23" d="M507.57,27.4c-1.79,2.77-3.53,5.22-5.2,7.33-1.68,2.11-3.76,4.55-6.24,7.33v32.95c0,3.87-1.94,5.81-5.81,5.81s-5.81-1.94-5.81-5.81v-23.93c-3.82,3.06-8.9,6.19-15.26,9.36-2.95,1.33-5.2.64-6.76-2.08-1.27-4.1-.4-6.85,2.6-8.24,2.95-1.21,6.33-2.98,10.15-5.29,3.81-2.31,7.79-5.51,11.92-9.58,4.13-4.08,7.59-8.57,10.36-13.48,1.56-2.43,4.13-3,7.72-1.73,3.29,2.08,4.08,4.54,2.34,7.37Z"/>
        <path class="cls-23" d="M566.19,61.99c4.51,0,6.76,2.25,6.76,6.76s-2.25,6.85-6.76,6.85h-41.45c-4.51,0-6.76-2.25-6.76-6.76s2.25-6.85,6.76-6.85h41.45ZM519.63,18.9c0-4.51,2.25-6.76,6.76-6.76h37.98c4.51,0,6.76,2.25,6.76,6.76s-2.25,6.85-6.76,6.85h-37.98c-4.51,0-6.76-2.25-6.76-6.76v-.09Z"/>
        <path class="cls-23" d="M591.51,9.27c4.39,0,6.59,2.2,6.59,6.59v4.86h28.53c-.75-1.39-1.13-2.92-1.13-4.6,0-2.66.92-4.94,2.77-6.85,1.85-1.85,4.1-2.77,6.76-2.77s4.93.94,6.81,2.82c1.88,1.88,2.82,4.15,2.82,6.81s-.93,4.91-2.78,6.76c-1.91,1.85-4.19,2.77-6.85,2.77.12.58.17,1.19.17,1.82,0,4.57-2.25,6.85-6.76,6.85h-30.35v22.46c.12,2.2.82,3.95,2.12,5.25,1.3,1.3,3.74,2.04,7.33,2.21,5.09.06,12.14-.23,21.16-.87,4.34-.23,6.65,1.73,6.94,5.9.23,4.34-1.85,6.76-6.24,7.28-10,.75-17.63,1.07-22.89.95-6.36-.29-11.48-1.94-15.35-4.94-3.87-3-5.98-7.83-6.33-14.48V15.86c0-4.39,2.2-6.59,6.59-6.59h.09ZM639.37,16.12c0-1.27-.42-2.31-1.26-3.12-.84-.81-1.86-1.21-3.08-1.21s-2.23.41-3.04,1.21c-.81.81-1.21,1.85-1.21,3.12s.4,2.23,1.21,3.04c.81.81,1.82,1.21,3.04,1.21s2.24-.4,3.08-1.21c.84-.81,1.26-1.82,1.26-3.04Z"/>
        <path class="cls-23" d="M653.59,11.27h14.91c4.51,0,6.76,2.25,6.76,6.76s-2.25,6.76-6.76,6.76h-14.91c-4.51,0-6.76-2.25-6.76-6.76s2.25-6.76,6.76-6.76ZM702.06,34.59c-1.56,5.38-4.58,11.23-9.06,17.56-4.48,6.33-9.34,11.48-14.57,15.43-5.23,3.96-12.96,7.07-23.19,9.32-3.99.75-6.53-1.1-7.63-5.55-.58-4.57,1.27-7.23,5.55-7.98,7.46-1.27,13.35-3.61,17.69-7.02,4.34-3.41,8.19-7.38,11.58-11.92s5.88-9.32,7.5-14.35c1.44-3.53,4.22-4.8,8.32-3.82,3.87,1.79,5.14,4.57,3.82,8.32Z"/>
      </g>
      <g>
        <path class="cls-23" d="M375.45,56.63c-6.01.39-10.12.93-12.34,1.63-2.21.7-4.12,1.66-5.72,2.87-1.6,1.21-2.42,2.79-2.45,4.72.04,1.86.63,3.3,1.79,4.32,1.16,1.02,2.56,1.63,4.19,1.85s3.4.26,5.3.16c2.21,0,5.15-.19,8.81-.58,2.5-.25,3.76,1.02,3.8,3.8.07,2.57-1.05,3.99-3.38,4.27-2.43.42-5.45.61-9.07.58-3.38.03-6.53-.26-9.46-.9-2.94-.63-5.44-2.11-7.52-4.43s-2.99-5.5-2.74-9.54c.21-2.21.69-4.09,1.45-5.62.76-1.53,1.78-2.81,3.08-3.85,1.3-1.04,2.58-1.96,3.85-2.77l-2-11.92c-.21-1.97.86-3.16,3.22-3.59,2.46-.21,3.83.77,4.11,2.95l1.53,10.02c3.09-1.19,7.61-1.92,13.55-2.16,2.21,0,3.34,1.39,3.38,4.17-.04,2.64-1.16,3.97-3.38,4.01Z"/>
        <path class="cls-23" d="M736.27,57.89c-.11-2.78-.72-5.12-1.85-7.04-1.13-1.92-2.85-3.05-5.17-3.4-.11,3.41-.33,6.86-.66,10.34-.33,3.48-.99,6.68-1.98,9.6-.98,2.92-2.21,5.24-3.69,6.96-1.48,1.72-3.34,2.55-5.59,2.48-1.65-.07-3.23-.61-4.72-1.61-1.5-1-2.76-2.66-3.8-4.98-1.04-2.32-1.57-5.47-1.61-9.44.07-3.9.86-7.44,2.37-10.63,1.51-3.18,3.53-5.75,6.06-7.7s5.4-3.08,8.6-3.4c3.45-.25,6.62.26,9.52,1.5,2.9,1.25,5.28,3.37,7.15,6.35,1.86,2.99,2.9,6.8,3.11,11.44.07,3.97-.45,7.38-1.56,10.23s-2.55,5.07-4.32,6.67c-1.78,1.6-3.7,2.68-5.77,3.24-2.46.63-4.1-.19-4.9-2.48-.56-2.5.3-4.09,2.58-4.8,1.02-.25,2.32-1.4,3.9-3.45s2.35-5.35,2.32-9.89ZM717.5,68.49c.81.04,1.48-.65,2.03-2.06.54-1.41.98-3.21,1.32-5.41.33-2.2.58-4.49.74-6.88.16-2.39.22-4.57.18-6.54-1.55.53-2.84,1.53-3.88,3.01-1.04,1.48-1.83,3.14-2.37,4.98-.55,1.85-.85,3.58-.92,5.19-.11,2.64.12,4.56.69,5.77.56,1.21,1.3,1.85,2.21,1.92Z"/>
        <g>
          <path class="cls-23" d="M113.81,117.37c0-3.11,1.55-4.66,4.66-4.66h21.34c7.17,0,10.76,3.59,10.76,10.76v22.24c0,7.17-3.59,10.76-10.76,10.76h-21.34c-3.11,0-4.66-1.55-4.66-4.66s1.55-4.72,4.66-4.72h18.77c2.39,0,3.59-1.2,3.59-3.59v-17.81c0-2.39-1.2-3.59-3.59-3.59h-18.77c-3.11,0-4.66-1.55-4.66-4.66v-.06Z"/>
          <path class="cls-23" d="M159.3,130.41c0-2.95,1.47-4.42,4.42-4.42h26.18c2.75,0,4.79,1.3,6.13,3.89,1.33,2.59,1.29,5.62-.15,9.09-1.51,4.22-3.63,7.55-6.34,9.98-2.71,2.43-5.46,4.34-8.25,5.74-2.79,1.4-6.38,2.53-10.76,3.41-3.19.52-5.1-.76-5.74-3.83-.24-2.87,1.04-4.62,3.83-5.26,3.95-1.16,6.97-2.25,9.09-3.29,2.11-1.04,3.94-2.39,5.47-4.06,1.53-1.67,2.44-3.11,2.72-4.3.44-1.59-.06-2.41-1.49-2.45h-20.68c-2.95,0-4.42-1.47-4.42-4.42v-.06ZM160.98,115.88c0-2.95,1.47-4.42,4.42-4.42h25.58c2.95,0,4.42,1.47,4.42,4.42s-1.47,4.48-4.42,4.48h-25.58c-2.95,0-4.42-1.47-4.42-4.42v-.06Z"/>
          <path class="cls-23" d="M220.27,125.32h-10.52c-3.19,0-4.78-1.59-4.78-4.78s1.59-4.78,4.78-4.78h10.52v-2.87c0-2.95,1.47-4.42,4.42-4.42s4.48,1.47,4.48,4.42v2.87h10.7c3.19,0,4.78,1.59,4.78,4.78s-1.59,4.78-4.78,4.78h-10.7v29.77c0,2.95-1.47,4.42-4.42,4.42s-4.48-1.47-4.48-4.42v-29.77ZM216.33,132.32c-.04,7.05-.74,14.85-2.09,23.37-.48,2.75-2.05,3.95-4.72,3.59-2.71-.28-3.83-1.63-3.35-4.06,1.43-9.05,2.17-16.68,2.21-22.89.08-2.59,1.49-3.88,4.24-3.88,2.39.16,3.63,1.46,3.71,3.88ZM233.18,132.32c.08-2.43,1.32-3.73,3.71-3.88,2.75,0,4.16,1.29,4.24,3.88.04,6.22.78,13.85,2.21,22.89.48,2.43-.64,3.79-3.35,4.06-2.67.36-4.24-.84-4.72-3.59-1.35-8.53-2.05-16.32-2.09-23.37ZM233.9,107.27c0-1.35.68-2.03,2.03-2.03s2.09.68,2.09,2.03v4.54c0,1.36-.68,2.03-2.03,2.03s-2.09-.68-2.09-2.03v-4.54ZM240.36,107.27c0-1.35.68-2.03,2.03-2.03s2.09.68,2.09,2.03v4.54c0,1.36-.68,2.03-2.03,2.03s-2.09-.68-2.09-2.03v-4.54Z"/>
          <path class="cls-23" d="M301.51,116.06h-5.86c-.4,0-.72.18-.96.54-.4.68-.96,1.61-1.67,2.81-.08.12-.09.24-.03.36.06.12.17.18.33.18h5.98c1.43,0,2.66.51,3.68,1.52s1.52,2.24,1.52,3.68v27.86c0,2.07-.25,3.72-.75,4.93-.5,1.21-1.38,2.16-2.66,2.84-1.43.72-3.31,1.17-5.62,1.38h-.54c-1.24,0-2.39-.42-3.47-1.25-1.2-.92-2.07-2.11-2.63-3.59-.04-.16-.08-.32-.12-.48-.16-.36-.44-.54-.84-.54h-13.51c-.24,0-.36.1-.36.3,0,.76-.27,1.4-.81,1.94s-1.19.81-1.94.81h-1.14c-1.08,0-2-.38-2.78-1.14-.78-.76-1.17-1.67-1.17-2.75v-10.52c0-1.43.51-2.66,1.52-3.68s2.24-1.52,3.68-1.52h14.29c1.43,0,2.66.51,3.68,1.52,1.02,1.02,1.52,2.24,1.52,3.68v8.43c0,.4.2.6.6.6.92.04,1.95.06,3.11.06.52,0,.88-.09,1.08-.27.2-.18.3-.47.3-.87v-16.02c0-.12-.05-.2-.15-.24s-.19-.02-.27.06c-.96.84-2.43,1.25-4.42,1.25h-4.18c-2.95,0-4.89-.54-5.83-1.61-.94-1.08-1.41-3.09-1.41-6.04v-2.15c0-.4-.2-.6-.6-.6h-2.45c-.4,0-.62.2-.66.6-.24,2.71-.89,4.91-1.94,6.6-1.06,1.69-2.88,3.06-5.47,4.09-.56.24-1.12.36-1.67.36-.68,0-1.35-.16-2.03-.48-1.24-.6-2.29-1.49-3.17-2.69-.04-.08-.11-.1-.21-.06-.1.04-.15.1-.15.18v21.76c0,1.16-.41,2.14-1.23,2.96-.82.82-1.81,1.23-2.99,1.23s-2.17-.41-2.99-1.23-1.23-1.8-1.23-2.96v-32.76c0-1.43.51-2.66,1.52-3.68s2.24-1.52,3.68-1.52h4.54c.16,0,.28-.06.36-.18.08-.12.1-.26.06-.42-.32-.84-.68-1.75-1.08-2.75-.12-.36-.38-.54-.78-.54h-6.04c-1.08,0-2.01-.39-2.81-1.17-.8-.78-1.2-1.72-1.2-2.84s.4-2.06,1.2-2.84,1.73-1.17,2.81-1.17h17.81c.28,0,.42-.14.42-.42,0-1,.35-1.84,1.05-2.54.7-.7,1.54-1.05,2.54-1.05h2.03c1,0,1.84.35,2.54,1.05.7.7,1.05,1.54,1.05,2.54,0,.28.14.42.42.42h18.47c1.08,0,2.01.39,2.81,1.17.8.78,1.2,1.72,1.2,2.84s-.4,2.06-1.2,2.84c-.8.78-1.73,1.17-2.81,1.17ZM261.94,127.54c-.4,0-.6.2-.6.6v5.08c0,.16.06.29.18.39.12.1.26.13.42.09,2.27-.48,3.84-1.14,4.72-1.97.88-.84,1.39-2.03,1.55-3.59.04-.16,0-.3-.12-.42-.12-.12-.26-.18-.42-.18h-5.74ZM272.76,119.35c.12.4.38.6.78.6h8.73c.4,0,.68-.18.84-.54.52-1,.96-1.91,1.32-2.75.04-.16.02-.3-.06-.42-.08-.12-.2-.18-.36-.18h-12.01c-.12,0-.22.06-.3.18-.08.12-.1.24-.06.36.44.92.82,1.83,1.14,2.75ZM282.32,149.83c.4,0,.6-.2.6-.6v-2.45c0-.4-.2-.6-.6-.6h-7.71c-.4,0-.6.2-.6.6v2.45c0,.4.2.6.6.6h7.71ZM295.47,130.41c.12.04.23.03.33-.03s.15-.17.15-.33v-1.91c0-.4-.2-.6-.6-.6h-7.47c-.4,0-.6.2-.6.6v2.03c0,.68.05,1.1.15,1.25.1.16.37.24.81.24h1.91c.36,0,.62-.1.78-.3.72-1.08,1.45-1.61,2.21-1.61.24,0,.48.04.72.12.52.2,1.06.38,1.61.54Z"/>
          <path class="cls-23" d="M316.99,162.21c-1.16,0-2.14-.41-2.96-1.22-.82-.82-1.22-1.8-1.22-2.96v-18.83c0-1.43.5-2.66,1.49-3.68,1-1.02,2.23-1.52,3.71-1.52h13.87c1.43,0,2.66.51,3.68,1.52,1.02,1.02,1.52,2.24,1.52,3.68v18.35c0,1.23-.43,2.28-1.29,3.14-.86.86-1.9,1.29-3.14,1.29h-2.03c-.68,0-1.25-.23-1.7-.69s-.69-1.03-.69-1.7c0-.2-.1-.3-.3-.3h-6.46c-.2,0-.3.1-.3.3,0,.72-.26,1.33-.78,1.85-.52.52-1.14.78-1.85.78h-1.55ZM353.27,106.38c1.43,0,2.66.51,3.68,1.52s1.52,2.24,1.52,3.68v12.91c0,1.43-.51,2.66-1.52,3.68-1.02,1.02-2.24,1.52-3.68,1.52h-27.14c-1.43,0-2.66-.51-3.68-1.52-1.02-1.02-1.52-2.24-1.52-3.68v-12.91c0-1.43.51-2.66,1.52-3.68,1.02-1.02,2.24-1.52,3.68-1.52h27.14ZM328.23,143.14c0-.4-.2-.6-.6-.6h-5.86c-.4,0-.6.2-.6.6v7.05c0,.4.2.6.6.6h5.86c.4,0,.6-.2.6-.6v-7.05ZM348.79,121.2c.4,0,.6-.2.6-.6v-5.08c0-.4-.2-.6-.6-.6h-18.71c-.4,0-.6.2-.6.6v5.08c0,.4.2.6.6.6h18.71ZM341.44,139.19c0-1.43.51-2.66,1.52-3.68,1.02-1.02,2.24-1.52,3.68-1.52h14.53c1.43,0,2.66.51,3.68,1.52,1.02,1.02,1.52,2.24,1.52,3.68v18.29c0,1.23-.44,2.29-1.32,3.17-.88.88-1.93,1.32-3.17,1.32h-2.09c-.64,0-1.2-.23-1.67-.69-.48-.46-.72-1.03-.72-1.7,0-.2-.1-.3-.3-.3h-6.87c-.2,0-.3.1-.3.3,0,.72-.26,1.33-.78,1.85-.52.52-1.14.78-1.85.78h-1.61c-1.2,0-2.2-.41-3.02-1.22-.82-.82-1.23-1.82-1.23-3.02v-18.77ZM349.93,150.19c0,.4.2.6.6.6h6.28c.4,0,.6-.2.6-.6v-7.05c0-.4-.2-.6-.6-.6h-6.28c-.4,0-.6.2-.6.6v7.05Z"/>
        </g>
        <path class="cls-23" d="M386.58,127.44c1.05-.21,2.07-.39,3.06-.53.03-2.07.05-3.46.05-4.17,0-2.85,1.37-4.25,4.11-4.22,2.85-.07,4.17,1.34,3.96,4.22.03.67,0,1.93-.11,3.8h4.01c2.64,0,4.67.86,6.09,2.58,1.42,1.72,2.28,4.43,2.56,8.12.24,2.67.34,5.41.29,8.23-.05,2.81-.34,5.42-.87,7.83-.53,2.41-1.42,4.35-2.66,5.83s-2.96,2.25-5.14,2.32c-1.16-.04-2.25-.14-3.27-.32-2.43-.53-3.41-2.07-2.95-4.64.46-2.32,1.58-3.45,3.38-3.38.49.07,1.02.09,1.58.05.91-.11,1.54-.98,1.87-2.61s.5-3.61.5-5.93-.07-4.61-.21-6.86c0-1.34-.25-2.19-.74-2.56-.49-.37-1.37-.59-2.64-.66-.42,0-.78.02-1.08.05-.3.04-.69.05-1.19.05-.46,4.85-1.23,9.46-2.32,13.82-1.09,4.36-2.08,7.73-2.95,10.12-.77,2.04-2.46,2.74-5.06,2.11-2.29-.92-3.06-2.39-2.32-4.43.56-1.02,1.37-3.53,2.43-7.54s1.83-8.52,2.32-13.55c-1.13.14-1.92.26-2.37.37-2.18.35-3.32-.97-3.43-3.96.14-2.57,1.18-3.96,3.11-4.17ZM408.78,117.58c0-1.19.6-1.79,1.79-1.79s1.85.6,1.85,1.79v4.01c0,1.2-.6,1.79-1.79,1.79s-1.85-.6-1.85-1.79v-4.01ZM410.89,128.45c-.67-1.69.03-2.95,2.11-3.8,2.18-.49,3.72.14,4.64,1.9,1.4,3.9,2.39,7.7,2.95,11.39.46,2.11-.53,3.45-2.95,4.01-2.43.42-3.83-.49-4.22-2.74-.67-4.01-1.51-7.59-2.53-10.76ZM414.48,117.58c0-1.19.6-1.79,1.79-1.79s1.85.6,1.85,1.79v4.01c0,1.2-.6,1.79-1.79,1.79s-1.85-.6-1.85-1.79v-4.01Z"/>
        <g>
          <path class="cls-23" d="M479.59,131.18c-.12-.04-.24-.03-.36.03-.12.06-.18.15-.18.27v12.25c0,1.16-.41,2.14-1.23,2.96-.82.82-1.8,1.23-2.96,1.23h-.3c.36.08.61.28.75.6.14.32.13.64-.03.96-.84,1.71-1.49,3.01-1.97,3.88-.08.12-.09.24-.03.36.06.12.17.18.33.18h10.04c1,0,1.84.35,2.54,1.05.7.7,1.04,1.54,1.04,2.54s-.35,1.85-1.04,2.57c-.7.72-1.54,1.08-2.54,1.08h-45.43c-1,0-1.84-.36-2.54-1.08-.7-.72-1.05-1.58-1.05-2.57s.35-1.84,1.05-2.54c.7-.7,1.54-1.05,2.54-1.05h9.56c.16,0,.28-.06.36-.18.08-.12.1-.24.06-.36-.28-.84-.64-1.69-1.07-2.57-.24-.56-.24-1.12,0-1.7.24-.58.68-.95,1.31-1.11,0-.04-.02-.06-.06-.06h-.72c-1.44,0-2.66-.51-3.68-1.52-1.02-1.02-1.53-2.24-1.53-3.68v-10.76c0-.12-.06-.21-.18-.27-.12-.06-.24-.05-.36.03-.72.44-1.4.84-2.03,1.2-.72.4-1.43.6-2.15.6-.36,0-.74-.04-1.14-.12-1.12-.28-2.07-.9-2.87-1.85-.48-.6-.72-1.28-.72-2.03,0-.2.02-.4.06-.6.16-1,.68-1.75,1.55-2.27,1.71-.96,3.37-2.03,4.96-3.23.32-.24.34-.5.06-.78-.72-.64-1.54-1.31-2.45-2.03-.72-.52-1.12-1.21-1.2-2.09v-.36c0-.76.28-1.41.84-1.97.68-.72,1.51-1.14,2.51-1.26.2-.04.4-.06.6-.06.76,0,1.47.22,2.15.66,1.12.72,2.07,1.42,2.87,2.09.32.28.62.28.9,0,1.04-1.2,1.99-2.45,2.87-3.77.08-.08.09-.18.03-.3-.06-.12-.17-.18-.33-.18h-6.75c-1,0-1.84-.35-2.54-1.05s-1.05-1.53-1.05-2.51.35-1.81,1.05-2.51c.7-.7,1.54-1.05,2.54-1.05h11.89c.28-.08.58-.12.9-.12.56,0,1.1.12,1.61.36l1.67.9c.84.4,1.41,1.04,1.73,1.91.16.4.24.8.24,1.2,0,.44-.1.9-.3,1.38-1.23,2.67-2.73,5.24-4.48,7.71-.08.08-.1.18-.06.3.04.12.14.18.3.18h11.9c.12,0,.21-.06.27-.18.06-.12.05-.22-.03-.3-1.99-2.79-3.81-5.88-5.44-9.27-.24-.52-.36-1.02-.36-1.49s.12-.96.36-1.43c.44-.96,1.18-1.59,2.21-1.91.44-.12.86-.18,1.26-.18.64,0,1.28.14,1.91.42,1,.48,1.77,1.22,2.33,2.21.24.44.48.86.72,1.25.2.36.44.4.72.12.64-.52,1.25-1.08,1.85-1.67.84-.84,1.83-1.32,2.99-1.43h.48c.96,0,1.85.28,2.69.84.84.64,1.25,1.47,1.25,2.51s-.38,1.79-1.13,2.39c-1.47,1.12-2.85,2.09-4.12,2.93-.36.24-.4.5-.12.78.4.48.82.96,1.26,1.43.28.28.58.28.9,0,.99-.84,1.91-1.65,2.75-2.45.84-.8,1.81-1.25,2.93-1.38h.54c.92,0,1.77.26,2.57.78.88.64,1.31,1.49,1.31,2.57,0,.92-.38,1.67-1.14,2.27-1.23.96-2.45,1.87-3.65,2.75-.12.08-.18.19-.18.33s.06.25.18.33c1.28.88,2.57,1.67,3.89,2.39,1,.52,1.61,1.33,1.85,2.45.04.24.06.5.06.78,0,.8-.26,1.53-.78,2.21-.88,1.08-1.95,1.79-3.23,2.15-.44.12-.88.18-1.32.18-.8,0-1.59-.22-2.39-.66-.32-.2-.62-.4-.9-.6ZM451.07,127.42c-.4,0-.75-.15-1.04-.45s-.45-.67-.45-1.11c0-.04-.02-.06-.06-.06h-.12c-1.36,1.31-2.87,2.61-4.54,3.88-.08.04-.11.11-.09.21.02.1.09.15.21.15h32.22c.08,0,.14-.05.18-.15.04-.1.02-.17-.06-.21-1.79-1.31-3.45-2.73-4.96-4.24h-.12s-.06.02-.06.06c0,.52-.18.97-.54,1.35-.36.38-.8.57-1.32.57h-19.25ZM469.9,137.58c0-.4-.2-.6-.6-.6h-17.63c-.4,0-.6.2-.6.6v2.75c0,.4.2.6.6.6h17.63c.4,0,.6-.2.6-.6v-2.75ZM465.66,153.9v-.06c-.32-.04-.55-.22-.69-.54-.14-.32-.13-.62.03-.9.64-1.32,1.2-2.63,1.67-3.95.04-.12.02-.24-.06-.36-.08-.12-.2-.18-.36-.18h-10.58c-.16,0-.27.05-.33.15-.06.1-.05.21.03.33.52,1,.98,1.97,1.38,2.93.2.52.16,1.03-.12,1.52-.28.5-.68.83-1.2.99-.04,0-.06,0-.06.03s.02.03.06.03h10.22Z"/>
          <path class="cls-23" d="M547.37,135.9h-19.79c-.4,0-.69.18-.87.54-.18.36-.39.72-.63,1.08-.08.12-.09.24-.03.36s.15.18.27.18h18.47c1.39,0,2.59.52,3.59,1.55.84.92,1.26,1.99,1.26,3.23v.42c-.36,4.9-.8,8.61-1.32,11.12s-1.16,4.2-1.91,5.08c-1.08,1.27-2.55,2.05-4.42,2.33-.32.04-.7.08-1.13.12-.16.04-.32.06-.48.06-1.2,0-2.29-.44-3.29-1.32-1.08-.96-1.91-2.19-2.51-3.71-.04-.08-.08-.18-.12-.3-.04-.12-.13-.19-.27-.21-.14-.02-.25.03-.33.15-.88,1.16-1.75,2.21-2.63,3.17-.8.76-1.73,1.14-2.81,1.14h-.06c-1.12,0-2.13-.36-3.05-1.08-.8-.6-1.2-1.4-1.2-2.39,0-.88.36-1.63,1.08-2.27,2.87-2.55,5.36-5.78,7.47-9.68.04-.12.03-.23-.03-.33-.06-.1-.17-.15-.33-.15h-.96c-.36,0-.66.16-.9.48-2.79,4.5-6.32,8.49-10.58,11.96-.76.56-1.57.84-2.45.84h-.54c-1.08-.16-2.03-.62-2.87-1.38-.64-.56-.96-1.24-.96-2.03,0-1,.4-1.77,1.2-2.33,2.83-1.91,5.46-4.28,7.89-7.11.08-.08.09-.17.03-.27-.06-.1-.15-.15-.27-.15h-.96c-.4,0-.74.14-1.02.42-.6.6-1.24,1.2-1.91,1.79-1.04.84-2.19,1.25-3.47,1.25h-.48c-1.47-.12-2.79-.7-3.95-1.73-.12-.08-.22-.18-.3-.3-.32-.24-.66-.26-1.02-.06-2.79,1.4-5.76,2.89-8.91,4.48-.64.28-1.27.42-1.91.42-.52,0-1.05-.1-1.61-.3-1.2-.48-1.99-1.33-2.39-2.57-.2-.52-.3-1.06-.3-1.61,0-.68.14-1.35.42-2.03.6-1.2,1.51-2.01,2.75-2.45.6-.24,1.28-.5,2.03-.78.36-.16.54-.44.54-.84v-15c0-.36-.2-.54-.6-.54h-.84c-1.16,0-2.14-.41-2.96-1.23-.82-.82-1.22-1.8-1.22-2.96s.41-2.15,1.22-2.99,1.8-1.25,2.96-1.25h.84c.4,0,.6-.18.6-.54v-7.05c0-1.16.41-2.13,1.23-2.93.82-.8,1.79-1.2,2.93-1.2s2.1.4,2.9,1.2c.8.8,1.2,1.77,1.2,2.93v7.11c0,.32.18.48.54.48h.42c1.15,0,2.14.42,2.96,1.25.81.84,1.22,1.83,1.22,2.99s-.41,2.14-1.22,2.96c-.82.82-1.8,1.23-2.96,1.23h-.42c-.36,0-.54.18-.54.54v11.78c0,.12.05.21.15.27s.19.07.27.03c.48-.2.94-.3,1.38-.3.52,0,1.02.12,1.49.36.96.48,1.55,1.24,1.79,2.27l.24.9c.04.12.12.2.24.24.12.04.24.02.36-.06,1.67-1.51,3.11-3.11,4.3-4.78.08-.08.09-.18.03-.3-.06-.12-.15-.18-.27-.18h-1.73c-1.04,0-1.91-.36-2.63-1.08-.72-.72-1.08-1.59-1.08-2.63s.36-1.91,1.08-2.63c.72-.72,1.59-1.08,2.63-1.08h31.44c1.04,0,1.91.36,2.63,1.08.72.72,1.08,1.59,1.08,2.63s-.36,1.91-1.08,2.63c-.72.72-1.59,1.08-2.63,1.08ZM541.75,105.48c1.43,0,2.66.51,3.68,1.52s1.52,2.24,1.52,3.68v10.88c0,1.43-.51,2.66-1.52,3.68s-2.24,1.52-3.68,1.52h-19.31c-1.43,0-2.66-.51-3.68-1.52s-1.52-2.24-1.52-3.68v-10.88c0-1.43.51-2.66,1.52-3.68s2.24-1.52,3.68-1.52h19.31ZM538.17,113.31c.4,0,.6-.2.6-.6v-.66c0-.4-.2-.6-.6-.6h-12.49c-.4,0-.6.2-.6.6v.66c0,.4.2.6.6.6h12.49ZM538.17,120.78c.4,0,.6-.2.6-.6v-.66c0-.4-.2-.6-.6-.6h-12.49c-.4,0-.6.2-.6.6v.66c0,.4.2.6.6.6h12.49ZM541.33,145.47c.04-.32-.11-.48-.45-.48s-.57.14-.69.42c-1.28,3.19-2.95,6.3-5.02,9.33-.08.12-.09.24-.03.36.06.12.15.18.27.18.64.04,1.38.06,2.21.06s1.39-.26,1.79-.78c.8-.84,1.44-3.86,1.91-9.08Z"/>
          <path class="cls-23" d="M560.64,150.43c0-1.91.69-3.52,2.06-4.81s3.1-1.94,5.17-1.94,3.8.65,5.17,1.94c1.38,1.29,2.06,2.9,2.06,4.81s-.69,3.56-2.06,4.81c-1.37,1.26-3.1,1.88-5.17,1.88s-3.79-.63-5.17-1.88c-1.38-1.25-2.06-2.86-2.06-4.81ZM563.57,136.32l-1.97-15.54-.18-4.96c-.08-1.43.38-2.66,1.38-3.68.99-1.02,2.19-1.52,3.59-1.52h3.05c1.39,0,2.59.51,3.59,1.52,1,1.02,1.46,2.24,1.38,3.68l-.18,4.96-1.97,15.54c-.16,1.08-.65,1.98-1.46,2.72s-1.77,1.11-2.87,1.11-2.05-.37-2.87-1.11-1.3-1.64-1.46-2.72Z"/>
        </g>
      </g>
    </g>
    <g>
      <g>
        <path class="cls-22" d="M199.63,39.89c0-3.03,1.51-4.54,4.54-4.54h7.77l1.67-4.06c.84-2.35,2.67-3.31,5.5-2.87,2.91.6,4.1,2.19,3.59,4.78l-.9,2.15h12.49c3.03,0,4.54,1.51,4.54,4.54s-1.51,4.6-4.54,4.6h-15.72c-.52,1.2-1.61,3.25-3.29,6.16,1.04-.36,2.1-.68,3.2-.96,1.1-.28,2.16-.48,3.2-.6,4.9-.32,8.86.68,11.87,2.99,3.01,2.31,4.57,5.74,4.69,10.28.04,3.71-1.03,6.98-3.2,9.83-2.17,2.85-5.61,4.61-10.31,5.29-4.7.68-9.92.66-15.66-.06-2.59-.48-3.87-2.15-3.83-5.02.24-2.79,1.67-4.06,4.3-3.83,2.27.2,5.02.32,8.25.36,3.23.04,5.65-.25,7.26-.87,1.61-.62,2.75-1.42,3.41-2.42.66-1,.97-2.11.93-3.35.04-1.63-.59-2.91-1.88-3.83-1.3-.92-3.48-1.25-6.55-1.02-2.95.28-6.2,1.2-9.74,2.75-2.99,1.63-5.22,1.55-6.69-.24-1.32-1.39-1.55-2.99-.72-4.78,2.63-5.34,4.32-8.91,5.08-10.7h-4.72c-3.03,0-4.54-1.51-4.54-4.54v-.06Z"/>
        <path class="cls-22" d="M247.45,48.08c.8-.44,1.65-.82,2.57-1.14-.44-3.15-.72-5.3-.84-6.46-.24-2.35.96-3.69,3.59-4,2.43-.12,3.79,1.04,4.07,3.47.28,1.91.5,3.53.66,4.84.84-.16,1.63-.32,2.39-.48.76-.16,1.59-.3,2.51-.42-.12-1.47-.36-2.85-.72-4.12-.56-1.95.34-3.11,2.69-3.47,2.35-.16,3.71.72,4.06,2.63.64,2.23,1,3.94,1.08,5.14,3.95.44,6.89,1.68,8.85,3.74,1.95,2.05,2.95,4.69,2.99,7.92,0,2.63-.51,4.79-1.52,6.49-1.02,1.69-2.49,3.01-4.42,3.95s-4.53,1.4-7.8,1.4c-2.51-.08-3.73-1.35-3.65-3.83.16-2.55,1.37-3.71,3.65-3.47,1.63.24,3.07.09,4.3-.45,1.23-.54,1.81-1.92,1.73-4.15-.04-.8-.36-1.51-.96-2.15s-1.54-1.14-2.84-1.49c-1.3-.36-3.18-.54-5.65-.54-.8,0-1.69.09-2.69.27s-1.95.43-2.87.75c.96,5.18,1.99,9.84,3.11,13.99,1.12,4.15,1.85,6.81,2.21,8.01.76,1.99-.12,3.49-2.63,4.48-2.51.56-4.14-.32-4.9-2.63-.56-1.35-1.37-4.31-2.42-8.88-1.06-4.56-1.94-8.78-2.66-12.64-.52.16-1,.34-1.43.54-1.95.92-3.51.18-4.66-2.21-.56-2.43.18-4.12,2.21-5.08Z"/>
        <path class="cls-22" d="M299.33,33.44c.8-3.11,2.87-4.38,6.22-3.83,2.91.96,3.87,2.87,2.87,5.74-1.63,5.02-3.01,9.38-4.12,13.09.2-.36,1.2-.92,2.99-1.67,1.79-.76,3.64-.74,5.53.06,1.89.8,3.05,2.32,3.47,4.57.42,2.25.57,4.57.45,6.96-.12,2.27-.08,4.27.12,6.01.2,1.73.76,2.66,1.67,2.78,1.12,0,2.69-.96,4.72-2.87,1.59-1.63,3.43-1.63,5.5,0,1.67,2.19,1.73,4.34.18,6.46-1.12,1.55-2.2,2.83-3.26,3.83-1.06,1-2.3,1.86-3.74,2.6s-3.01,1.11-4.72,1.11c-3.55-.2-5.97-1.67-7.26-4.42-1.3-2.75-1.84-6.38-1.64-10.88.16-2.27.13-4.07-.09-5.41-.22-1.33-1.13-1.8-2.72-1.4-.96.28-1.84.9-2.66,1.85-.82.96-1.45,2.05-1.88,3.29-.44,1.24-.84,2.43-1.2,3.59-.52,2.07-1.38,5.46-2.57,10.16-.64,2.83-2.63,3.95-5.98,3.35-2.43-.92-3.39-2.75-2.87-5.5.56-2.47,1.43-6.02,2.63-10.64,1.2-4.62,2.59-9.75,4.18-15.39,1.59-5.64,2.99-10.11,4.18-13.42Z"/>
      </g>
      <g>
        <path class="cls-22" d="M19.51,56.01c0,3.41.56,5.93,1.69,7.54,1.13,1.62,2.88,2.51,5.25,2.69,3.06,0,6.29-.74,9.67-2.21,3.38-1.47,7.76-3.89,13.14-7.24,3.12-2.25,5.9-1.91,8.32,1.04,2.2,3.47,1.73,6.71-1.39,9.71-2.66,2.08-5.49,4-8.5,5.77-3.01,1.76-6.39,3.31-10.15,4.64-3.76,1.33-7.72,2.05-11.88,2.17-6.76-.12-11.65-2.1-14.65-5.94s-4.51-9.18-4.51-16V14.13c0-4.33,2.17-6.5,6.5-6.5s6.5,2.17,6.5,6.5v41.88Z"/>
        <path class="cls-22" d="M67.72,23.23c0-4.33,2.17-6.5,6.5-6.5h4.42l.95-5.2c.64-3.06,2.89-4.62,6.76-4.68,4.05.23,5.72,2.02,5.03,5.38-.35,1.39-.61,2.89-.78,4.51h4.51c4.33,0,6.5,2.17,6.5,6.5s-2.17,6.59-6.5,6.59h-6.59c-4.11,17.29-6.56,27.66-7.37,31.13-.87,3.41-3.29,4.8-7.28,4.16-3.93-.87-5.43-3.18-4.51-6.94,3.64-13.29,5.95-22.75,6.94-28.35h-2.08c-4.33,0-6.5-2.2-6.5-6.59ZM116.54,38.15v8.5c2.6.92,5.84,2.46,9.71,4.6,2.48,1.85,2.83,4.51,1.04,7.98-2.02,2.83-4.45,3.41-7.28,1.73-.81-.4-1.97-.9-3.47-1.47v5.64c0,4.39-.74,7.7-2.21,9.93-1.47,2.22-3.25,3.73-5.33,4.51s-4.19,1.17-6.33,1.17c-2.78.12-5.51-.32-8.19-1.3-2.69-.98-4.97-2.75-6.85-5.29-1.88-2.54-2.82-6.13-2.82-10.75.06-5.95,1.89-10.62,5.51-14,3.61-3.38,8.6-4.87,14.96-4.47v-6.76c0-3.76,1.88-5.64,5.64-5.64s5.64,1.88,5.64,5.64ZM102.66,68.5c.87-.06,1.52-.49,1.95-1.3.43-.81.65-1.88.65-3.21v-7.37c-3.12-.46-5.49-.09-7.11,1.13s-2.51,2.89-2.69,5.03c-.06,2.14.56,3.67,1.86,4.6,1.3.92,3.08,1.3,5.33,1.13ZM105.96,20.11c1.16-3.99,3.81-5.43,7.98-4.34l7.8,2.08c4.16,1.16,5.67,3.7,4.51,7.63-1.21,3.99-3.9,5.43-8.06,4.33l-7.72-2.08c-4.22-1.1-5.72-3.64-4.51-7.63Z"/>
        <path class="cls-22" d="M145.24,47.08c2.2-2.83,4.91-3.25,8.15-1.26,3.24,1.99,3.76,4.61,1.56,7.85-1.1,1.62-1.65,3.29-1.65,5.03,0,1.16.29,2.15.87,2.99.58.84,1.83,1.49,3.77,1.95,1.94.46,4.96.72,9.06.78,4.68,0,10.26-.35,16.74-1.04,4.51-.69,6.82,1.5,6.94,6.59.12,4.16-2.2,6.59-6.94,7.28-4.16.81-10.38,1.24-18.64,1.3-8.67,0-15.09-1.56-19.25-4.68s-6.21-7.63-6.16-13.53c.12-4.51,1.96-8.93,5.55-13.27ZM178.88,10.92c4.04,0,6.43,1.84,7.15,5.51.72,3.67-1.2,7.18-5.77,10.54l-5.64,4.16c-3.12,1.5-6.1,1.5-8.93,0-2.14-2.66-2.11-4.97.09-6.94h-17.95c-4.39,0-6.59-2.2-6.59-6.59s2.2-6.68,6.59-6.68h31.04Z"/>
      </g>
      <g>
        <path class="cls-22" d="M396.76,39.28c0-4.39,2.2-6.59,6.59-6.59h43.35c4.39,0,6.59,2.2,6.59,6.59s-2.2,6.68-6.59,6.68h-11.45c-.46,6.19-1.94,11.33-4.42,15.43-2.49,4.11-5.56,7.4-9.23,9.88-3.67,2.49-8.66,4.48-14.96,5.98-4.11.87-6.65-.75-7.63-4.86-.87-4.45.64-7.11,4.51-7.98,5.9-1.27,10.22-3.54,12.96-6.81,2.74-3.27,4.32-7.15,4.73-11.66h-17.86c-4.39,0-6.59-2.2-6.59-6.59v-.09ZM399.19,16.91c0-4.39,2.2-6.59,6.59-6.59h38.59c4.39,0,6.59,2.2,6.59,6.59s-2.2,6.68-6.59,6.68h-38.59c-4.39,0-6.59-2.2-6.59-6.59v-.09Z"/>
        <path class="cls-22" d="M507.57,27.4c-1.79,2.77-3.53,5.22-5.2,7.33-1.68,2.11-3.76,4.55-6.24,7.33v32.95c0,3.87-1.94,5.81-5.81,5.81s-5.81-1.94-5.81-5.81v-23.93c-3.82,3.06-8.9,6.19-15.26,9.36-2.95,1.33-5.2.64-6.76-2.08-1.27-4.1-.4-6.85,2.6-8.24,2.95-1.21,6.33-2.98,10.15-5.29,3.81-2.31,7.79-5.51,11.92-9.58,4.13-4.08,7.59-8.57,10.36-13.48,1.56-2.43,4.13-3,7.72-1.73,3.29,2.08,4.08,4.54,2.34,7.37Z"/>
        <path class="cls-22" d="M566.19,61.99c4.51,0,6.76,2.25,6.76,6.76s-2.25,6.85-6.76,6.85h-41.45c-4.51,0-6.76-2.25-6.76-6.76s2.25-6.85,6.76-6.85h41.45ZM519.63,18.9c0-4.51,2.25-6.76,6.76-6.76h37.98c4.51,0,6.76,2.25,6.76,6.76s-2.25,6.85-6.76,6.85h-37.98c-4.51,0-6.76-2.25-6.76-6.76v-.09Z"/>
        <path class="cls-22" d="M591.51,9.27c4.39,0,6.59,2.2,6.59,6.59v4.86h28.53c-.75-1.39-1.13-2.92-1.13-4.6,0-2.66.92-4.94,2.77-6.85,1.85-1.85,4.1-2.77,6.76-2.77s4.93.94,6.81,2.82c1.88,1.88,2.82,4.15,2.82,6.81s-.93,4.91-2.78,6.76c-1.91,1.85-4.19,2.77-6.85,2.77.12.58.17,1.19.17,1.82,0,4.57-2.25,6.85-6.76,6.85h-30.35v22.46c.12,2.2.82,3.95,2.12,5.25,1.3,1.3,3.74,2.04,7.33,2.21,5.09.06,12.14-.23,21.16-.87,4.34-.23,6.65,1.73,6.94,5.9.23,4.34-1.85,6.76-6.24,7.28-10,.75-17.63,1.07-22.89.95-6.36-.29-11.48-1.94-15.35-4.94-3.87-3-5.98-7.83-6.33-14.48V15.86c0-4.39,2.2-6.59,6.59-6.59h.09ZM639.37,16.12c0-1.27-.42-2.31-1.26-3.12-.84-.81-1.86-1.21-3.08-1.21s-2.23.41-3.04,1.21c-.81.81-1.21,1.85-1.21,3.12s.4,2.23,1.21,3.04c.81.81,1.82,1.21,3.04,1.21s2.24-.4,3.08-1.21c.84-.81,1.26-1.82,1.26-3.04Z"/>
        <path class="cls-22" d="M653.59,11.27h14.91c4.51,0,6.76,2.25,6.76,6.76s-2.25,6.76-6.76,6.76h-14.91c-4.51,0-6.76-2.25-6.76-6.76s2.25-6.76,6.76-6.76ZM702.06,34.59c-1.56,5.38-4.58,11.23-9.06,17.56-4.48,6.33-9.34,11.48-14.57,15.43-5.23,3.96-12.96,7.07-23.19,9.32-3.99.75-6.53-1.1-7.63-5.55-.58-4.57,1.27-7.23,5.55-7.98,7.46-1.27,13.35-3.61,17.69-7.02,4.34-3.41,8.19-7.38,11.58-11.92s5.88-9.32,7.5-14.35c1.44-3.53,4.22-4.8,8.32-3.82,3.87,1.79,5.14,4.57,3.82,8.32Z"/>
      </g>
      <g>
        <path class="cls-22" d="M375.45,56.63c-6.01.39-10.12.93-12.34,1.63-2.21.7-4.12,1.66-5.72,2.87-1.6,1.21-2.42,2.79-2.45,4.72.04,1.86.63,3.3,1.79,4.32,1.16,1.02,2.56,1.63,4.19,1.85s3.4.26,5.3.16c2.21,0,5.15-.19,8.81-.58,2.5-.25,3.76,1.02,3.8,3.8.07,2.57-1.05,3.99-3.38,4.27-2.43.42-5.45.61-9.07.58-3.38.03-6.53-.26-9.46-.9-2.94-.63-5.44-2.11-7.52-4.43s-2.99-5.5-2.74-9.54c.21-2.21.69-4.09,1.45-5.62.76-1.53,1.78-2.81,3.08-3.85,1.3-1.04,2.58-1.96,3.85-2.77l-2-11.92c-.21-1.97.86-3.16,3.22-3.59,2.46-.21,3.83.77,4.11,2.95l1.53,10.02c3.09-1.19,7.61-1.92,13.55-2.16,2.21,0,3.34,1.39,3.38,4.17-.04,2.64-1.16,3.97-3.38,4.01Z"/>
        <path class="cls-22" d="M736.27,57.89c-.11-2.78-.72-5.12-1.85-7.04-1.13-1.92-2.85-3.05-5.17-3.4-.11,3.41-.33,6.86-.66,10.34-.33,3.48-.99,6.68-1.98,9.6-.98,2.92-2.21,5.24-3.69,6.96-1.48,1.72-3.34,2.55-5.59,2.48-1.65-.07-3.23-.61-4.72-1.61-1.5-1-2.76-2.66-3.8-4.98-1.04-2.32-1.57-5.47-1.61-9.44.07-3.9.86-7.44,2.37-10.63,1.51-3.18,3.53-5.75,6.06-7.7s5.4-3.08,8.6-3.4c3.45-.25,6.62.26,9.52,1.5,2.9,1.25,5.28,3.37,7.15,6.35,1.86,2.99,2.9,6.8,3.11,11.44.07,3.97-.45,7.38-1.56,10.23s-2.55,5.07-4.32,6.67c-1.78,1.6-3.7,2.68-5.77,3.24-2.46.63-4.1-.19-4.9-2.48-.56-2.5.3-4.09,2.58-4.8,1.02-.25,2.32-1.4,3.9-3.45s2.35-5.35,2.32-9.89ZM717.5,68.49c.81.04,1.48-.65,2.03-2.06.54-1.41.98-3.21,1.32-5.41.33-2.2.58-4.49.74-6.88.16-2.39.22-4.57.18-6.54-1.55.53-2.84,1.53-3.88,3.01-1.04,1.48-1.83,3.14-2.37,4.98-.55,1.85-.85,3.58-.92,5.19-.11,2.64.12,4.56.69,5.77.56,1.21,1.3,1.85,2.21,1.92Z"/>
        <g>
          <path class="cls-22" d="M113.81,117.37c0-3.11,1.55-4.66,4.66-4.66h21.34c7.17,0,10.76,3.59,10.76,10.76v22.24c0,7.17-3.59,10.76-10.76,10.76h-21.34c-3.11,0-4.66-1.55-4.66-4.66s1.55-4.72,4.66-4.72h18.77c2.39,0,3.59-1.2,3.59-3.59v-17.81c0-2.39-1.2-3.59-3.59-3.59h-18.77c-3.11,0-4.66-1.55-4.66-4.66v-.06Z"/>
          <path class="cls-22" d="M159.3,130.41c0-2.95,1.47-4.42,4.42-4.42h26.18c2.75,0,4.79,1.3,6.13,3.89,1.33,2.59,1.29,5.62-.15,9.09-1.51,4.22-3.63,7.55-6.34,9.98-2.71,2.43-5.46,4.34-8.25,5.74-2.79,1.4-6.38,2.53-10.76,3.41-3.19.52-5.1-.76-5.74-3.83-.24-2.87,1.04-4.62,3.83-5.26,3.95-1.16,6.97-2.25,9.09-3.29,2.11-1.04,3.94-2.39,5.47-4.06,1.53-1.67,2.44-3.11,2.72-4.3.44-1.59-.06-2.41-1.49-2.45h-20.68c-2.95,0-4.42-1.47-4.42-4.42v-.06ZM160.98,115.88c0-2.95,1.47-4.42,4.42-4.42h25.58c2.95,0,4.42,1.47,4.42,4.42s-1.47,4.48-4.42,4.48h-25.58c-2.95,0-4.42-1.47-4.42-4.42v-.06Z"/>
          <path class="cls-22" d="M220.27,125.32h-10.52c-3.19,0-4.78-1.59-4.78-4.78s1.59-4.78,4.78-4.78h10.52v-2.87c0-2.95,1.47-4.42,4.42-4.42s4.48,1.47,4.48,4.42v2.87h10.7c3.19,0,4.78,1.59,4.78,4.78s-1.59,4.78-4.78,4.78h-10.7v29.77c0,2.95-1.47,4.42-4.42,4.42s-4.48-1.47-4.48-4.42v-29.77ZM216.33,132.32c-.04,7.05-.74,14.85-2.09,23.37-.48,2.75-2.05,3.95-4.72,3.59-2.71-.28-3.83-1.63-3.35-4.06,1.43-9.05,2.17-16.68,2.21-22.89.08-2.59,1.49-3.88,4.24-3.88,2.39.16,3.63,1.46,3.71,3.88ZM233.18,132.32c.08-2.43,1.32-3.73,3.71-3.88,2.75,0,4.16,1.29,4.24,3.88.04,6.22.78,13.85,2.21,22.89.48,2.43-.64,3.79-3.35,4.06-2.67.36-4.24-.84-4.72-3.59-1.35-8.53-2.05-16.32-2.09-23.37ZM233.9,107.27c0-1.35.68-2.03,2.03-2.03s2.09.68,2.09,2.03v4.54c0,1.36-.68,2.03-2.03,2.03s-2.09-.68-2.09-2.03v-4.54ZM240.36,107.27c0-1.35.68-2.03,2.03-2.03s2.09.68,2.09,2.03v4.54c0,1.36-.68,2.03-2.03,2.03s-2.09-.68-2.09-2.03v-4.54Z"/>
          <path class="cls-22" d="M301.51,116.06h-5.86c-.4,0-.72.18-.96.54-.4.68-.96,1.61-1.67,2.81-.08.12-.09.24-.03.36.06.12.17.18.33.18h5.98c1.43,0,2.66.51,3.68,1.52s1.52,2.24,1.52,3.68v27.86c0,2.07-.25,3.72-.75,4.93-.5,1.21-1.38,2.16-2.66,2.84-1.43.72-3.31,1.17-5.62,1.38h-.54c-1.24,0-2.39-.42-3.47-1.25-1.2-.92-2.07-2.11-2.63-3.59-.04-.16-.08-.32-.12-.48-.16-.36-.44-.54-.84-.54h-13.51c-.24,0-.36.1-.36.3,0,.76-.27,1.4-.81,1.94s-1.19.81-1.94.81h-1.14c-1.08,0-2-.38-2.78-1.14-.78-.76-1.17-1.67-1.17-2.75v-10.52c0-1.43.51-2.66,1.52-3.68s2.24-1.52,3.68-1.52h14.29c1.43,0,2.66.51,3.68,1.52,1.02,1.02,1.52,2.24,1.52,3.68v8.43c0,.4.2.6.6.6.92.04,1.95.06,3.11.06.52,0,.88-.09,1.08-.27.2-.18.3-.47.3-.87v-16.02c0-.12-.05-.2-.15-.24s-.19-.02-.27.06c-.96.84-2.43,1.25-4.42,1.25h-4.18c-2.95,0-4.89-.54-5.83-1.61-.94-1.08-1.41-3.09-1.41-6.04v-2.15c0-.4-.2-.6-.6-.6h-2.45c-.4,0-.62.2-.66.6-.24,2.71-.89,4.91-1.94,6.6-1.06,1.69-2.88,3.06-5.47,4.09-.56.24-1.12.36-1.67.36-.68,0-1.35-.16-2.03-.48-1.24-.6-2.29-1.49-3.17-2.69-.04-.08-.11-.1-.21-.06-.1.04-.15.1-.15.18v21.76c0,1.16-.41,2.14-1.23,2.96-.82.82-1.81,1.23-2.99,1.23s-2.17-.41-2.99-1.23-1.23-1.8-1.23-2.96v-32.76c0-1.43.51-2.66,1.52-3.68s2.24-1.52,3.68-1.52h4.54c.16,0,.28-.06.36-.18.08-.12.1-.26.06-.42-.32-.84-.68-1.75-1.08-2.75-.12-.36-.38-.54-.78-.54h-6.04c-1.08,0-2.01-.39-2.81-1.17-.8-.78-1.2-1.72-1.2-2.84s.4-2.06,1.2-2.84,1.73-1.17,2.81-1.17h17.81c.28,0,.42-.14.42-.42,0-1,.35-1.84,1.05-2.54.7-.7,1.54-1.05,2.54-1.05h2.03c1,0,1.84.35,2.54,1.05.7.7,1.05,1.54,1.05,2.54,0,.28.14.42.42.42h18.47c1.08,0,2.01.39,2.81,1.17.8.78,1.2,1.72,1.2,2.84s-.4,2.06-1.2,2.84c-.8.78-1.73,1.17-2.81,1.17ZM261.94,127.54c-.4,0-.6.2-.6.6v5.08c0,.16.06.29.18.39.12.1.26.13.42.09,2.27-.48,3.84-1.14,4.72-1.97.88-.84,1.39-2.03,1.55-3.59.04-.16,0-.3-.12-.42-.12-.12-.26-.18-.42-.18h-5.74ZM272.76,119.35c.12.4.38.6.78.6h8.73c.4,0,.68-.18.84-.54.52-1,.96-1.91,1.32-2.75.04-.16.02-.3-.06-.42-.08-.12-.2-.18-.36-.18h-12.01c-.12,0-.22.06-.3.18-.08.12-.1.24-.06.36.44.92.82,1.83,1.14,2.75ZM282.32,149.83c.4,0,.6-.2.6-.6v-2.45c0-.4-.2-.6-.6-.6h-7.71c-.4,0-.6.2-.6.6v2.45c0,.4.2.6.6.6h7.71ZM295.47,130.41c.12.04.23.03.33-.03s.15-.17.15-.33v-1.91c0-.4-.2-.6-.6-.6h-7.47c-.4,0-.6.2-.6.6v2.03c0,.68.05,1.1.15,1.25.1.16.37.24.81.24h1.91c.36,0,.62-.1.78-.3.72-1.08,1.45-1.61,2.21-1.61.24,0,.48.04.72.12.52.2,1.06.38,1.61.54Z"/>
          <path class="cls-22" d="M316.99,162.21c-1.16,0-2.14-.41-2.96-1.22-.82-.82-1.22-1.8-1.22-2.96v-18.83c0-1.43.5-2.66,1.49-3.68,1-1.02,2.23-1.52,3.71-1.52h13.87c1.43,0,2.66.51,3.68,1.52,1.02,1.02,1.52,2.24,1.52,3.68v18.35c0,1.23-.43,2.28-1.29,3.14-.86.86-1.9,1.29-3.14,1.29h-2.03c-.68,0-1.25-.23-1.7-.69s-.69-1.03-.69-1.7c0-.2-.1-.3-.3-.3h-6.46c-.2,0-.3.1-.3.3,0,.72-.26,1.33-.78,1.85-.52.52-1.14.78-1.85.78h-1.55ZM353.27,106.38c1.43,0,2.66.51,3.68,1.52s1.52,2.24,1.52,3.68v12.91c0,1.43-.51,2.66-1.52,3.68-1.02,1.02-2.24,1.52-3.68,1.52h-27.14c-1.43,0-2.66-.51-3.68-1.52-1.02-1.02-1.52-2.24-1.52-3.68v-12.91c0-1.43.51-2.66,1.52-3.68,1.02-1.02,2.24-1.52,3.68-1.52h27.14ZM328.23,143.14c0-.4-.2-.6-.6-.6h-5.86c-.4,0-.6.2-.6.6v7.05c0,.4.2.6.6.6h5.86c.4,0,.6-.2.6-.6v-7.05ZM348.79,121.2c.4,0,.6-.2.6-.6v-5.08c0-.4-.2-.6-.6-.6h-18.71c-.4,0-.6.2-.6.6v5.08c0,.4.2.6.6.6h18.71ZM341.44,139.19c0-1.43.51-2.66,1.52-3.68,1.02-1.02,2.24-1.52,3.68-1.52h14.53c1.43,0,2.66.51,3.68,1.52,1.02,1.02,1.52,2.24,1.52,3.68v18.29c0,1.23-.44,2.29-1.32,3.17-.88.88-1.93,1.32-3.17,1.32h-2.09c-.64,0-1.2-.23-1.67-.69-.48-.46-.72-1.03-.72-1.7,0-.2-.1-.3-.3-.3h-6.87c-.2,0-.3.1-.3.3,0,.72-.26,1.33-.78,1.85-.52.52-1.14.78-1.85.78h-1.61c-1.2,0-2.2-.41-3.02-1.22-.82-.82-1.23-1.82-1.23-3.02v-18.77ZM349.93,150.19c0,.4.2.6.6.6h6.28c.4,0,.6-.2.6-.6v-7.05c0-.4-.2-.6-.6-.6h-6.28c-.4,0-.6.2-.6.6v7.05Z"/>
        </g>
        <path class="cls-22" d="M386.58,127.44c1.05-.21,2.07-.39,3.06-.53.03-2.07.05-3.46.05-4.17,0-2.85,1.37-4.25,4.11-4.22,2.85-.07,4.17,1.34,3.96,4.22.03.67,0,1.93-.11,3.8h4.01c2.64,0,4.67.86,6.09,2.58,1.42,1.72,2.28,4.43,2.56,8.12.24,2.67.34,5.41.29,8.23-.05,2.81-.34,5.42-.87,7.83-.53,2.41-1.42,4.35-2.66,5.83s-2.96,2.25-5.14,2.32c-1.16-.04-2.25-.14-3.27-.32-2.43-.53-3.41-2.07-2.95-4.64.46-2.32,1.58-3.45,3.38-3.38.49.07,1.02.09,1.58.05.91-.11,1.54-.98,1.87-2.61s.5-3.61.5-5.93-.07-4.61-.21-6.86c0-1.34-.25-2.19-.74-2.56-.49-.37-1.37-.59-2.64-.66-.42,0-.78.02-1.08.05-.3.04-.69.05-1.19.05-.46,4.85-1.23,9.46-2.32,13.82-1.09,4.36-2.08,7.73-2.95,10.12-.77,2.04-2.46,2.74-5.06,2.11-2.29-.92-3.06-2.39-2.32-4.43.56-1.02,1.37-3.53,2.43-7.54s1.83-8.52,2.32-13.55c-1.13.14-1.92.26-2.37.37-2.18.35-3.32-.97-3.43-3.96.14-2.57,1.18-3.96,3.11-4.17ZM408.78,117.58c0-1.19.6-1.79,1.79-1.79s1.85.6,1.85,1.79v4.01c0,1.2-.6,1.79-1.79,1.79s-1.85-.6-1.85-1.79v-4.01ZM410.89,128.45c-.67-1.69.03-2.95,2.11-3.8,2.18-.49,3.72.14,4.64,1.9,1.4,3.9,2.39,7.7,2.95,11.39.46,2.11-.53,3.45-2.95,4.01-2.43.42-3.83-.49-4.22-2.74-.67-4.01-1.51-7.59-2.53-10.76ZM414.48,117.58c0-1.19.6-1.79,1.79-1.79s1.85.6,1.85,1.79v4.01c0,1.2-.6,1.79-1.79,1.79s-1.85-.6-1.85-1.79v-4.01Z"/>
        <g>
          <path class="cls-22" d="M479.59,131.18c-.12-.04-.24-.03-.36.03-.12.06-.18.15-.18.27v12.25c0,1.16-.41,2.14-1.23,2.96-.82.82-1.8,1.23-2.96,1.23h-.3c.36.08.61.28.75.6.14.32.13.64-.03.96-.84,1.71-1.49,3.01-1.97,3.88-.08.12-.09.24-.03.36.06.12.17.18.33.18h10.04c1,0,1.84.35,2.54,1.05.7.7,1.04,1.54,1.04,2.54s-.35,1.85-1.04,2.57c-.7.72-1.54,1.08-2.54,1.08h-45.43c-1,0-1.84-.36-2.54-1.08-.7-.72-1.05-1.58-1.05-2.57s.35-1.84,1.05-2.54c.7-.7,1.54-1.05,2.54-1.05h9.56c.16,0,.28-.06.36-.18.08-.12.1-.24.06-.36-.28-.84-.64-1.69-1.07-2.57-.24-.56-.24-1.12,0-1.7.24-.58.68-.95,1.31-1.11,0-.04-.02-.06-.06-.06h-.72c-1.44,0-2.66-.51-3.68-1.52-1.02-1.02-1.53-2.24-1.53-3.68v-10.76c0-.12-.06-.21-.18-.27-.12-.06-.24-.05-.36.03-.72.44-1.4.84-2.03,1.2-.72.4-1.43.6-2.15.6-.36,0-.74-.04-1.14-.12-1.12-.28-2.07-.9-2.87-1.85-.48-.6-.72-1.28-.72-2.03,0-.2.02-.4.06-.6.16-1,.68-1.75,1.55-2.27,1.71-.96,3.37-2.03,4.96-3.23.32-.24.34-.5.06-.78-.72-.64-1.54-1.31-2.45-2.03-.72-.52-1.12-1.21-1.2-2.09v-.36c0-.76.28-1.41.84-1.97.68-.72,1.51-1.14,2.51-1.26.2-.04.4-.06.6-.06.76,0,1.47.22,2.15.66,1.12.72,2.07,1.42,2.87,2.09.32.28.62.28.9,0,1.04-1.2,1.99-2.45,2.87-3.77.08-.08.09-.18.03-.3-.06-.12-.17-.18-.33-.18h-6.75c-1,0-1.84-.35-2.54-1.05s-1.05-1.53-1.05-2.51.35-1.81,1.05-2.51c.7-.7,1.54-1.05,2.54-1.05h11.89c.28-.08.58-.12.9-.12.56,0,1.1.12,1.61.36l1.67.9c.84.4,1.41,1.04,1.73,1.91.16.4.24.8.24,1.2,0,.44-.1.9-.3,1.38-1.23,2.67-2.73,5.24-4.48,7.71-.08.08-.1.18-.06.3.04.12.14.18.3.18h11.9c.12,0,.21-.06.27-.18.06-.12.05-.22-.03-.3-1.99-2.79-3.81-5.88-5.44-9.27-.24-.52-.36-1.02-.36-1.49s.12-.96.36-1.43c.44-.96,1.18-1.59,2.21-1.91.44-.12.86-.18,1.26-.18.64,0,1.28.14,1.91.42,1,.48,1.77,1.22,2.33,2.21.24.44.48.86.72,1.25.2.36.44.4.72.12.64-.52,1.25-1.08,1.85-1.67.84-.84,1.83-1.32,2.99-1.43h.48c.96,0,1.85.28,2.69.84.84.64,1.25,1.47,1.25,2.51s-.38,1.79-1.13,2.39c-1.47,1.12-2.85,2.09-4.12,2.93-.36.24-.4.5-.12.78.4.48.82.96,1.26,1.43.28.28.58.28.9,0,.99-.84,1.91-1.65,2.75-2.45.84-.8,1.81-1.25,2.93-1.38h.54c.92,0,1.77.26,2.57.78.88.64,1.31,1.49,1.31,2.57,0,.92-.38,1.67-1.14,2.27-1.23.96-2.45,1.87-3.65,2.75-.12.08-.18.19-.18.33s.06.25.18.33c1.28.88,2.57,1.67,3.89,2.39,1,.52,1.61,1.33,1.85,2.45.04.24.06.5.06.78,0,.8-.26,1.53-.78,2.21-.88,1.08-1.95,1.79-3.23,2.15-.44.12-.88.18-1.32.18-.8,0-1.59-.22-2.39-.66-.32-.2-.62-.4-.9-.6ZM451.07,127.42c-.4,0-.75-.15-1.04-.45s-.45-.67-.45-1.11c0-.04-.02-.06-.06-.06h-.12c-1.36,1.31-2.87,2.61-4.54,3.88-.08.04-.11.11-.09.21.02.1.09.15.21.15h32.22c.08,0,.14-.05.18-.15.04-.1.02-.17-.06-.21-1.79-1.31-3.45-2.73-4.96-4.24h-.12s-.06.02-.06.06c0,.52-.18.97-.54,1.35-.36.38-.8.57-1.32.57h-19.25ZM469.9,137.58c0-.4-.2-.6-.6-.6h-17.63c-.4,0-.6.2-.6.6v2.75c0,.4.2.6.6.6h17.63c.4,0,.6-.2.6-.6v-2.75ZM465.66,153.9v-.06c-.32-.04-.55-.22-.69-.54-.14-.32-.13-.62.03-.9.64-1.32,1.2-2.63,1.67-3.95.04-.12.02-.24-.06-.36-.08-.12-.2-.18-.36-.18h-10.58c-.16,0-.27.05-.33.15-.06.1-.05.21.03.33.52,1,.98,1.97,1.38,2.93.2.52.16,1.03-.12,1.52-.28.5-.68.83-1.2.99-.04,0-.06,0-.06.03s.02.03.06.03h10.22Z"/>
          <path class="cls-22" d="M547.37,135.9h-19.79c-.4,0-.69.18-.87.54-.18.36-.39.72-.63,1.08-.08.12-.09.24-.03.36s.15.18.27.18h18.47c1.39,0,2.59.52,3.59,1.55.84.92,1.26,1.99,1.26,3.23v.42c-.36,4.9-.8,8.61-1.32,11.12s-1.16,4.2-1.91,5.08c-1.08,1.27-2.55,2.05-4.42,2.33-.32.04-.7.08-1.13.12-.16.04-.32.06-.48.06-1.2,0-2.29-.44-3.29-1.32-1.08-.96-1.91-2.19-2.51-3.71-.04-.08-.08-.18-.12-.3-.04-.12-.13-.19-.27-.21-.14-.02-.25.03-.33.15-.88,1.16-1.75,2.21-2.63,3.17-.8.76-1.73,1.14-2.81,1.14h-.06c-1.12,0-2.13-.36-3.05-1.08-.8-.6-1.2-1.4-1.2-2.39,0-.88.36-1.63,1.08-2.27,2.87-2.55,5.36-5.78,7.47-9.68.04-.12.03-.23-.03-.33-.06-.1-.17-.15-.33-.15h-.96c-.36,0-.66.16-.9.48-2.79,4.5-6.32,8.49-10.58,11.96-.76.56-1.57.84-2.45.84h-.54c-1.08-.16-2.03-.62-2.87-1.38-.64-.56-.96-1.24-.96-2.03,0-1,.4-1.77,1.2-2.33,2.83-1.91,5.46-4.28,7.89-7.11.08-.08.09-.17.03-.27-.06-.1-.15-.15-.27-.15h-.96c-.4,0-.74.14-1.02.42-.6.6-1.24,1.2-1.91,1.79-1.04.84-2.19,1.25-3.47,1.25h-.48c-1.47-.12-2.79-.7-3.95-1.73-.12-.08-.22-.18-.3-.3-.32-.24-.66-.26-1.02-.06-2.79,1.4-5.76,2.89-8.91,4.48-.64.28-1.27.42-1.91.42-.52,0-1.05-.1-1.61-.3-1.2-.48-1.99-1.33-2.39-2.57-.2-.52-.3-1.06-.3-1.61,0-.68.14-1.35.42-2.03.6-1.2,1.51-2.01,2.75-2.45.6-.24,1.28-.5,2.03-.78.36-.16.54-.44.54-.84v-15c0-.36-.2-.54-.6-.54h-.84c-1.16,0-2.14-.41-2.96-1.23-.82-.82-1.22-1.8-1.22-2.96s.41-2.15,1.22-2.99,1.8-1.25,2.96-1.25h.84c.4,0,.6-.18.6-.54v-7.05c0-1.16.41-2.13,1.23-2.93.82-.8,1.79-1.2,2.93-1.2s2.1.4,2.9,1.2c.8.8,1.2,1.77,1.2,2.93v7.11c0,.32.18.48.54.48h.42c1.15,0,2.14.42,2.96,1.25.81.84,1.22,1.83,1.22,2.99s-.41,2.14-1.22,2.96c-.82.82-1.8,1.23-2.96,1.23h-.42c-.36,0-.54.18-.54.54v11.78c0,.12.05.21.15.27s.19.07.27.03c.48-.2.94-.3,1.38-.3.52,0,1.02.12,1.49.36.96.48,1.55,1.24,1.79,2.27l.24.9c.04.12.12.2.24.24.12.04.24.02.36-.06,1.67-1.51,3.11-3.11,4.3-4.78.08-.08.09-.18.03-.3-.06-.12-.15-.18-.27-.18h-1.73c-1.04,0-1.91-.36-2.63-1.08-.72-.72-1.08-1.59-1.08-2.63s.36-1.91,1.08-2.63c.72-.72,1.59-1.08,2.63-1.08h31.44c1.04,0,1.91.36,2.63,1.08.72.72,1.08,1.59,1.08,2.63s-.36,1.91-1.08,2.63c-.72.72-1.59,1.08-2.63,1.08ZM541.75,105.48c1.43,0,2.66.51,3.68,1.52s1.52,2.24,1.52,3.68v10.88c0,1.43-.51,2.66-1.52,3.68s-2.24,1.52-3.68,1.52h-19.31c-1.43,0-2.66-.51-3.68-1.52s-1.52-2.24-1.52-3.68v-10.88c0-1.43.51-2.66,1.52-3.68s2.24-1.52,3.68-1.52h19.31ZM538.17,113.31c.4,0,.6-.2.6-.6v-.66c0-.4-.2-.6-.6-.6h-12.49c-.4,0-.6.2-.6.6v.66c0,.4.2.6.6.6h12.49ZM538.17,120.78c.4,0,.6-.2.6-.6v-.66c0-.4-.2-.6-.6-.6h-12.49c-.4,0-.6.2-.6.6v.66c0,.4.2.6.6.6h12.49ZM541.33,145.47c.04-.32-.11-.48-.45-.48s-.57.14-.69.42c-1.28,3.19-2.95,6.3-5.02,9.33-.08.12-.09.24-.03.36.06.12.15.18.27.18.64.04,1.38.06,2.21.06s1.39-.26,1.79-.78c.8-.84,1.44-3.86,1.91-9.08Z"/>
          <path class="cls-22" d="M560.64,150.43c0-1.91.69-3.52,2.06-4.81s3.1-1.94,5.17-1.94,3.8.65,5.17,1.94c1.38,1.29,2.06,2.9,2.06,4.81s-.69,3.56-2.06,4.81c-1.37,1.26-3.1,1.88-5.17,1.88s-3.79-.63-5.17-1.88c-1.38-1.25-2.06-2.86-2.06-4.81ZM563.57,136.32l-1.97-15.54-.18-4.96c-.08-1.43.38-2.66,1.38-3.68.99-1.02,2.19-1.52,3.59-1.52h3.05c1.39,0,2.59.51,3.59,1.52,1,1.02,1.46,2.24,1.38,3.68l-.18,4.96-1.97,15.54c-.16,1.08-.65,1.98-1.46,2.72s-1.77,1.11-2.87,1.11-2.05-.37-2.87-1.11-1.3-1.64-1.46-2.72Z"/>
        </g>
      </g>
    </g>
    <g>
      <g>
        <path class="cls-24" d="M199.63,39.89c0-3.03,1.51-4.54,4.54-4.54h7.77l1.67-4.06c.84-2.35,2.67-3.31,5.5-2.87,2.91.6,4.1,2.19,3.59,4.78l-.9,2.15h12.49c3.03,0,4.54,1.51,4.54,4.54s-1.51,4.6-4.54,4.6h-15.72c-.52,1.2-1.61,3.25-3.29,6.16,1.04-.36,2.1-.68,3.2-.96,1.1-.28,2.16-.48,3.2-.6,4.9-.32,8.86.68,11.87,2.99,3.01,2.31,4.57,5.74,4.69,10.28.04,3.71-1.03,6.98-3.2,9.83-2.17,2.85-5.61,4.61-10.31,5.29-4.7.68-9.92.66-15.66-.06-2.59-.48-3.87-2.15-3.83-5.02.24-2.79,1.67-4.06,4.3-3.83,2.27.2,5.02.32,8.25.36,3.23.04,5.65-.25,7.26-.87,1.61-.62,2.75-1.42,3.41-2.42.66-1,.97-2.11.93-3.35.04-1.63-.59-2.91-1.88-3.83-1.3-.92-3.48-1.25-6.55-1.02-2.95.28-6.2,1.2-9.74,2.75-2.99,1.63-5.22,1.55-6.69-.24-1.32-1.39-1.55-2.99-.72-4.78,2.63-5.34,4.32-8.91,5.08-10.7h-4.72c-3.03,0-4.54-1.51-4.54-4.54v-.06Z"/>
        <path class="cls-7" d="M247.45,48.08c.8-.44,1.65-.82,2.57-1.14-.44-3.15-.72-5.3-.84-6.46-.24-2.35.96-3.69,3.59-4,2.43-.12,3.79,1.04,4.07,3.47.28,1.91.5,3.53.66,4.84.84-.16,1.63-.32,2.39-.48.76-.16,1.59-.3,2.51-.42-.12-1.47-.36-2.85-.72-4.12-.56-1.95.34-3.11,2.69-3.47,2.35-.16,3.71.72,4.06,2.63.64,2.23,1,3.94,1.08,5.14,3.95.44,6.89,1.68,8.85,3.74,1.95,2.05,2.95,4.69,2.99,7.92,0,2.63-.51,4.79-1.52,6.49-1.02,1.69-2.49,3.01-4.42,3.95s-4.53,1.4-7.8,1.4c-2.51-.08-3.73-1.35-3.65-3.83.16-2.55,1.37-3.71,3.65-3.47,1.63.24,3.07.09,4.3-.45,1.23-.54,1.81-1.92,1.73-4.15-.04-.8-.36-1.51-.96-2.15s-1.54-1.14-2.84-1.49c-1.3-.36-3.18-.54-5.65-.54-.8,0-1.69.09-2.69.27s-1.95.43-2.87.75c.96,5.18,1.99,9.84,3.11,13.99,1.12,4.15,1.85,6.81,2.21,8.01.76,1.99-.12,3.49-2.63,4.48-2.51.56-4.14-.32-4.9-2.63-.56-1.35-1.37-4.31-2.42-8.88-1.06-4.56-1.94-8.78-2.66-12.64-.52.16-1,.34-1.43.54-1.95.92-3.51.18-4.66-2.21-.56-2.43.18-4.12,2.21-5.08Z"/>
        <path class="cls-8" d="M299.33,33.44c.8-3.11,2.87-4.38,6.22-3.83,2.91.96,3.87,2.87,2.87,5.74-1.63,5.02-3.01,9.38-4.12,13.09.2-.36,1.2-.92,2.99-1.67,1.79-.76,3.64-.74,5.53.06,1.89.8,3.05,2.32,3.47,4.57.42,2.25.57,4.57.45,6.96-.12,2.27-.08,4.27.12,6.01.2,1.73.76,2.66,1.67,2.78,1.12,0,2.69-.96,4.72-2.87,1.59-1.63,3.43-1.63,5.5,0,1.67,2.19,1.73,4.34.18,6.46-1.12,1.55-2.2,2.83-3.26,3.83-1.06,1-2.3,1.86-3.74,2.6s-3.01,1.11-4.72,1.11c-3.55-.2-5.97-1.67-7.26-4.42-1.3-2.75-1.84-6.38-1.64-10.88.16-2.27.13-4.07-.09-5.41-.22-1.33-1.13-1.8-2.72-1.4-.96.28-1.84.9-2.66,1.85-.82.96-1.45,2.05-1.88,3.29-.44,1.24-.84,2.43-1.2,3.59-.52,2.07-1.38,5.46-2.57,10.16-.64,2.83-2.63,3.95-5.98,3.35-2.43-.92-3.39-2.75-2.87-5.5.56-2.47,1.43-6.02,2.63-10.64,1.2-4.62,2.59-9.75,4.18-15.39,1.59-5.64,2.99-10.11,4.18-13.42Z"/>
      </g>
      <g>
        <path class="cls-5" d="M19.51,56.01c0,3.41.56,5.93,1.69,7.54,1.13,1.62,2.88,2.51,5.25,2.69,3.06,0,6.29-.74,9.67-2.21,3.38-1.47,7.76-3.89,13.14-7.24,3.12-2.25,5.9-1.91,8.32,1.04,2.2,3.47,1.73,6.71-1.39,9.71-2.66,2.08-5.49,4-8.5,5.77-3.01,1.76-6.39,3.31-10.15,4.64-3.76,1.33-7.72,2.05-11.88,2.17-6.76-.12-11.65-2.1-14.65-5.94s-4.51-9.18-4.51-16V14.13c0-4.33,2.17-6.5,6.5-6.5s6.5,2.17,6.5,6.5v41.88Z"/>
        <path class="cls-6" d="M67.72,23.23c0-4.33,2.17-6.5,6.5-6.5h4.42l.95-5.2c.64-3.06,2.89-4.62,6.76-4.68,4.05.23,5.72,2.02,5.03,5.38-.35,1.39-.61,2.89-.78,4.51h4.51c4.33,0,6.5,2.17,6.5,6.5s-2.17,6.59-6.5,6.59h-6.59c-4.11,17.29-6.56,27.66-7.37,31.13-.87,3.41-3.29,4.8-7.28,4.16-3.93-.87-5.43-3.18-4.51-6.94,3.64-13.29,5.95-22.75,6.94-28.35h-2.08c-4.33,0-6.5-2.2-6.5-6.59ZM116.54,38.15v8.5c2.6.92,5.84,2.46,9.71,4.6,2.48,1.85,2.83,4.51,1.04,7.98-2.02,2.83-4.45,3.41-7.28,1.73-.81-.4-1.97-.9-3.47-1.47v5.64c0,4.39-.74,7.7-2.21,9.93-1.47,2.22-3.25,3.73-5.33,4.51s-4.19,1.17-6.33,1.17c-2.78.12-5.51-.32-8.19-1.3-2.69-.98-4.97-2.75-6.85-5.29-1.88-2.54-2.82-6.13-2.82-10.75.06-5.95,1.89-10.62,5.51-14,3.61-3.38,8.6-4.87,14.96-4.47v-6.76c0-3.76,1.88-5.64,5.64-5.64s5.64,1.88,5.64,5.64ZM102.66,68.5c.87-.06,1.52-.49,1.95-1.3.43-.81.65-1.88.65-3.21v-7.37c-3.12-.46-5.49-.09-7.11,1.13s-2.51,2.89-2.69,5.03c-.06,2.14.56,3.67,1.86,4.6,1.3.92,3.08,1.3,5.33,1.13ZM105.96,20.11c1.16-3.99,3.81-5.43,7.98-4.34l7.8,2.08c4.16,1.16,5.67,3.7,4.51,7.63-1.21,3.99-3.9,5.43-8.06,4.33l-7.72-2.08c-4.22-1.1-5.72-3.64-4.51-7.63Z"/>
        <path class="cls-1" d="M145.24,47.08c2.2-2.83,4.91-3.25,8.15-1.26,3.24,1.99,3.76,4.61,1.56,7.85-1.1,1.62-1.65,3.29-1.65,5.03,0,1.16.29,2.15.87,2.99.58.84,1.83,1.49,3.77,1.95,1.94.46,4.96.72,9.06.78,4.68,0,10.26-.35,16.74-1.04,4.51-.69,6.82,1.5,6.94,6.59.12,4.16-2.2,6.59-6.94,7.28-4.16.81-10.38,1.24-18.64,1.3-8.67,0-15.09-1.56-19.25-4.68s-6.21-7.63-6.16-13.53c.12-4.51,1.96-8.93,5.55-13.27ZM178.88,10.92c4.04,0,6.43,1.84,7.15,5.51.72,3.67-1.2,7.18-5.77,10.54l-5.64,4.16c-3.12,1.5-6.1,1.5-8.93,0-2.14-2.66-2.11-4.97.09-6.94h-17.95c-4.39,0-6.59-2.2-6.59-6.59s2.2-6.68,6.59-6.68h31.04Z"/>
      </g>
      <g>
        <path class="cls-4" d="M396.76,39.28c0-4.39,2.2-6.59,6.59-6.59h43.35c4.39,0,6.59,2.2,6.59,6.59s-2.2,6.68-6.59,6.68h-11.45c-.46,6.19-1.94,11.33-4.42,15.43-2.49,4.11-5.56,7.4-9.23,9.88-3.67,2.49-8.66,4.48-14.96,5.98-4.11.87-6.65-.75-7.63-4.86-.87-4.45.64-7.11,4.51-7.98,5.9-1.27,10.22-3.54,12.96-6.81,2.74-3.27,4.32-7.15,4.73-11.66h-17.86c-4.39,0-6.59-2.2-6.59-6.59v-.09ZM399.19,16.91c0-4.39,2.2-6.59,6.59-6.59h38.59c4.39,0,6.59,2.2,6.59,6.59s-2.2,6.68-6.59,6.68h-38.59c-4.39,0-6.59-2.2-6.59-6.59v-.09Z"/>
        <path class="cls-2" d="M507.57,27.4c-1.79,2.77-3.53,5.22-5.2,7.33-1.68,2.11-3.76,4.55-6.24,7.33v32.95c0,3.87-1.94,5.81-5.81,5.81s-5.81-1.94-5.81-5.81v-23.93c-3.82,3.06-8.9,6.19-15.26,9.36-2.95,1.33-5.2.64-6.76-2.08-1.27-4.1-.4-6.85,2.6-8.24,2.95-1.21,6.33-2.98,10.15-5.29,3.81-2.31,7.79-5.51,11.92-9.58,4.13-4.08,7.59-8.57,10.36-13.48,1.56-2.43,4.13-3,7.72-1.73,3.29,2.08,4.08,4.54,2.34,7.37Z"/>
        <path class="cls-3" d="M566.19,61.99c4.51,0,6.76,2.25,6.76,6.76s-2.25,6.85-6.76,6.85h-41.45c-4.51,0-6.76-2.25-6.76-6.76s2.25-6.85,6.76-6.85h41.45ZM519.63,18.9c0-4.51,2.25-6.76,6.76-6.76h37.98c4.51,0,6.76,2.25,6.76,6.76s-2.25,6.85-6.76,6.85h-37.98c-4.51,0-6.76-2.25-6.76-6.76v-.09Z"/>
        <path class="cls-14" d="M591.51,9.27c4.39,0,6.59,2.2,6.59,6.59v4.86h28.53c-.75-1.39-1.13-2.92-1.13-4.6,0-2.66.92-4.94,2.77-6.85,1.85-1.85,4.1-2.77,6.76-2.77s4.93.94,6.81,2.82c1.88,1.88,2.82,4.15,2.82,6.81s-.93,4.91-2.78,6.76c-1.91,1.85-4.19,2.77-6.85,2.77.12.58.17,1.19.17,1.82,0,4.57-2.25,6.85-6.76,6.85h-30.35v22.46c.12,2.2.82,3.95,2.12,5.25,1.3,1.3,3.74,2.04,7.33,2.21,5.09.06,12.14-.23,21.16-.87,4.34-.23,6.65,1.73,6.94,5.9.23,4.34-1.85,6.76-6.24,7.28-10,.75-17.63,1.07-22.89.95-6.36-.29-11.48-1.94-15.35-4.94-3.87-3-5.98-7.83-6.33-14.48V15.86c0-4.39,2.2-6.59,6.59-6.59h.09ZM639.37,16.12c0-1.27-.42-2.31-1.26-3.12-.84-.81-1.86-1.21-3.08-1.21s-2.23.41-3.04,1.21c-.81.81-1.21,1.85-1.21,3.12s.4,2.23,1.21,3.04c.81.81,1.82,1.21,3.04,1.21s2.24-.4,3.08-1.21c.84-.81,1.26-1.82,1.26-3.04Z"/>
        <path class="cls-15" d="M653.59,11.27h14.91c4.51,0,6.76,2.25,6.76,6.76s-2.25,6.76-6.76,6.76h-14.91c-4.51,0-6.76-2.25-6.76-6.76s2.25-6.76,6.76-6.76ZM702.06,34.59c-1.56,5.38-4.58,11.23-9.06,17.56-4.48,6.33-9.34,11.48-14.57,15.43-5.23,3.96-12.96,7.07-23.19,9.32-3.99.75-6.53-1.1-7.63-5.55-.58-4.57,1.27-7.23,5.55-7.98,7.46-1.27,13.35-3.61,17.69-7.02,4.34-3.41,8.19-7.38,11.58-11.92s5.88-9.32,7.5-14.35c1.44-3.53,4.22-4.8,8.32-3.82,3.87,1.79,5.14,4.57,3.82,8.32Z"/>
      </g>
      <g>
        <path class="cls-13" d="M375.45,56.63c-6.01.39-10.12.93-12.34,1.63-2.21.7-4.12,1.66-5.72,2.87-1.6,1.21-2.42,2.79-2.45,4.72.04,1.86.63,3.3,1.79,4.32,1.16,1.02,2.56,1.63,4.19,1.85s3.4.26,5.3.16c2.21,0,5.15-.19,8.81-.58,2.5-.25,3.76,1.02,3.8,3.8.07,2.57-1.05,3.99-3.38,4.27-2.43.42-5.45.61-9.07.58-3.38.03-6.53-.26-9.46-.9-2.94-.63-5.44-2.11-7.52-4.43s-2.99-5.5-2.74-9.54c.21-2.21.69-4.09,1.45-5.62.76-1.53,1.78-2.81,3.08-3.85,1.3-1.04,2.58-1.96,3.85-2.77l-2-11.92c-.21-1.97.86-3.16,3.22-3.59,2.46-.21,3.83.77,4.11,2.95l1.53,10.02c3.09-1.19,7.61-1.92,13.55-2.16,2.21,0,3.34,1.39,3.38,4.17-.04,2.64-1.16,3.97-3.38,4.01Z"/>
        <path class="cls-12" d="M736.27,57.89c-.11-2.78-.72-5.12-1.85-7.04-1.13-1.92-2.85-3.05-5.17-3.4-.11,3.41-.33,6.86-.66,10.34-.33,3.48-.99,6.68-1.98,9.6-.98,2.92-2.21,5.24-3.69,6.96-1.48,1.72-3.34,2.55-5.59,2.48-1.65-.07-3.23-.61-4.72-1.61-1.5-1-2.76-2.66-3.8-4.98-1.04-2.32-1.57-5.47-1.61-9.44.07-3.9.86-7.44,2.37-10.63,1.51-3.18,3.53-5.75,6.06-7.7s5.4-3.08,8.6-3.4c3.45-.25,6.62.26,9.52,1.5,2.9,1.25,5.28,3.37,7.15,6.35,1.86,2.99,2.9,6.8,3.11,11.44.07,3.97-.45,7.38-1.56,10.23s-2.55,5.07-4.32,6.67c-1.78,1.6-3.7,2.68-5.77,3.24-2.46.63-4.1-.19-4.9-2.48-.56-2.5.3-4.09,2.58-4.8,1.02-.25,2.32-1.4,3.9-3.45s2.35-5.35,2.32-9.89ZM717.5,68.49c.81.04,1.48-.65,2.03-2.06.54-1.41.98-3.21,1.32-5.41.33-2.2.58-4.49.74-6.88.16-2.39.22-4.57.18-6.54-1.55.53-2.84,1.53-3.88,3.01-1.04,1.48-1.83,3.14-2.37,4.98-.55,1.85-.85,3.58-.92,5.19-.11,2.64.12,4.56.69,5.77.56,1.21,1.3,1.85,2.21,1.92Z"/>
        <g>
          <path class="cls-18" d="M113.81,117.37c0-3.11,1.55-4.66,4.66-4.66h21.34c7.17,0,10.76,3.59,10.76,10.76v22.24c0,7.17-3.59,10.76-10.76,10.76h-21.34c-3.11,0-4.66-1.55-4.66-4.66s1.55-4.72,4.66-4.72h18.77c2.39,0,3.59-1.2,3.59-3.59v-17.81c0-2.39-1.2-3.59-3.59-3.59h-18.77c-3.11,0-4.66-1.55-4.66-4.66v-.06Z"/>
          <path class="cls-10" d="M159.3,130.41c0-2.95,1.47-4.42,4.42-4.42h26.18c2.75,0,4.79,1.3,6.13,3.89,1.33,2.59,1.29,5.62-.15,9.09-1.51,4.22-3.63,7.55-6.34,9.98-2.71,2.43-5.46,4.34-8.25,5.74-2.79,1.4-6.38,2.53-10.76,3.41-3.19.52-5.1-.76-5.74-3.83-.24-2.87,1.04-4.62,3.83-5.26,3.95-1.16,6.97-2.25,9.09-3.29,2.11-1.04,3.94-2.39,5.47-4.06,1.53-1.67,2.44-3.11,2.72-4.3.44-1.59-.06-2.41-1.49-2.45h-20.68c-2.95,0-4.42-1.47-4.42-4.42v-.06ZM160.98,115.88c0-2.95,1.47-4.42,4.42-4.42h25.58c2.95,0,4.42,1.47,4.42,4.42s-1.47,4.48-4.42,4.48h-25.58c-2.95,0-4.42-1.47-4.42-4.42v-.06Z"/>
          <path class="cls-16" d="M220.27,125.32h-10.52c-3.19,0-4.78-1.59-4.78-4.78s1.59-4.78,4.78-4.78h10.52v-2.87c0-2.95,1.47-4.42,4.42-4.42s4.48,1.47,4.48,4.42v2.87h10.7c3.19,0,4.78,1.59,4.78,4.78s-1.59,4.78-4.78,4.78h-10.7v29.77c0,2.95-1.47,4.42-4.42,4.42s-4.48-1.47-4.48-4.42v-29.77ZM216.33,132.32c-.04,7.05-.74,14.85-2.09,23.37-.48,2.75-2.05,3.95-4.72,3.59-2.71-.28-3.83-1.63-3.35-4.06,1.43-9.05,2.17-16.68,2.21-22.89.08-2.59,1.49-3.88,4.24-3.88,2.39.16,3.63,1.46,3.71,3.88ZM233.18,132.32c.08-2.43,1.32-3.73,3.71-3.88,2.75,0,4.16,1.29,4.24,3.88.04,6.22.78,13.85,2.21,22.89.48,2.43-.64,3.79-3.35,4.06-2.67.36-4.24-.84-4.72-3.59-1.35-8.53-2.05-16.32-2.09-23.37ZM233.9,107.27c0-1.35.68-2.03,2.03-2.03s2.09.68,2.09,2.03v4.54c0,1.36-.68,2.03-2.03,2.03s-2.09-.68-2.09-2.03v-4.54ZM240.36,107.27c0-1.35.68-2.03,2.03-2.03s2.09.68,2.09,2.03v4.54c0,1.36-.68,2.03-2.03,2.03s-2.09-.68-2.09-2.03v-4.54Z"/>
          <path class="cls-17" d="M301.51,116.06h-5.86c-.4,0-.72.18-.96.54-.4.68-.96,1.61-1.67,2.81-.08.12-.09.24-.03.36.06.12.17.18.33.18h5.98c1.43,0,2.66.51,3.68,1.52s1.52,2.24,1.52,3.68v27.86c0,2.07-.25,3.72-.75,4.93-.5,1.21-1.38,2.16-2.66,2.84-1.43.72-3.31,1.17-5.62,1.38h-.54c-1.24,0-2.39-.42-3.47-1.25-1.2-.92-2.07-2.11-2.63-3.59-.04-.16-.08-.32-.12-.48-.16-.36-.44-.54-.84-.54h-13.51c-.24,0-.36.1-.36.3,0,.76-.27,1.4-.81,1.94s-1.19.81-1.94.81h-1.14c-1.08,0-2-.38-2.78-1.14-.78-.76-1.17-1.67-1.17-2.75v-10.52c0-1.43.51-2.66,1.52-3.68s2.24-1.52,3.68-1.52h14.29c1.43,0,2.66.51,3.68,1.52,1.02,1.02,1.52,2.24,1.52,3.68v8.43c0,.4.2.6.6.6.92.04,1.95.06,3.11.06.52,0,.88-.09,1.08-.27.2-.18.3-.47.3-.87v-16.02c0-.12-.05-.2-.15-.24s-.19-.02-.27.06c-.96.84-2.43,1.25-4.42,1.25h-4.18c-2.95,0-4.89-.54-5.83-1.61-.94-1.08-1.41-3.09-1.41-6.04v-2.15c0-.4-.2-.6-.6-.6h-2.45c-.4,0-.62.2-.66.6-.24,2.71-.89,4.91-1.94,6.6-1.06,1.69-2.88,3.06-5.47,4.09-.56.24-1.12.36-1.67.36-.68,0-1.35-.16-2.03-.48-1.24-.6-2.29-1.49-3.17-2.69-.04-.08-.11-.1-.21-.06-.1.04-.15.1-.15.18v21.76c0,1.16-.41,2.14-1.23,2.96-.82.82-1.81,1.23-2.99,1.23s-2.17-.41-2.99-1.23-1.23-1.8-1.23-2.96v-32.76c0-1.43.51-2.66,1.52-3.68s2.24-1.52,3.68-1.52h4.54c.16,0,.28-.06.36-.18.08-.12.1-.26.06-.42-.32-.84-.68-1.75-1.08-2.75-.12-.36-.38-.54-.78-.54h-6.04c-1.08,0-2.01-.39-2.81-1.17-.8-.78-1.2-1.72-1.2-2.84s.4-2.06,1.2-2.84,1.73-1.17,2.81-1.17h17.81c.28,0,.42-.14.42-.42,0-1,.35-1.84,1.05-2.54.7-.7,1.54-1.05,2.54-1.05h2.03c1,0,1.84.35,2.54,1.05.7.7,1.05,1.54,1.05,2.54,0,.28.14.42.42.42h18.47c1.08,0,2.01.39,2.81,1.17.8.78,1.2,1.72,1.2,2.84s-.4,2.06-1.2,2.84c-.8.78-1.73,1.17-2.81,1.17ZM261.94,127.54c-.4,0-.6.2-.6.6v5.08c0,.16.06.29.18.39.12.1.26.13.42.09,2.27-.48,3.84-1.14,4.72-1.97.88-.84,1.39-2.03,1.55-3.59.04-.16,0-.3-.12-.42-.12-.12-.26-.18-.42-.18h-5.74ZM272.76,119.35c.12.4.38.6.78.6h8.73c.4,0,.68-.18.84-.54.52-1,.96-1.91,1.32-2.75.04-.16.02-.3-.06-.42-.08-.12-.2-.18-.36-.18h-12.01c-.12,0-.22.06-.3.18-.08.12-.1.24-.06.36.44.92.82,1.83,1.14,2.75ZM282.32,149.83c.4,0,.6-.2.6-.6v-2.45c0-.4-.2-.6-.6-.6h-7.71c-.4,0-.6.2-.6.6v2.45c0,.4.2.6.6.6h7.71ZM295.47,130.41c.12.04.23.03.33-.03s.15-.17.15-.33v-1.91c0-.4-.2-.6-.6-.6h-7.47c-.4,0-.6.2-.6.6v2.03c0,.68.05,1.1.15,1.25.1.16.37.24.81.24h1.91c.36,0,.62-.1.78-.3.72-1.08,1.45-1.61,2.21-1.61.24,0,.48.04.72.12.52.2,1.06.38,1.61.54Z"/>
          <path class="cls-9" d="M316.99,162.21c-1.16,0-2.14-.41-2.96-1.22-.82-.82-1.22-1.8-1.22-2.96v-18.83c0-1.43.5-2.66,1.49-3.68,1-1.02,2.23-1.52,3.71-1.52h13.87c1.43,0,2.66.51,3.68,1.52,1.02,1.02,1.52,2.24,1.52,3.68v18.35c0,1.23-.43,2.28-1.29,3.14-.86.86-1.9,1.29-3.14,1.29h-2.03c-.68,0-1.25-.23-1.7-.69s-.69-1.03-.69-1.7c0-.2-.1-.3-.3-.3h-6.46c-.2,0-.3.1-.3.3,0,.72-.26,1.33-.78,1.85-.52.52-1.14.78-1.85.78h-1.55ZM353.27,106.38c1.43,0,2.66.51,3.68,1.52s1.52,2.24,1.52,3.68v12.91c0,1.43-.51,2.66-1.52,3.68-1.02,1.02-2.24,1.52-3.68,1.52h-27.14c-1.43,0-2.66-.51-3.68-1.52-1.02-1.02-1.52-2.24-1.52-3.68v-12.91c0-1.43.51-2.66,1.52-3.68,1.02-1.02,2.24-1.52,3.68-1.52h27.14ZM328.23,143.14c0-.4-.2-.6-.6-.6h-5.86c-.4,0-.6.2-.6.6v7.05c0,.4.2.6.6.6h5.86c.4,0,.6-.2.6-.6v-7.05ZM348.79,121.2c.4,0,.6-.2.6-.6v-5.08c0-.4-.2-.6-.6-.6h-18.71c-.4,0-.6.2-.6.6v5.08c0,.4.2.6.6.6h18.71ZM341.44,139.19c0-1.43.51-2.66,1.52-3.68,1.02-1.02,2.24-1.52,3.68-1.52h14.53c1.43,0,2.66.51,3.68,1.52,1.02,1.02,1.52,2.24,1.52,3.68v18.29c0,1.23-.44,2.29-1.32,3.17-.88.88-1.93,1.32-3.17,1.32h-2.09c-.64,0-1.2-.23-1.67-.69-.48-.46-.72-1.03-.72-1.7,0-.2-.1-.3-.3-.3h-6.87c-.2,0-.3.1-.3.3,0,.72-.26,1.33-.78,1.85-.52.52-1.14.78-1.85.78h-1.61c-1.2,0-2.2-.41-3.02-1.22-.82-.82-1.23-1.82-1.23-3.02v-18.77ZM349.93,150.19c0,.4.2.6.6.6h6.28c.4,0,.6-.2.6-.6v-7.05c0-.4-.2-.6-.6-.6h-6.28c-.4,0-.6.2-.6.6v7.05Z"/>
        </g>
        <path class="cls-11" d="M386.58,127.44c1.05-.21,2.07-.39,3.06-.53.03-2.07.05-3.46.05-4.17,0-2.85,1.37-4.25,4.11-4.22,2.85-.07,4.17,1.34,3.96,4.22.03.67,0,1.93-.11,3.8h4.01c2.64,0,4.67.86,6.09,2.58,1.42,1.72,2.28,4.43,2.56,8.12.24,2.67.34,5.41.29,8.23-.05,2.81-.34,5.42-.87,7.83-.53,2.41-1.42,4.35-2.66,5.83s-2.96,2.25-5.14,2.32c-1.16-.04-2.25-.14-3.27-.32-2.43-.53-3.41-2.07-2.95-4.64.46-2.32,1.58-3.45,3.38-3.38.49.07,1.02.09,1.58.05.91-.11,1.54-.98,1.87-2.61s.5-3.61.5-5.93-.07-4.61-.21-6.86c0-1.34-.25-2.19-.74-2.56-.49-.37-1.37-.59-2.64-.66-.42,0-.78.02-1.08.05-.3.04-.69.05-1.19.05-.46,4.85-1.23,9.46-2.32,13.82-1.09,4.36-2.08,7.73-2.95,10.12-.77,2.04-2.46,2.74-5.06,2.11-2.29-.92-3.06-2.39-2.32-4.43.56-1.02,1.37-3.53,2.43-7.54s1.83-8.52,2.32-13.55c-1.13.14-1.92.26-2.37.37-2.18.35-3.32-.97-3.43-3.96.14-2.57,1.18-3.96,3.11-4.17ZM408.78,117.58c0-1.19.6-1.79,1.79-1.79s1.85.6,1.85,1.79v4.01c0,1.2-.6,1.79-1.79,1.79s-1.85-.6-1.85-1.79v-4.01ZM410.89,128.45c-.67-1.69.03-2.95,2.11-3.8,2.18-.49,3.72.14,4.64,1.9,1.4,3.9,2.39,7.7,2.95,11.39.46,2.11-.53,3.45-2.95,4.01-2.43.42-3.83-.49-4.22-2.74-.67-4.01-1.51-7.59-2.53-10.76ZM414.48,117.58c0-1.19.6-1.79,1.79-1.79s1.85.6,1.85,1.79v4.01c0,1.2-.6,1.79-1.79,1.79s-1.85-.6-1.85-1.79v-4.01Z"/>
        <g>
          <path class="cls-20" d="M479.59,131.18c-.12-.04-.24-.03-.36.03-.12.06-.18.15-.18.27v12.25c0,1.16-.41,2.14-1.23,2.96-.82.82-1.8,1.23-2.96,1.23h-.3c.36.08.61.28.75.6.14.32.13.64-.03.96-.84,1.71-1.49,3.01-1.97,3.88-.08.12-.09.24-.03.36.06.12.17.18.33.18h10.04c1,0,1.84.35,2.54,1.05.7.7,1.04,1.54,1.04,2.54s-.35,1.85-1.04,2.57c-.7.72-1.54,1.08-2.54,1.08h-45.43c-1,0-1.84-.36-2.54-1.08-.7-.72-1.05-1.58-1.05-2.57s.35-1.84,1.05-2.54c.7-.7,1.54-1.05,2.54-1.05h9.56c.16,0,.28-.06.36-.18.08-.12.1-.24.06-.36-.28-.84-.64-1.69-1.07-2.57-.24-.56-.24-1.12,0-1.7.24-.58.68-.95,1.31-1.11,0-.04-.02-.06-.06-.06h-.72c-1.44,0-2.66-.51-3.68-1.52-1.02-1.02-1.53-2.24-1.53-3.68v-10.76c0-.12-.06-.21-.18-.27-.12-.06-.24-.05-.36.03-.72.44-1.4.84-2.03,1.2-.72.4-1.43.6-2.15.6-.36,0-.74-.04-1.14-.12-1.12-.28-2.07-.9-2.87-1.85-.48-.6-.72-1.28-.72-2.03,0-.2.02-.4.06-.6.16-1,.68-1.75,1.55-2.27,1.71-.96,3.37-2.03,4.96-3.23.32-.24.34-.5.06-.78-.72-.64-1.54-1.31-2.45-2.03-.72-.52-1.12-1.21-1.2-2.09v-.36c0-.76.28-1.41.84-1.97.68-.72,1.51-1.14,2.51-1.26.2-.04.4-.06.6-.06.76,0,1.47.22,2.15.66,1.12.72,2.07,1.42,2.87,2.09.32.28.62.28.9,0,1.04-1.2,1.99-2.45,2.87-3.77.08-.08.09-.18.03-.3-.06-.12-.17-.18-.33-.18h-6.75c-1,0-1.84-.35-2.54-1.05s-1.05-1.53-1.05-2.51.35-1.81,1.05-2.51c.7-.7,1.54-1.05,2.54-1.05h11.89c.28-.08.58-.12.9-.12.56,0,1.1.12,1.61.36l1.67.9c.84.4,1.41,1.04,1.73,1.91.16.4.24.8.24,1.2,0,.44-.1.9-.3,1.38-1.23,2.67-2.73,5.24-4.48,7.71-.08.08-.1.18-.06.3.04.12.14.18.3.18h11.9c.12,0,.21-.06.27-.18.06-.12.05-.22-.03-.3-1.99-2.79-3.81-5.88-5.44-9.27-.24-.52-.36-1.02-.36-1.49s.12-.96.36-1.43c.44-.96,1.18-1.59,2.21-1.91.44-.12.86-.18,1.26-.18.64,0,1.28.14,1.91.42,1,.48,1.77,1.22,2.33,2.21.24.44.48.86.72,1.25.2.36.44.4.72.12.64-.52,1.25-1.08,1.85-1.67.84-.84,1.83-1.32,2.99-1.43h.48c.96,0,1.85.28,2.69.84.84.64,1.25,1.47,1.25,2.51s-.38,1.79-1.13,2.39c-1.47,1.12-2.85,2.09-4.12,2.93-.36.24-.4.5-.12.78.4.48.82.96,1.26,1.43.28.28.58.28.9,0,.99-.84,1.91-1.65,2.75-2.45.84-.8,1.81-1.25,2.93-1.38h.54c.92,0,1.77.26,2.57.78.88.64,1.31,1.49,1.31,2.57,0,.92-.38,1.67-1.14,2.27-1.23.96-2.45,1.87-3.65,2.75-.12.08-.18.19-.18.33s.06.25.18.33c1.28.88,2.57,1.67,3.89,2.39,1,.52,1.61,1.33,1.85,2.45.04.24.06.5.06.78,0,.8-.26,1.53-.78,2.21-.88,1.08-1.95,1.79-3.23,2.15-.44.12-.88.18-1.32.18-.8,0-1.59-.22-2.39-.66-.32-.2-.62-.4-.9-.6ZM451.07,127.42c-.4,0-.75-.15-1.04-.45s-.45-.67-.45-1.11c0-.04-.02-.06-.06-.06h-.12c-1.36,1.31-2.87,2.61-4.54,3.88-.08.04-.11.11-.09.21.02.1.09.15.21.15h32.22c.08,0,.14-.05.18-.15.04-.1.02-.17-.06-.21-1.79-1.31-3.45-2.73-4.96-4.24h-.12s-.06.02-.06.06c0,.52-.18.97-.54,1.35-.36.38-.8.57-1.32.57h-19.25ZM469.9,137.58c0-.4-.2-.6-.6-.6h-17.63c-.4,0-.6.2-.6.6v2.75c0,.4.2.6.6.6h17.63c.4,0,.6-.2.6-.6v-2.75ZM465.66,153.9v-.06c-.32-.04-.55-.22-.69-.54-.14-.32-.13-.62.03-.9.64-1.32,1.2-2.63,1.67-3.95.04-.12.02-.24-.06-.36-.08-.12-.2-.18-.36-.18h-10.58c-.16,0-.27.05-.33.15-.06.1-.05.21.03.33.52,1,.98,1.97,1.38,2.93.2.52.16,1.03-.12,1.52-.28.5-.68.83-1.2.99-.04,0-.06,0-.06.03s.02.03.06.03h10.22Z"/>
          <path class="cls-21" d="M547.37,135.9h-19.79c-.4,0-.69.18-.87.54-.18.36-.39.72-.63,1.08-.08.12-.09.24-.03.36s.15.18.27.18h18.47c1.39,0,2.59.52,3.59,1.55.84.92,1.26,1.99,1.26,3.23v.42c-.36,4.9-.8,8.61-1.32,11.12s-1.16,4.2-1.91,5.08c-1.08,1.27-2.55,2.05-4.42,2.33-.32.04-.7.08-1.13.12-.16.04-.32.06-.48.06-1.2,0-2.29-.44-3.29-1.32-1.08-.96-1.91-2.19-2.51-3.71-.04-.08-.08-.18-.12-.3-.04-.12-.13-.19-.27-.21-.14-.02-.25.03-.33.15-.88,1.16-1.75,2.21-2.63,3.17-.8.76-1.73,1.14-2.81,1.14h-.06c-1.12,0-2.13-.36-3.05-1.08-.8-.6-1.2-1.4-1.2-2.39,0-.88.36-1.63,1.08-2.27,2.87-2.55,5.36-5.78,7.47-9.68.04-.12.03-.23-.03-.33-.06-.1-.17-.15-.33-.15h-.96c-.36,0-.66.16-.9.48-2.79,4.5-6.32,8.49-10.58,11.96-.76.56-1.57.84-2.45.84h-.54c-1.08-.16-2.03-.62-2.87-1.38-.64-.56-.96-1.24-.96-2.03,0-1,.4-1.77,1.2-2.33,2.83-1.91,5.46-4.28,7.89-7.11.08-.08.09-.17.03-.27-.06-.1-.15-.15-.27-.15h-.96c-.4,0-.74.14-1.02.42-.6.6-1.24,1.2-1.91,1.79-1.04.84-2.19,1.25-3.47,1.25h-.48c-1.47-.12-2.79-.7-3.95-1.73-.12-.08-.22-.18-.3-.3-.32-.24-.66-.26-1.02-.06-2.79,1.4-5.76,2.89-8.91,4.48-.64.28-1.27.42-1.91.42-.52,0-1.05-.1-1.61-.3-1.2-.48-1.99-1.33-2.39-2.57-.2-.52-.3-1.06-.3-1.61,0-.68.14-1.35.42-2.03.6-1.2,1.51-2.01,2.75-2.45.6-.24,1.28-.5,2.03-.78.36-.16.54-.44.54-.84v-15c0-.36-.2-.54-.6-.54h-.84c-1.16,0-2.14-.41-2.96-1.23-.82-.82-1.22-1.8-1.22-2.96s.41-2.15,1.22-2.99,1.8-1.25,2.96-1.25h.84c.4,0,.6-.18.6-.54v-7.05c0-1.16.41-2.13,1.23-2.93.82-.8,1.79-1.2,2.93-1.2s2.1.4,2.9,1.2c.8.8,1.2,1.77,1.2,2.93v7.11c0,.32.18.48.54.48h.42c1.15,0,2.14.42,2.96,1.25.81.84,1.22,1.83,1.22,2.99s-.41,2.14-1.22,2.96c-.82.82-1.8,1.23-2.96,1.23h-.42c-.36,0-.54.18-.54.54v11.78c0,.12.05.21.15.27s.19.07.27.03c.48-.2.94-.3,1.38-.3.52,0,1.02.12,1.49.36.96.48,1.55,1.24,1.79,2.27l.24.9c.04.12.12.2.24.24.12.04.24.02.36-.06,1.67-1.51,3.11-3.11,4.3-4.78.08-.08.09-.18.03-.3-.06-.12-.15-.18-.27-.18h-1.73c-1.04,0-1.91-.36-2.63-1.08-.72-.72-1.08-1.59-1.08-2.63s.36-1.91,1.08-2.63c.72-.72,1.59-1.08,2.63-1.08h31.44c1.04,0,1.91.36,2.63,1.08.72.72,1.08,1.59,1.08,2.63s-.36,1.91-1.08,2.63c-.72.72-1.59,1.08-2.63,1.08ZM541.75,105.48c1.43,0,2.66.51,3.68,1.52s1.52,2.24,1.52,3.68v10.88c0,1.43-.51,2.66-1.52,3.68s-2.24,1.52-3.68,1.52h-19.31c-1.43,0-2.66-.51-3.68-1.52s-1.52-2.24-1.52-3.68v-10.88c0-1.43.51-2.66,1.52-3.68s2.24-1.52,3.68-1.52h19.31ZM538.17,113.31c.4,0,.6-.2.6-.6v-.66c0-.4-.2-.6-.6-.6h-12.49c-.4,0-.6.2-.6.6v.66c0,.4.2.6.6.6h12.49ZM538.17,120.78c.4,0,.6-.2.6-.6v-.66c0-.4-.2-.6-.6-.6h-12.49c-.4,0-.6.2-.6.6v.66c0,.4.2.6.6.6h12.49ZM541.33,145.47c.04-.32-.11-.48-.45-.48s-.57.14-.69.42c-1.28,3.19-2.95,6.3-5.02,9.33-.08.12-.09.24-.03.36.06.12.15.18.27.18.64.04,1.38.06,2.21.06s1.39-.26,1.79-.78c.8-.84,1.44-3.86,1.91-9.08Z"/>
          <path class="cls-19" d="M560.64,150.43c0-1.91.69-3.52,2.06-4.81s3.1-1.94,5.17-1.94,3.8.65,5.17,1.94c1.38,1.29,2.06,2.9,2.06,4.81s-.69,3.56-2.06,4.81c-1.37,1.26-3.1,1.88-5.17,1.88s-3.79-.63-5.17-1.88c-1.38-1.25-2.06-2.86-2.06-4.81ZM563.57,136.32l-1.97-15.54-.18-4.96c-.08-1.43.38-2.66,1.38-3.68.99-1.02,2.19-1.52,3.59-1.52h3.05c1.39,0,2.59.51,3.59,1.52,1,1.02,1.46,2.24,1.38,3.68l-.18,4.96-1.97,15.54c-.16,1.08-.65,1.98-1.46,2.72s-1.77,1.11-2.87,1.11-2.05-.37-2.87-1.11-1.3-1.64-1.46-2.72Z"/>
        </g>
      </g>
    </g>
  </g>
</svg>