<?xml version="1.0" encoding="UTF-8"?>
<svg id="_レイヤー_2" data-name="レイヤー 2" xmlns="http://www.w3.org/2000/svg" viewBox="0 0 1150.25 324.51">
  <defs>
    <style>
      .cls-1 {
        fill: #44809c;
      }

      .cls-2 {
        fill: #40809e;
      }

      .cls-3 {
        fill: #2f839d;
      }

      .cls-4 {
        fill: #123649;
      }

      .cls-5 {
        fill: #3f7f9d;
      }

      .cls-6 {
        fill: #3f7f9e;
      }
    </style>
  </defs>
  <g id="_レイヤー_1-2" data-name="レイヤー 1">
    <g>
      <path class="cls-6" d="M137.17,113.42c-14.85-3.43-28.78-5.24-43.62-.49-.15.05-2.23,1-2.37,1.07l-7.31,3.7c-.66.33-.31,1.33.41,1.19,2.34-.45,4.19-.84,6.56-.93,71.41-2.8,84.93,47.07,140.36,71.04,48.57,21.01,91.17,5.12,119.03-37.89,27.48,16.97,14.39,30.4-4.62,45.65-40.29,32.31-89.68,38.01-134.11,9.64-43.01-27.46-73.46-79.81-132.19-65.71-19.15,4.6-32.07,17.74-44.9,31.71,9.57,11.29,20.63,21.97,31.3,32.42,2.27,2.22,5.78,5.22,8.12,6.94,1.81,1.33-1.39,8.26-1.43,17.61-.03,7.68.05,8,.73,14.49.18,1.69.92,3.65-1.66,3.17L3.52,180.22c-3.79-4.65-4.6-10.19-2.03-15.72l65.42-64.78c16.15-9.47,34-10.15,52.33-8.89,6.94,6.49,11.27,15.64,17.94,22.59Z"/>
      <path class="cls-5" d="M154.97,173.29c1.79,1.37,11.21,8.99,15.45,12.89,1.22,1.12,1.37,3,.31,4.28-7.2,8.67-12.19,18.04-13.04,29.71-2.92,40.08,31.79,66.93,69.31,73.54,27.3,4.81,42.73-3.51,45.75-2.81,6.69,1.56-22.79,14.9-26.79,16.34-69.28,24.97-141.93-51.89-101.73-115.38,1.93-3.04,9.07-10.05,9.58-12.15.96-3.93-9.79-.27-12.05.56-21.73,7.89-35.49,31.16-36.56,53.65-1.54,32.33,23.5,62.03,51.43,76.46,18.6,9.61,28.71,9.31,24.51,12.91-3.79,3.25-31.04-.73-36.21-2.36-47.92-15.11-77.57-66.99-57.86-115.4,7.86-19.3,27.05-37.47,48.52-39.42,11.33-1.03,11.37,1.05,19.38,7.19Z"/>
      <path class="cls-2" d="M182.88,196.79c3.83,3.9,18.86,11.49,21.05,14.92,1.6,2.5,1.67,8.55,2.87,11.98,11.14,31.78,45.91,39.59,75.91,35.79,23.07-2.92,35.41-12.93,30.65-5.71-1.08,1.65-7.14,7.89-9.18,9.64-1.63,1.4-11.57,10.53-21.61,14.2-19.82,7.24-41.59,6.48-60.49-2.98-29.43-14.74-43.7-45.57-39.21-77.84Z"/>
      <path class="cls-1" d="M326.32,219.27c.95-.4,1.84.69,1.26,1.54-9.43,13.62-27.85,28.45-43.89,30.49-17.96,2.29-31.59-3.48-45.97-13.43-6.43-5.23,3.42-1.51,6.28-1.12,20.52,2.75,45.81-1.54,65.13-9.11,2.16-.85,12.21-6.26,17.2-8.36Z"/>
      <path class="cls-6" d="M345.6,145.42c-9.89-9.49-17.38-18.02-27.32-27.45-11.37-10.78-19.9-21.97-36.71-23.83-7.48-.83-33.59,2.1-39.34,6.11-6.6,4.61-12.48,14.57-19.33,19.53,0,0,0,0,0,0-.48,2.25,16.85,10.33,18.99,10.52,2.1.19,7.64-4.67,10.69-6.01,22.76-10.04,38.74-1.36,53.65,15.96,0,0,0,0,0,0-22.85,13.51-55.42,6.82-78.43-3.8-12.27-5.67-63.02-37.5-69.4-47.1-.92-1.39-2.07-2.62-1.8-4.47,0,0,0,0,0,0,17.84-5.22,35.82-4.43,53.68,0,0,0,0,0,0,0,1.9,1.83-9.64,11.22-11.05,12.35-5.21,4.18-7.58,2.89-7.99,4.29-.35,1.17,2.16,2.5,3.12,3.27,1.59,1.27,18.36,10.82,19.37,10.38,0,0,0,0,0,0,29.68-23.25,41.05-62.9,14.79-93.63-48.94-57.27-136.58,10.82-94.6,74,3.49,5.25,13.95,14.18,15.8,18.47,1.96,4.53-9.8-2.05-7.99,2.83,39.09,7.87,66.88,42.49,105.53,51.54,13.57,3.18,32.69,3.76,46.19.19,16.73-4.42,21.16-10.51,26.68-13.52,0,0,0,0,0,0-7.96,14.2-25.52,22.33-46.15,27.27-1.41.34-1.21,2.4.24,2.48h0c30.57,1.62,51.5-18.53,71.37-39.4,0,0,0,0,0,0ZM147.46,63.19c-1.04-51.63,72.25-51.35,71.97,0-10.91-.66-21.55-4.23-32.51-4.63-13.35-.48-26.36,2.74-39.46,4.62Z"/>
    </g>
    <g>
      <path class="cls-6" d="M137.17,113.42c-14.85-3.43-28.78-5.24-43.62-.49-.15.05-2.23,1-2.37,1.07l-7.31,3.7c-.66.33-.31,1.33.41,1.19,2.34-.45,4.19-.84,6.56-.93,71.41-2.8,84.93,47.07,140.36,71.04,48.57,21.01,91.17,5.12,119.03-37.89,27.48,16.97,14.39,30.4-4.62,45.65-40.29,32.31-89.68,38.01-134.11,9.64-43.01-27.46-73.46-79.81-132.19-65.71-19.15,4.6-32.07,17.74-44.9,31.71,9.57,11.29,20.63,21.97,31.3,32.42,2.27,2.22,5.78,5.22,8.12,6.94,1.81,1.33-1.39,8.26-1.43,17.61-.03,7.68.05,8,.73,14.49.18,1.69.92,3.65-1.66,3.17L3.52,180.22c-3.79-4.65-4.6-10.19-2.03-15.72l65.42-64.78c16.15-9.47,34-10.15,52.33-8.89,6.94,6.49,11.27,15.64,17.94,22.59Z"/>
      <path class="cls-5" d="M154.97,173.29c1.79,1.37,11.21,8.99,15.45,12.89,1.22,1.12,1.37,3,.31,4.28-7.2,8.67-12.19,18.04-13.04,29.71-2.92,40.08,31.79,66.93,69.31,73.54,27.3,4.81,42.73-3.51,45.75-2.81,6.69,1.56-22.79,14.9-26.79,16.34-69.28,24.97-141.93-51.89-101.73-115.38,1.93-3.04,9.07-10.05,9.58-12.15.96-3.93-9.79-.27-12.05.56-21.73,7.89-35.49,31.16-36.56,53.65-1.54,32.33,23.5,62.03,51.43,76.46,18.6,9.61,28.71,9.31,24.51,12.91-3.79,3.25-31.04-.73-36.21-2.36-47.92-15.11-77.57-66.99-57.86-115.4,7.86-19.3,27.05-37.47,48.52-39.42,11.33-1.03,11.37,1.05,19.38,7.19Z"/>
      <path class="cls-2" d="M182.88,196.79c3.83,3.9,18.86,11.49,21.05,14.92,1.6,2.5,1.67,8.55,2.87,11.98,11.14,31.78,45.91,39.59,75.91,35.79,23.07-2.92,35.41-12.93,30.65-5.71-1.08,1.65-7.14,7.89-9.18,9.64-1.63,1.4-11.57,10.53-21.61,14.2-19.82,7.24-41.59,6.48-60.49-2.98-29.43-14.74-43.7-45.57-39.21-77.84Z"/>
      <path class="cls-1" d="M326.32,219.27c.95-.4,1.84.69,1.26,1.54-9.43,13.62-27.85,28.45-43.89,30.49-17.96,2.29-31.59-3.48-45.97-13.43-6.43-5.23,3.42-1.51,6.28-1.12,20.52,2.75,45.81-1.54,65.13-9.11,2.16-.85,12.21-6.26,17.2-8.36Z"/>
      <path class="cls-6" d="M345.6,145.42c-9.89-9.49-17.38-18.02-27.32-27.45-11.37-10.78-19.9-21.97-36.71-23.83-7.48-.83-33.59,2.1-39.34,6.11-6.6,4.61-12.48,14.57-19.33,19.53,0,0,0,0,0,0-.48,2.25,16.85,10.33,18.99,10.52,2.1.19,7.64-4.67,10.69-6.01,22.76-10.04,38.74-1.36,53.65,15.96,0,0,0,0,0,0-22.85,13.51-55.42,6.82-78.43-3.8-12.27-5.67-63.02-37.5-69.4-47.1-.92-1.39-2.07-2.62-1.8-4.47,0,0,0,0,0,0,17.84-5.22,35.82-4.43,53.68,0,0,0,0,0,0,0,1.9,1.83-9.64,11.22-11.05,12.35-5.21,4.18-7.58,2.89-7.99,4.29-.35,1.17,2.16,2.5,3.12,3.27,1.59,1.27,18.36,10.82,19.37,10.38,0,0,0,0,0,0,29.68-23.25,41.05-62.9,14.79-93.63-48.94-57.27-136.58,10.82-94.6,74,3.49,5.25,13.95,14.18,15.8,18.47,1.96,4.53-9.8-2.05-7.99,2.83,39.09,7.87,66.88,42.49,105.53,51.54,13.57,3.18,32.69,3.76,46.19.19,16.73-4.42,21.16-10.51,26.68-13.52,0,0,0,0,0,0-7.96,14.2-25.52,22.33-46.15,27.27-1.41.34-1.21,2.4.24,2.48h0c30.57,1.62,51.5-18.53,71.37-39.4,0,0,0,0,0,0ZM147.46,63.19c-1.04-51.63,72.25-51.35,71.97,0-10.91-.66-21.55-4.23-32.51-4.63-13.35-.48-26.36,2.74-39.46,4.62Z"/>
    </g>
    <g>
      <g>
        <g>
          <path class="cls-3" d="M595.42,276.94v-49.19c0-1.65.83-1.99,2.23-1.99h21.41c3.64,0,7.44.25,10.83,1.99,5.21,2.65,8.1,8.02,8.1,14.47,0,2.07-.17,4.13-.83,6.12-1.9,5.54-6.28,9.18-11.99,10.17-4.05.66-8.19.5-12.24.5h-7.28l.08,18.02c0,1.57-.99,1.9-2.32,1.9h-6.37c-1.49,0-1.65-.17-1.65-1.98ZM615.76,250.4c2.4,0,4.8,0,7.19-.83,2.81-1.07,4.46-3.8,4.46-7.36,0-3.97-1.65-6.04-4.13-7.03-2.15-.91-4.88-1.07-7.61-1.07h-10v16.29h10.09Z"/>
          <path class="cls-3" d="M654.38,276.53c-7.85-4.88-12.24-14.88-12.24-23.98,0-8.6,3.55-17.2,10.25-22.74,4.38-3.55,9.67-5.29,16.2-5.29s11.66,1.74,15.79,4.8c7.28,5.37,10.58,14.39,10.58,23.15,0,10.09-3.31,19.1-12.4,24.31-4.46,2.65-8.76,3.47-13.97,3.47s-10.17-1.16-14.22-3.72ZM680.67,265.45c2.31-3.47,3.31-8.1,3.31-12.98,0-3.39-.33-6.53-1.65-9.67-2.56-5.95-6.86-9.26-13.81-9.26s-11.74,3.89-13.89,9.34c-.99,2.73-1.57,5.87-1.57,9.18,0,5.29,1.24,10.25,3.97,13.81,2.56,3.31,6.37,5.29,11.82,5.29s9.43-2.23,11.82-5.71Z"/>
          <path class="cls-3" d="M702.59,276.86l.08-49.36c0-1.32.5-1.65,1.41-1.65h7.28c1.41,0,1.74.08,2.48,1.24l22.99,36.87-.17-36.54c0-1.16.41-1.57,1.57-1.57h6.37c1.24,0,1.65.17,1.65,1.49l.08,49.44c0,1.98-.17,2.15-2.15,2.15h-7.19c-1.07,0-1.74-.08-2.81-1.9l-21.99-35.8v35.47c0,1.98-.25,2.23-2.23,2.23h-5.54c-1.41,0-1.82-.08-1.82-2.07Z"/>
          <path class="cls-3" d="M753.94,252.39c0-10.5,6.28-21.91,16.2-26.04,3.22-1.32,6.7-1.82,10.17-1.82,8.19,0,15.21,2.65,20.17,9.43.33.58,1.82,2.98,2.73,4.71.5.91.66,1.24.66,1.65,0,.5-1.49,1.07-1.57,1.07l-5.79,2.56c-.74.33-.83.33-1.16.33-.25,0-.33-.17-.66-.99-.25-.83-.58-1.57-.99-2.23-2.98-5.37-6.78-8.27-13.14-8.27-10.83,0-15.71,9.42-15.71,19.1,0,10.42,5.21,19.43,16.54,19.43,4.13,0,7.69-1.41,10.42-4.55,1.41-1.74,2.65-3.89,3.31-6.04.25-.58.33-1.41.66-1.41.41-.08,1.32.41,1.41.41l6.12,2.65c.58.25,1.16.58,1.16.91s-.17.66-.41,1.32c-.49,1.24-1.41,2.89-1.65,3.39-4.71,8.43-11.99,12.24-21.58,12.24-16.45,0-26.87-11.58-26.87-27.86Z"/>
          <path class="cls-3" d="M809.67,276.94v-48.78c0-2.15.41-2.32,1.9-2.32h6.78c1.32,0,1.82.08,1.82,1.82l-.08,18.6h23.73l-.08-18.36c0-2.07.17-2.07,2.07-2.07h6.61c1.57,0,1.82,0,1.82,2.15v48.95c0,1.9-.33,1.98-2.07,1.98h-6.86c-1.49,0-1.57,0-1.57-1.57l.08-22.24h-23.73l.08,21.66c0,1.82.08,2.15-2.15,2.15h-6.61c-1.49,0-1.74,0-1.74-1.98Z"/>
          <path class="cls-3" d="M874.08,276.53c-7.85-4.88-12.24-14.88-12.24-23.98,0-8.6,3.55-17.2,10.25-22.74,4.38-3.55,9.67-5.29,16.2-5.29s11.66,1.74,15.79,4.8c7.28,5.37,10.58,14.39,10.58,23.15,0,10.09-3.31,19.1-12.4,24.31-4.46,2.65-8.76,3.47-13.97,3.47s-10.17-1.16-14.22-3.72ZM900.38,265.45c2.31-3.47,3.31-8.1,3.31-12.98,0-3.39-.33-6.53-1.65-9.67-2.56-5.95-6.86-9.26-13.81-9.26s-11.74,3.89-13.89,9.34c-.99,2.73-1.57,5.87-1.57,9.18,0,5.29,1.24,10.25,3.97,13.81,2.56,3.31,6.37,5.29,11.82,5.29s9.43-2.23,11.82-5.71Z"/>
        </g>
        <g>
          <path class="cls-4" d="M396.45,177.58l.12-71.32c0-2.65.24-2.65,2.41-2.65h9.86c1.8,0,3.01.12,3.01,3.13l-.12,70.97c0,2.89-.48,3.13-3.25,3.13h-9.5c-2.04,0-2.53-.12-2.53-3.25Z"/>
          <path class="cls-4" d="M422.91,142.22c0-15.28,9.14-31.87,23.57-37.89,4.69-1.92,9.74-2.65,14.79-2.65,11.91,0,22.13,3.85,29.35,13.71.48.84,2.65,4.33,3.97,6.86.72,1.32.96,1.8.96,2.41,0,.72-2.17,1.56-2.29,1.56l-8.42,3.73c-1.08.48-1.2.48-1.68.48-.36,0-.48-.24-.96-1.44-.36-1.2-.84-2.29-1.44-3.25-4.33-7.82-9.86-12.03-19.12-12.03-15.76,0-22.85,13.71-22.85,27.78,0,15.15,7.58,28.26,24.06,28.26,6.01,0,11.19-2.04,15.15-6.61,2.05-2.53,3.85-5.65,4.81-8.78.36-.84.48-2.04.96-2.04.6-.12,1.92.6,2.04.6l8.9,3.85c.84.36,1.68.84,1.68,1.32s-.24.96-.6,1.92c-.72,1.8-2.04,4.21-2.41,4.93-6.86,12.27-17.44,17.8-31.39,17.8-23.94,0-39.09-16.84-39.09-40.53Z"/>
          <path class="cls-4" d="M503.98,178.43v-72.65c0-2.17.24-2.28,2.04-2.28h50.64c3.13,0,3.49.12,3.49,2.65v6.13c0,2.53,0,2.89-2.77,2.89h-38.49v18.52h31.99c2.29,0,2.41.12,2.41,2.05v7.34c0,1.92.12,2.4-2.65,2.4h-31.75v23.09h40.05c2.77,0,3.13.12,3.13,2.29v7.34c0,2.4-.24,2.65-2.41,2.65h-52.68c-3.01,0-3.01-.12-3.01-2.4Z"/>
          <path class="cls-4" d="M611.74,178.43v-72.29c0-2.17.48-2.53,2.65-2.53h30.67c3.73,0,7.58.12,11.07,1.08,9.02,2.28,14.43,9.38,14.43,18.64,0,7.94-4.09,13.59-11.55,16.24,9.14,2.65,14.07,10.22,14.07,19.61s-4.09,17.08-13.23,20.09c-3.97,1.32-8.78,1.56-12.87,1.56h-33.68c-1.56,0-1.56-.96-1.56-2.4ZM641.69,134.04c6.01,0,13.83-1.2,13.83-8.9,0-9.38-8.42-9.74-15.64-9.74h-13.23v18.64h15.04ZM641.09,168.68c2.17,0,4.21,0,6.25-.24,1.56-.24,3.13-.6,4.57-1.2,4.33-1.92,6.13-4.33,6.13-9.62.12-10.58-8.78-11.55-17.08-11.55h-14.31v22.61h14.43Z"/>
          <path class="cls-4" d="M683.91,178.43v-72.29c0-2.17.24-2.65,2.4-2.65h9.74c2.04,0,3.01.48,3.01,2.77v61.7h34.16c1.92,0,2.53.24,2.53,2.53v7.82c0,2.28-.6,2.53-3.01,2.53h-45.95c-2.41,0-2.89-.72-2.89-2.4Z"/>
          <path class="cls-4" d="M743.92,177.58l.12-71.32c0-2.65.24-2.65,2.4-2.65h9.86c1.8,0,3.01.12,3.01,3.13l-.12,70.97c0,2.89-.48,3.13-3.25,3.13h-9.5c-2.04,0-2.53-.12-2.53-3.25Z"/>
          <path class="cls-4" d="M768.58,177.58v-6.13c0-2.53,0-3.13,2.17-5.89l39.57-49.92h-36.08c-3.73,0-3.01-1.44-3.01-3.13l-.12-6.5c0-1.68-.36-2.41,2.4-2.41h52.44c3.37,0,2.77.72,2.77,2.53v5.53c0,1.44.24,2.53-1.8,5.29l-40.05,51.36h40.17c3.25,0,3.25.36,3.25,3.01v6.74c0,1.8-.12,2.77-3.37,2.77h-55.21c-3.13,0-3.13-.24-3.13-3.25Z"/>
          <path class="cls-4" d="M834.37,177.58v-6.13c0-2.53,0-3.13,2.17-5.89l39.57-49.92h-36.08c-3.73,0-3.01-1.44-3.01-3.13l-.12-6.5c0-1.68-.36-2.41,2.4-2.41h52.44c3.37,0,2.77.72,2.77,2.53v5.53c0,1.44.24,2.53-1.8,5.29l-40.05,51.36h40.17c3.25,0,3.25.36,3.25,3.01v6.74c0,1.8-.12,2.77-3.37,2.77h-55.21c-3.13,0-3.13-.24-3.13-3.25Z"/>
          <path class="cls-4" d="M898.48,179.87c0-.6.12-1.08.6-2.41l26.1-71.57c.84-2.29,1.92-2.29,3.37-2.29h9.62c1.92,0,2.65.24,3.49,2.65l26.58,71.32c.36.96.6,1.68.6,2.17,0,.84-.84,1.08-2.41,1.08h-10.22c-2.05,0-2.77-.48-3.61-2.89l-5.53-15.64h-27.42l-5.53,16c-.72,2.05-1.2,2.53-3.37,2.53h-9.86c-1.68,0-2.4-.12-2.4-.96ZM943.1,150.64l-9.86-28.27-9.5,28.27h19.37Z"/>
          <path class="cls-4" d="M976.42,178.31v-72.17c0-2.05.84-2.53,2.41-2.53h31.87c4.45,0,7.82.12,10.34.6,3.37.6,6.5,1.68,9.38,3.61,2.77,1.92,5.05,4.57,6.74,7.58,1.92,3.37,2.89,7.22,2.77,11.67,0,4.93-1.08,9.14-3.37,12.75-1.44,2.17-3.13,3.85-5.17,5.41-3.01,2.17-5.89,3.13-9.38,3.85l16.72,27.78c1.08,1.68,1.56,2.16,1.56,3.13,0,.6-.72.84-3.01.84h-11.19c-1.32,0-1.56,0-2.05-.48-.36-.36-.84-1.2-1.44-2.17l-16-27.42c-3.73-.12-12.15-.24-15.4-.36v27.42c0,2.77-.48,3.01-2.4,3.01h-10.1c-2.05,0-2.29,0-2.29-2.53ZM1014.9,137.89c2.89-.6,5.29-1.68,6.98-3.49,1.8-1.8,2.77-4.33,2.77-7.46,0-2.89-.6-5.53-2.05-7.22-1.92-2.4-4.93-3.37-7.94-3.73-3.61-.48-7.34-.48-10.83-.48h-12.63v22.85c4.09,0,9.26.12,12.99.24,3.49,0,7.22,0,10.7-.72Z"/>
          <path class="cls-4" d="M1050.27,177.94v-71.09c0-2.89.12-3.25,2.89-3.25h19.24c5.65,0,12.27,0,17.2.84,5.17.96,9.86,3.01,14.07,6.13,10.46,7.82,13.83,18.52,13.83,31.15,0,8.42-1.44,16-5.53,22.85-4.09,6.98-7.82,11.43-15.76,14.07-5.53,1.92-11.43,2.16-17.2,2.16h-25.62c-3.01,0-3.13,0-3.13-2.89ZM1075.52,168.2c3.85,0,7.7-.24,11.19-1.08,5.29-1.32,9.86-4.21,12.51-10.22,2.04-4.45,2.77-9.62,2.89-13.83,0-3.73-.24-7.82-1.32-11.31-1.92-6.38-6.62-12.51-13.23-14.55-3.25-.96-7.82-1.08-11.18-1.08h-11.31v52.08h10.46Z"/>
        </g>
      </g>
      <g>
        <path class="cls-4" d="M1118.61,107.29v-14.97h-6.11v-3.54h16.3v3.54h-6.11v14.97h-4.08Z"/>
        <path class="cls-4" d="M1135.39,107.29h-3.88v-18.51h5.95l3.47,12.06,3-12.06h6.31v18.51h-3.92v-12.67l-3.32,12.67h-4.22l-3.4-12.4v12.4Z"/>
      </g>
      <g>
        <g>
          <path class="cls-3" d="M595.42,276.94v-49.19c0-1.65.83-1.99,2.23-1.99h21.41c3.64,0,7.44.25,10.83,1.99,5.21,2.65,8.1,8.02,8.1,14.47,0,2.07-.17,4.13-.83,6.12-1.9,5.54-6.28,9.18-11.99,10.17-4.05.66-8.19.5-12.24.5h-7.28l.08,18.02c0,1.57-.99,1.9-2.32,1.9h-6.37c-1.49,0-1.65-.17-1.65-1.98ZM615.76,250.4c2.4,0,4.8,0,7.19-.83,2.81-1.07,4.46-3.8,4.46-7.36,0-3.97-1.65-6.04-4.13-7.03-2.15-.91-4.88-1.07-7.61-1.07h-10v16.29h10.09Z"/>
          <path class="cls-3" d="M654.38,276.53c-7.85-4.88-12.24-14.88-12.24-23.98,0-8.6,3.55-17.2,10.25-22.74,4.38-3.55,9.67-5.29,16.2-5.29s11.66,1.74,15.79,4.8c7.28,5.37,10.58,14.39,10.58,23.15,0,10.09-3.31,19.1-12.4,24.31-4.46,2.65-8.76,3.47-13.97,3.47s-10.17-1.16-14.22-3.72ZM680.67,265.45c2.31-3.47,3.31-8.1,3.31-12.98,0-3.39-.33-6.53-1.65-9.67-2.56-5.95-6.86-9.26-13.81-9.26s-11.74,3.89-13.89,9.34c-.99,2.73-1.57,5.87-1.57,9.18,0,5.29,1.24,10.25,3.97,13.81,2.56,3.31,6.37,5.29,11.82,5.29s9.43-2.23,11.82-5.71Z"/>
          <path class="cls-3" d="M702.59,276.86l.08-49.36c0-1.32.5-1.65,1.41-1.65h7.28c1.41,0,1.74.08,2.48,1.24l22.99,36.87-.17-36.54c0-1.16.41-1.57,1.57-1.57h6.37c1.24,0,1.65.17,1.65,1.49l.08,49.44c0,1.98-.17,2.15-2.15,2.15h-7.19c-1.07,0-1.74-.08-2.81-1.9l-21.99-35.8v35.47c0,1.98-.25,2.23-2.23,2.23h-5.54c-1.41,0-1.82-.08-1.82-2.07Z"/>
          <path class="cls-3" d="M753.94,252.39c0-10.5,6.28-21.91,16.2-26.04,3.22-1.32,6.7-1.82,10.17-1.82,8.19,0,15.21,2.65,20.17,9.43.33.58,1.82,2.98,2.73,4.71.5.91.66,1.24.66,1.65,0,.5-1.49,1.07-1.57,1.07l-5.79,2.56c-.74.33-.83.33-1.16.33-.25,0-.33-.17-.66-.99-.25-.83-.58-1.57-.99-2.23-2.98-5.37-6.78-8.27-13.14-8.27-10.83,0-15.71,9.42-15.71,19.1,0,10.42,5.21,19.43,16.54,19.43,4.13,0,7.69-1.41,10.42-4.55,1.41-1.74,2.65-3.89,3.31-6.04.25-.58.33-1.41.66-1.41.41-.08,1.32.41,1.41.41l6.12,2.65c.58.25,1.16.58,1.16.91s-.17.66-.41,1.32c-.49,1.24-1.41,2.89-1.65,3.39-4.71,8.43-11.99,12.24-21.58,12.24-16.45,0-26.87-11.58-26.87-27.86Z"/>
          <path class="cls-3" d="M809.67,276.94v-48.78c0-2.15.41-2.32,1.9-2.32h6.78c1.32,0,1.82.08,1.82,1.82l-.08,18.6h23.73l-.08-18.36c0-2.07.17-2.07,2.07-2.07h6.61c1.57,0,1.82,0,1.82,2.15v48.95c0,1.9-.33,1.98-2.07,1.98h-6.86c-1.49,0-1.57,0-1.57-1.57l.08-22.24h-23.73l.08,21.66c0,1.82.08,2.15-2.15,2.15h-6.61c-1.49,0-1.74,0-1.74-1.98Z"/>
          <path class="cls-3" d="M874.08,276.53c-7.85-4.88-12.24-14.88-12.24-23.98,0-8.6,3.55-17.2,10.25-22.74,4.38-3.55,9.67-5.29,16.2-5.29s11.66,1.74,15.79,4.8c7.28,5.37,10.58,14.39,10.58,23.15,0,10.09-3.31,19.1-12.4,24.31-4.46,2.65-8.76,3.47-13.97,3.47s-10.17-1.16-14.22-3.72ZM900.38,265.45c2.31-3.47,3.31-8.1,3.31-12.98,0-3.39-.33-6.53-1.65-9.67-2.56-5.95-6.86-9.26-13.81-9.26s-11.74,3.89-13.89,9.34c-.99,2.73-1.57,5.87-1.57,9.18,0,5.29,1.24,10.25,3.97,13.81,2.56,3.31,6.37,5.29,11.82,5.29s9.43-2.23,11.82-5.71Z"/>
        </g>
        <g>
          <path class="cls-4" d="M396.45,177.58l.12-71.32c0-2.65.24-2.65,2.41-2.65h9.86c1.8,0,3.01.12,3.01,3.13l-.12,70.97c0,2.89-.48,3.13-3.25,3.13h-9.5c-2.04,0-2.53-.12-2.53-3.25Z"/>
          <path class="cls-4" d="M422.91,142.22c0-15.28,9.14-31.87,23.57-37.89,4.69-1.92,9.74-2.65,14.79-2.65,11.91,0,22.13,3.85,29.35,13.71.48.84,2.65,4.33,3.97,6.86.72,1.32.96,1.8.96,2.41,0,.72-2.17,1.56-2.29,1.56l-8.42,3.73c-1.08.48-1.2.48-1.68.48-.36,0-.48-.24-.96-1.44-.36-1.2-.84-2.29-1.44-3.25-4.33-7.82-9.86-12.03-19.12-12.03-15.76,0-22.85,13.71-22.85,27.78,0,15.15,7.58,28.26,24.06,28.26,6.01,0,11.19-2.04,15.15-6.61,2.05-2.53,3.85-5.65,4.81-8.78.36-.84.48-2.04.96-2.04.6-.12,1.92.6,2.04.6l8.9,3.85c.84.36,1.68.84,1.68,1.32s-.24.96-.6,1.92c-.72,1.8-2.04,4.21-2.41,4.93-6.86,12.27-17.44,17.8-31.39,17.8-23.94,0-39.09-16.84-39.09-40.53Z"/>
          <path class="cls-4" d="M503.98,178.43v-72.65c0-2.17.24-2.28,2.04-2.28h50.64c3.13,0,3.49.12,3.49,2.65v6.13c0,2.53,0,2.89-2.77,2.89h-38.49v18.52h31.99c2.29,0,2.41.12,2.41,2.05v7.34c0,1.92.12,2.4-2.65,2.4h-31.75v23.09h40.05c2.77,0,3.13.12,3.13,2.29v7.34c0,2.4-.24,2.65-2.41,2.65h-52.68c-3.01,0-3.01-.12-3.01-2.4Z"/>
          <path class="cls-4" d="M611.74,178.43v-72.29c0-2.17.48-2.53,2.65-2.53h30.67c3.73,0,7.58.12,11.07,1.08,9.02,2.28,14.43,9.38,14.43,18.64,0,7.94-4.09,13.59-11.55,16.24,9.14,2.65,14.07,10.22,14.07,19.61s-4.09,17.08-13.23,20.09c-3.97,1.32-8.78,1.56-12.87,1.56h-33.68c-1.56,0-1.56-.96-1.56-2.4ZM641.69,134.04c6.01,0,13.83-1.2,13.83-8.9,0-9.38-8.42-9.74-15.64-9.74h-13.23v18.64h15.04ZM641.09,168.68c2.17,0,4.21,0,6.25-.24,1.56-.24,3.13-.6,4.57-1.2,4.33-1.92,6.13-4.33,6.13-9.62.12-10.58-8.78-11.55-17.08-11.55h-14.31v22.61h14.43Z"/>
          <path class="cls-4" d="M683.91,178.43v-72.29c0-2.17.24-2.65,2.4-2.65h9.74c2.04,0,3.01.48,3.01,2.77v61.7h34.16c1.92,0,2.53.24,2.53,2.53v7.82c0,2.28-.6,2.53-3.01,2.53h-45.95c-2.41,0-2.89-.72-2.89-2.4Z"/>
          <path class="cls-4" d="M743.92,177.58l.12-71.32c0-2.65.24-2.65,2.4-2.65h9.86c1.8,0,3.01.12,3.01,3.13l-.12,70.97c0,2.89-.48,3.13-3.25,3.13h-9.5c-2.04,0-2.53-.12-2.53-3.25Z"/>
          <path class="cls-4" d="M768.58,177.58v-6.13c0-2.53,0-3.13,2.17-5.89l39.57-49.92h-36.08c-3.73,0-3.01-1.44-3.01-3.13l-.12-6.5c0-1.68-.36-2.41,2.4-2.41h52.44c3.37,0,2.77.72,2.77,2.53v5.53c0,1.44.24,2.53-1.8,5.29l-40.05,51.36h40.17c3.25,0,3.25.36,3.25,3.01v6.74c0,1.8-.12,2.77-3.37,2.77h-55.21c-3.13,0-3.13-.24-3.13-3.25Z"/>
          <path class="cls-4" d="M834.37,177.58v-6.13c0-2.53,0-3.13,2.17-5.89l39.57-49.92h-36.08c-3.73,0-3.01-1.44-3.01-3.13l-.12-6.5c0-1.68-.36-2.41,2.4-2.41h52.44c3.37,0,2.77.72,2.77,2.53v5.53c0,1.44.24,2.53-1.8,5.29l-40.05,51.36h40.17c3.25,0,3.25.36,3.25,3.01v6.74c0,1.8-.12,2.77-3.37,2.77h-55.21c-3.13,0-3.13-.24-3.13-3.25Z"/>
          <path class="cls-4" d="M898.48,179.87c0-.6.12-1.08.6-2.41l26.1-71.57c.84-2.29,1.92-2.29,3.37-2.29h9.62c1.92,0,2.65.24,3.49,2.65l26.58,71.32c.36.96.6,1.68.6,2.17,0,.84-.84,1.08-2.41,1.08h-10.22c-2.05,0-2.77-.48-3.61-2.89l-5.53-15.64h-27.42l-5.53,16c-.72,2.05-1.2,2.53-3.37,2.53h-9.86c-1.68,0-2.4-.12-2.4-.96ZM943.1,150.64l-9.86-28.27-9.5,28.27h19.37Z"/>
          <path class="cls-4" d="M976.42,178.31v-72.17c0-2.05.84-2.53,2.41-2.53h31.87c4.45,0,7.82.12,10.34.6,3.37.6,6.5,1.68,9.38,3.61,2.77,1.92,5.05,4.57,6.74,7.58,1.92,3.37,2.89,7.22,2.77,11.67,0,4.93-1.08,9.14-3.37,12.75-1.44,2.17-3.13,3.85-5.17,5.41-3.01,2.17-5.89,3.13-9.38,3.85l16.72,27.78c1.08,1.68,1.56,2.16,1.56,3.13,0,.6-.72.84-3.01.84h-11.19c-1.32,0-1.56,0-2.05-.48-.36-.36-.84-1.2-1.44-2.17l-16-27.42c-3.73-.12-12.15-.24-15.4-.36v27.42c0,2.77-.48,3.01-2.4,3.01h-10.1c-2.05,0-2.29,0-2.29-2.53ZM1014.9,137.89c2.89-.6,5.29-1.68,6.98-3.49,1.8-1.8,2.77-4.33,2.77-7.46,0-2.89-.6-5.53-2.05-7.22-1.92-2.4-4.93-3.37-7.94-3.73-3.61-.48-7.34-.48-10.83-.48h-12.63v22.85c4.09,0,9.26.12,12.99.24,3.49,0,7.22,0,10.7-.72Z"/>
          <path class="cls-4" d="M1050.27,177.94v-71.09c0-2.89.12-3.25,2.89-3.25h19.24c5.65,0,12.27,0,17.2.84,5.17.96,9.86,3.01,14.07,6.13,10.46,7.82,13.83,18.52,13.83,31.15,0,8.42-1.44,16-5.53,22.85-4.09,6.98-7.82,11.43-15.76,14.07-5.53,1.92-11.43,2.16-17.2,2.16h-25.62c-3.01,0-3.13,0-3.13-2.89ZM1075.52,168.2c3.85,0,7.7-.24,11.19-1.08,5.29-1.32,9.86-4.21,12.51-10.22,2.04-4.45,2.77-9.62,2.89-13.83,0-3.73-.24-7.82-1.32-11.31-1.92-6.38-6.62-12.51-13.23-14.55-3.25-.96-7.82-1.08-11.18-1.08h-11.31v52.08h10.46Z"/>
        </g>
      </g>
      <g>
        <path class="cls-4" d="M1118.61,107.29v-14.97h-6.11v-3.54h16.3v3.54h-6.11v14.97h-4.08Z"/>
        <path class="cls-4" d="M1135.39,107.29h-3.88v-18.51h5.95l3.47,12.06,3-12.06h6.31v18.51h-3.92v-12.67l-3.32,12.67h-4.22l-3.4-12.4v12.4Z"/>
      </g>
    </g>
  </g>
</svg>