<?xml version="1.0" encoding="UTF-8"?>
<svg id="_レイヤー_1" xmlns="http://www.w3.org/2000/svg" version="1.1" viewBox="0 0 245 65.9">
  <!-- Generator: Adobe Illustrator 29.0.0, SVG Export Plug-In . SVG Version: 2.1.0 Build 186)  -->
  <defs>
    <style>
      .st0 {
        fill: #f2971b;
      }

      .st1 {
        fill: #fff;
      }

      .st2 {
        fill: #673a1b;
      }
    </style>
  </defs>
  <rect class="st1" width="245" height="65.9" rx="14.6" ry="14.6"/>
  <g>
    <path class="st2" d="M152.8,18.3c0,.1,0,.2-.1.3s-.1.1-.2.1-.2,0-.2-.1c-.1-.1-.1-.2-.1-.3v-5.6h0c-.3.9-.6,1.5-.9,2.1-.1,0-.1.2-.2.2h-.2l-.2-.2v-.3c.4-.8.8-1.5,1-2,.2-.4.3-1,.5-1.8h-1.4c0,0-.1,0-.1-.2s0-.2.1-.3.2,0,.3,0h1.2v-1.9c0-.1,0-.2.1-.2.1-.1.2-.1.3-.1s.2,0,.2.1c.1.1.1.2.1.2v1.8h1.3c0,0,.1,0,.1.2s0,.2-.1.3-.2,0-.3,0h-1.1v.3c.6.9,1,1.7,1.4,2.4,0,0,.1,0,0,.2,0,0-.1.2-.2.2h-.3q-.1,0-.2-.2c-.2-.5-.5-1-.8-1.5v6.1h0v.2ZM156.2,15.6c-.6.7-1.2,1.2-1.7,1.5-.1.1-.2.1-.3.1s-.2-.1-.2-.1c0-.1-.1-.2-.1-.3s.1-.2.2-.2c.7-.5,1.3-1,1.8-1.5.5-.6.9-1.2,1.3-1.9h-2.8c0,0-.1,0-.1-.2,0,0,0-.2.1-.3h3.1v-2h-2c-.2.5-.5.9-.8,1.2-.1,0-.2,0-.3.2h-.2c-.1,0-.1-.2-.1-.3s.1-.2.2-.3c.3-.3.5-.7.7-1.1s.3-.8.4-1.2c0-.1.1-.2.1-.2.1,0,.1-.1.2-.1s.2.1.2.1c0,.1.1.2.1.3-.1.3-.1.6-.2.9h1.6v-1.3c0-.1,0-.2.1-.3s.2-.1.3-.1.2,0,.2.1c.1.1.1.2.1.3v1.3h2.4c0,0,.1,0,.1.2s0,.2-.1.2h-2.5v2h3c0,0,0,0,.1.2,0,0,0,.2-.1.3s-.2,0-.2,0h-2.6c.3.6.6,1.1.9,1.5.4.6,1,1.2,1.8,2,.1.1.1.2.1.2,0,.1-.1.2-.1.2-.1.1-.2.1-.2.1-.1,0-.2,0-.3-.1-.8-.7-1.5-1.4-1.9-2.1l-.6-.9v4.2c0,.1,0,.2-.1.3s-.1.1-.2.1-.2,0-.2-.1c-.1-.1-.1-.2-.1-.3v-4.3c-.3.6-.7,1.1-1.1,1.6h0ZM162.4,10.6c0,0-.1,0-.1-.2s0-.2.1-.2h6c-.1-.5-.1-1-.1-1.5s0-.2.1-.3.1-.1.2-.1.2,0,.2.1c.1.1.1.2.1.3,0,.5.1,1,.2,1.6h3.4c0,0,.1,0,.2,0,0,0,0,0,.1.2,0,0,0,.2-.1.2h-3.5c.1.5.2,1,.3,1.6.2,1.1.5,2,.8,2.9.3.9.6,1.6.9,2,.2.4.4.6.5.6s.2-.2.3-.6c.1-.4.1-.7.1-1.2s.1-.2.1-.2c.1-.1.2-.1.2-.1.1,0,.2.1.3.1,0,.1.1.2.1.3-.1.5-.1,1-.2,1.3-.1.4-.2.6-.2.8-.1.2-.2.3-.3.4-.1,0-.2.1-.3.1-.2,0-.4-.2-.7-.5-.3-.4-.7-1-1.1-2.1-.4-1-.7-2.1-1-3.3-.2-.7-.3-1.4-.4-2h-5.8c-.2-.2-.3-.3-.4-.3h0ZM167.7,12.3c0,0,.1,0,.1.2,0,0,0,.2-.1.3h-2.2v3.9c.9-.2,1.6-.4,2.1-.6h.3c.1,0,.1.1.2.2v.3c0,.1-.1.1-.2.2-.5.2-1.2.4-2,.6-1.3.3-2.3.5-3.2.6-.1,0-.2,0-.3-.1s-.1-.1-.1-.2,0-.2.1-.2c0,0,.1-.1.2-.1.7-.1,1.4-.2,2.2-.4v-4.1h-2.2c0,0-.1,0-.1-.2,0,0,0-.2.1-.2h5.1c-.2-.2-.1,0,0,0h0v-.2ZM170,8.8c-.1,0-.2-.1-.2-.2v-.3c0-.1.1-.2.2-.2h.3c.1.1.4.2.7.3.3.2.6.3.8.4l.2.2v.3c0,.1-.1.1-.2.1s-.2,0-.3-.1c-.2-.2-.5-.3-.8-.4-.4,0-.6-.1-.7-.1ZM178.7,8.4c.1-.2.3-.2.5-.2h.1c.2,0,.3.1.5.2.6.5,1.3,1,2,1.4.9.5,1.7.8,2.5,1.1h.2v.3s-.1,0-.1.2h-.3c-.6-.2-1.4-.5-2.4-1.1-.9-.5-1.6-1-2.1-1.4-.1-.1-.2-.2-.3-.2s-.2.1-.4.2c-.5.4-1.1.9-2,1.4s-1.7.9-2.4,1.1h-.3q-.1,0-.2-.2v-.3s.1,0,.2-.2c.8-.3,1.7-.7,2.5-1.1.7-.3,1.4-.7,2-1.3h0ZM183.3,13.6h.2c0,0,.1,0,.1.2,0,0,0,.2-.1.3s-.2,0-.3,0h-4.7c-.4.9-1,1.9-1.9,3.2l5.9-.5c-.4-.5-.8-.9-1.1-1.3-.1,0-.1-.2-.1-.3s0-.2.1-.2h.5c.8.7,1.5,1.6,2.2,2.8,0,.1.1.2.1.3s-.1.2-.1.2c-.1.1-.2.1-.3,0-.1,0-.2-.1-.2-.2-.2-.3-.3-.6-.5-.8l-8,.7c-.1,0-.2,0-.3-.1s-.1-.1-.1-.2,0-.2.1-.3.2-.1.3-.1h.9c.7-1.1,1.4-2.2,2-3.3h-2.9c0,0-.1,0-.1-.2,0,0,0-.2.1-.2h8.2ZM181.9,11.4h.2c0,0,.1.1.1.2,0,0,0,.2-.1.2h-5.9c0,0-.1,0-.1-.2,0,0,0-.2.1-.2h.3s5.4,0,5.4,0ZM188.1,18.3c0,.1,0,.2-.1.3s-.1.1-.2.1-.2,0-.2-.1c-.1-.1-.1-.2-.1-.3v-4.7c-.4.4-.9.7-1.4,1.1h-.4c-.1,0-.1-.2,0-.3,0,0,.1,0,.2-.2,1.1-.8,2-1.6,2.5-2.4.4-.6.6-1,.6-1.3v-.3c0,0-.1,0-.2,0h-2.9c-.1,0-.1-.2-.1-.2,0,0,0-.2.1-.2.1,0,.2,0,.3,0h1.4v-.9c0-.1,0-.2.1-.3s.2-.1.3-.1.2,0,.2.1c.1.1.1.2.1.3v.9h.9c.3,0,.5,0,.7.4.1.2.1.4,0,.7-.1.5-.4,1-.8,1.6-.2.3-.4.6-.6.8.6.5,1.1,1,1.5,1.4,0,0,.1,0,.1.2,0,0,0,.2-.1.2h-.2c-.1,0-.2,0-.3-.2l-1.1-1.1v4.7h-.3,0ZM195.8,17.6c.1,0,.2,0,.2.1,0,0,.1.1.1.2,0,0,0,.2-.1.3s-.2.1-.3.1h-5.9c-.1,0-.2,0-.2-.1,0,0-.1-.1-.1-.2,0,0,0-.2.1-.3s.2-.1.3-.1h2.8v-6.3h-2.5c0,0,0,0-.1-.2,0,0,0-.2.1-.2h2.6v-2.4c0-.1,0-.2.1-.3s.2-.1.2-.1c.1,0,.2,0,.2.1.1.1.1.2.1.3v2.2h2.5c0,0,.1,0,.1.2,0,0,0,.2-.1.2h-2.6v6.3h2.5v.2ZM118.2,23.5v2.1l2.4.5v19h5.9v-21.6s-8.3,0-8.3,0Z"/>
    <path class="st2" d="M132.3,23.5v2.2l2.4.5v22.2c0,5-3.3,7.9-6.2,7.9s-4.6-.6-5.2-1.6c-.8-1.3,0-1.3.2-1.3h0c1.7,0,3.1-1.4,3.1-3s-1.4-3.1-3.1-3.1-3.1,1.4-3.1,3.1c0,0-.5,7.9,8.7,7.9s11.5-5.7,11.5-9.8v-25h-8.4,0ZM150.2,23.5v2.1l2.3.5v19h6v-21.6s-8.3,0-8.3,0Z"/>
    <path class="st2" d="M164.3,23.5v2.2l2.4.5v22.2c0,5-3.3,7.9-6.2,7.9s-4.6-.6-5.2-1.6c-.8-1.3,0-1.3.2-1.3h.1c1.7,0,3-1.4,3-3s-1.4-3.1-3-3.1-3.1,1.4-3.1,3.1c0,0-.5,7.9,8.7,7.9s11.5-5.7,11.5-9.8v-25s-8.4,0-8.4,0ZM182.1,40.1v1.7h1.7v8.1h2v-9.8s-3.7,0-3.7,0ZM188.1,40.1h2v9.8h-2v-9.8Z"/>
    <path class="st2" d="M192.1,40.1v11.9c0,3.1-2.1,4.9-3.8,4.9s-2.8-.4-3.3-1c-.5-.8,0-.8.1-.8,1.1,0,1.9-.9,1.9-1.9s-.8-1.9-1.9-1.9-1.9.9-1.9,1.9c0,0-.3,4.9,5.4,4.9s7.1-3.6,7.1-6.1v-11.9s-3.6,0-3.6,0ZM222.4,26.1h-7.4v14.7c0,5.7-6.9,6.6-6.9,6.6l-1.8-2.1s2.7-1.1,2.7-4.5v-14.7l-3.1-.5v-2.2h22.5v25c0,5.4-3.2,9.6-12.1,9.6s-7.9-7.1-7.9-7.1c0-1.5,1.2-2.8,2.8-2.8s2.8,1.2,2.8,2.8-1.2,2.8-2.8,2.8h-.1c-.2,0-.9,0-.2,1.2.6.9,2.2,1.5,4.7,1.5,4,0,6.7-3.4,6.7-8v-22.3s.1,0,.1,0Z"/>
  </g>
  <path class="st0" d="M17,34.3c.1-.1.2-.2.2-.3.1-.2.2-.4.3-.7h15.2v-6.2c0-.5.4-.9,1-.9h57.7c.5,0,1,.4,1,.9v6.2h15.2c.2.4.3.7.5,1.1-3.1,3-6.1,5.9-9.3,8.9,3.1,3,6.2,5.9,9.2,8.9-.2.4-.3.7-.5,1.1h-24.2c-.5,0-.7-.4-1-.6v-6h-39.5v5.6c0,.2-.1.4-.2.6-.3.3-.6.4-1,.4h-24l-.3-.6c-.1,0-.2-.2-.2-.4h0c.1-.2.2-.2.3-.3l8.7-8.4c.1,0,.1-.2.2-.2h-.1c-3-3-6-5.9-9-8.7-.1-.1-.2-.1-.2-.1,0,0,0-.3,0-.3ZM91,27.4h-57v18h57v-18ZM105.8,52h0q0-.2-.2-.3c-1.1-1.1-2.3-2.2-3.4-3.3s-3.1-3-4.6-4.5-.2-.2-.2-.3c0-.4,0-.8.3-1.2,2.7-2.5,5.3-5.1,8-7.6l.3-.3c-.4-.1-13.2-.1-13.5,0v11.1c0,.4-.2.8-.5,1.1-2.2,1.6-4.4,3.3-6.6,4.9,0,0-.2.2-.4.3h20.8,0ZM19.2,34.6h0c0,.2.3.3.4.4l7.8,7.5c.3.3.4.5.4.9s-.1.5-.3.7l-7.9,7.6-.3.3h20.8c-.1,0-.2-.2-.3-.2-2.2-1.6-4.3-3.3-6.5-4.9-.4-.3-.6-.6-.6-1.1v-11.1c-4.6-.2-9-.2-13.5-.2h0ZM83.5,51.3c.5-.2,5.9-4.4,6.1-4.6h-6.1v4.6ZM41.4,46.7h-6.1c.4.4,5.8,4.4,6.1,4.5v-4.5Z"/>
  <g>
    <path class="st0" d="M88.6,34.3c0-.6-.2-1.2-.4-1.7-.5-1.3-1.2-2.3-2.5-2.9-1.1-.5-2.3-.5-3.5-.3-1,.2-1.9.7-2.6,1.4-.8.8-1.3,1.8-1.6,2.9s-.3,2.2-.3,3.3.4,2.6,1.1,3.8,1.7,2.1,3.2,2.4c1.3.3,2.6.2,3.8-.3.7-.3,1.4-.7,1.8-1.4.4-.5.6-1.1.7-1.7h-1.7c-.2.6-.5,1-1.1,1.3-.8.5-1.6.6-2.5.6s-1.7-.5-2.3-1.1c-.5-.5-.8-1.2-1-1.9-.3-.9-.3-1.9-.3-2.9s0-1.7.4-2.5c.3-.9.8-1.6,1.7-2.1.5-.3,1.1-.5,1.7-.5.9-.1,1.8.2,2.5.8.6.6.9,1.3,1.1,2,0,.2,0,.4.2.6.5.2,1,.2,1.6.2ZM52.2,34.6c-.3-.3-.5-.5-.7-.8l-3-3c-.3-.3-.7-.7-1-1.1-.1-.1-.2-.2-.4-.2h-1.9c.1.2.2.3.4.4.9.9,1.7,1.8,2.6,2.7,1,1,1.9,2.1,2.9,3.1s.3.4.3.7v6.7h1.7v-7.3c1.1-1.1,2.2-2.3,3.3-3.4.9-.9,1.8-1.8,2.6-2.7,0-.1,0-.2.2-.3h-1.6c-.3,0-.5.1-.7.3-.6.7-1.3,1.3-2,2l-2.4,2.4c0,.2-.3.3-.4.5h.1ZM46.2,41.5h-7.1v-12h-1.7v13.6h8.8v-1.6ZM73.5,29.6v13.6h1.7v-13.6h-1.7Z"/>
    <path class="st0" d="M88.6,34.3h-1.6c0-.2,0-.4-.2-.6-.2-.8-.5-1.4-1.1-2-.7-.7-1.6-.9-2.5-.8-.6,0-1.2.2-1.7.5-.8.5-1.3,1.2-1.7,2.1-.3.8-.4,1.6-.4,2.5s0,1.9.3,2.9c.2.7.5,1.3,1,1.9.6.7,1.4,1.1,2.3,1.1s1.8,0,2.5-.6c.5-.3.9-.7,1.1-1.3h1.7c0,.6-.3,1.2-.7,1.7-.5.6-1.1,1.1-1.8,1.4-1.2.5-2.5.6-3.8.3-1.5-.4-2.5-1.3-3.2-2.5s-1-2.5-1.1-3.8c0-1.1,0-2.2.3-3.3s.8-2.1,1.6-2.9,1.6-1.2,2.6-1.4c1.2-.2,2.4-.2,3.5.3,1.3.6,2.1,1.6,2.5,2.9.2.4.3,1,.4,1.6ZM52.2,34.6l.4-.4,2.4-2.4,2-2c.2-.2.4-.3.7-.3h1.6c0,.1-.2.2-.2.3-.9.9-1.8,1.8-2.6,2.7-1.1,1.1-2.2,2.3-3.3,3.4v7.3h-1.7v-6.7c0-.3,0-.5-.3-.7-1-1-1.9-2-2.9-3.1-.9-.9-1.7-1.8-2.6-2.7-.1-.1-.2-.3-.4-.4h1.9c.2,0,.3,0,.4.2.3.4.7.7,1,1.1l3,3,.7.7h-.1ZM46.2,41.5v1.6h-8.8v-13.6h1.7v12s7.1,0,7.1,0ZM73.5,29.6h1.7v13.6h-1.7v-13.6Z"/>
  </g>
  <path class="st0" d="M62.2,43.2h-1.7v-13.6h6.4c1,0,1.9.3,2.6.8,1,.7,1.5,1.6,1.7,2.8,0,.9,0,1.9-.5,2.7-.6,1-1.5,1.7-2.6,2,0,0-.2.1-.4.1,1.3,1.6,2.3,3.4,3.2,5.2h-2.2c-.3-.5-.6-1.1-.9-1.7-.5-1-1.1-1.9-1.8-2.8-.4-.5-1-.8-1.6-.8h-2.4c.2,1.8.2,3.5.2,5.3ZM62.2,36.4h4.4c.3,0,.6,0,.9-.1.8-.2,1.5-.6,1.8-1.4.8-1.7-.2-3.8-2.5-3.8h-4.5v5.3h-.1Z"/>
</svg>